<svg width="40" height="40" viewBox="0 0 40 40" fill="none" xmlns="http://www.w3.org/2000/svg">
<path fill-rule="evenodd" clip-rule="evenodd" d="M31.8334 31.9337C32.8167 30.4337 33.1834 29.667 33.9334 27.9837C28.4 25.8837 27.5167 18.0003 32.9834 14.9837C31.3167 12.8837 28.9667 11.667 26.75 11.667C25.1501 11.667 24.05 12.0837 23.0667 12.467C22.2334 12.7837 21.4834 13.067 20.55 13.067C19.55 13.067 18.6667 12.7503 17.7334 12.417C16.7334 12.0503 15.6667 11.667 14.3334 11.667C11.85 11.667 9.20005 13.1837 7.51672 15.7837C5.15005 19.4503 5.56671 26.317 9.38338 32.1837C10.75 34.2837 12.5834 36.6337 14.9667 36.667C15.9667 36.6837 16.6167 36.3837 17.3334 36.067C18.15 35.7003 19.0334 35.3003 20.5834 35.3003C22.1334 35.2837 23 35.7003 23.8167 36.067C24.5167 36.3837 25.15 36.6837 26.1334 36.667C28.5334 36.6337 30.4667 34.0337 31.8334 31.9337Z" fill="#0C0821"/>
<path opacity="0.4" fill-rule="evenodd" clip-rule="evenodd" d="M26.3997 3.33301C26.6664 5.16634 25.9164 6.983 24.9331 8.24967C23.8831 9.61634 22.0497 10.683 20.2831 10.6163C19.9664 8.84968 20.7831 7.033 21.7831 5.81634C22.8997 4.483 24.7831 3.44967 26.3997 3.33301Z" fill="#030303"/>
</svg>
