<svg width="132" height="64" viewBox="0 0 132 64" fill="none" xmlns="http://www.w3.org/2000/svg">
<path d="M100.2 64H31.8002C14.2374 64 0 49.6732 0 32C0 14.3269 14.2374 0 31.8002 0H100.2C117.763 0 132 14.3268 132 32C132 49.6731 117.763 64 100.2 64Z" fill="#C6BDEF"/>
<path d="M31.8 58.7702C46.4918 58.7702 58.4018 46.7854 58.4018 32.0013C58.4018 17.2173 46.4918 5.23242 31.8 5.23242C17.1083 5.23242 5.19824 17.2173 5.19824 32.0013C5.19824 46.7854 17.1083 58.7702 31.8 58.7702Z" fill="#E3DEF7"/>
<path d="M31.8001 24.0527C24.9882 24.0527 19.4668 29.609 19.4668 36.4635C19.4668 43.318 24.9883 48.8742 31.8001 48.8742C38.6118 48.8742 44.1333 43.318 44.1333 36.4635C44.1333 29.609 38.6119 24.0527 31.8001 24.0527ZM32.8359 37.1114L33.2782 40.4584C33.3338 40.8734 33.0118 41.2438 32.5951 41.2438H31.006C30.5901 41.2438 30.2681 40.8734 30.3237 40.4584L30.7652 37.1114C29.8813 36.7135 29.2657 35.8216 29.2657 34.7836C29.2657 33.3752 30.4006 32.2332 31.8001 32.2332C33.2006 32.2332 34.3346 33.3752 34.3346 34.7836C34.3346 35.8207 33.7197 36.7135 32.8359 37.1114Z" fill="#C6BDEF"/>
<path d="M39.5544 29.3541H36.8103V22.9314C36.8103 20.1512 34.5625 17.8893 31.7996 17.8893C29.0368 17.8893 26.7889 20.1512 26.7889 22.9314V29.3541H24.0449V22.9314C24.0449 18.6285 27.5237 15.1279 31.7997 15.1279C36.0757 15.1279 39.5545 18.6285 39.5545 22.9314L39.5544 29.3541Z" fill="#C6BDEF"/>
</svg>
