<svg width="550" height="262" viewBox="0 0 550 262" fill="none" xmlns="http://www.w3.org/2000/svg">
<rect width="550" height="309" rx="12" fill="white"/>
<path d="M31.44 38.272C32.0693 38.3893 32.5867 38.704 32.992 39.216C33.3973 39.728 33.6 40.3147 33.6 40.976C33.6 41.5733 33.4507 42.1013 33.152 42.56C32.864 43.008 32.4427 43.36 31.888 43.616C31.3333 43.872 30.6773 44 29.92 44H25.104V32.832H29.712C30.4693 32.832 31.12 32.9547 31.664 33.2C32.2187 33.4453 32.6347 33.7867 32.912 34.224C33.2 34.6613 33.344 35.1573 33.344 35.712C33.344 36.3627 33.168 36.9067 32.816 37.344C32.4747 37.7813 32.016 38.0907 31.44 38.272ZM27.344 37.44H29.392C29.9253 37.44 30.336 37.3227 30.624 37.088C30.912 36.8427 31.056 36.496 31.056 36.048C31.056 35.6 30.912 35.2533 30.624 35.008C30.336 34.7627 29.9253 34.64 29.392 34.64H27.344V37.44ZM29.6 42.176C30.144 42.176 30.5653 42.048 30.864 41.792C31.1733 41.536 31.328 41.1733 31.328 40.704C31.328 40.224 31.168 39.8507 30.848 39.584C30.528 39.3067 30.096 39.168 29.552 39.168H27.344V42.176H29.6ZM37.5933 32.832V39.744C37.5933 40.5013 37.7906 41.0827 38.1853 41.488C38.5799 41.8827 39.1346 42.08 39.8493 42.08C40.5746 42.08 41.1346 41.8827 41.5293 41.488C41.9239 41.0827 42.1213 40.5013 42.1213 39.744V32.832H44.3773V39.728C44.3773 40.6773 44.1693 41.4827 43.7533 42.144C43.3479 42.7947 42.7986 43.2853 42.1053 43.616C41.4226 43.9467 40.6599 44.112 39.8173 44.112C38.9853 44.112 38.2279 43.9467 37.5453 43.616C36.8733 43.2853 36.3399 42.7947 35.9453 42.144C35.5506 41.4827 35.3533 40.6773 35.3533 39.728V32.832H37.5933ZM50.4455 32.832C51.6188 32.832 52.6482 33.0613 53.5335 33.52C54.4295 33.9787 55.1175 34.6347 55.5975 35.488C56.0882 36.3307 56.3335 37.312 56.3335 38.432C56.3335 39.552 56.0882 40.5333 55.5975 41.376C55.1175 42.208 54.4295 42.8533 53.5335 43.312C52.6482 43.7707 51.6188 44 50.4455 44H46.5415V32.832H50.4455ZM50.3655 42.096C51.5388 42.096 52.4455 41.776 53.0855 41.136C53.7255 40.496 54.0455 39.5947 54.0455 38.432C54.0455 37.2693 53.7255 36.3627 53.0855 35.712C52.4455 35.0507 51.5388 34.72 50.3655 34.72H48.7815V42.096H50.3655ZM65.7863 36.192C65.5303 35.7227 65.1783 35.3653 64.7303 35.12C64.2823 34.8747 63.7596 34.752 63.1623 34.752C62.5009 34.752 61.9143 34.9013 61.4023 35.2C60.8903 35.4987 60.4903 35.9253 60.2023 36.48C59.9143 37.0347 59.7703 37.6747 59.7703 38.4C59.7703 39.1467 59.9143 39.7973 60.2023 40.352C60.5009 40.9067 60.9116 41.3333 61.4343 41.632C61.9569 41.9307 62.5649 42.08 63.2583 42.08C64.1116 42.08 64.8103 41.856 65.3542 41.408C65.8983 40.9493 66.2556 40.3147 66.4263 39.504H62.5863V37.792H68.6343V39.744C68.4849 40.5227 68.1649 41.2427 67.6743 41.904C67.1836 42.5653 66.5489 43.0987 65.7703 43.504C65.0023 43.8987 64.1383 44.096 63.1783 44.096C62.1009 44.096 61.1249 43.856 60.2503 43.376C59.3863 42.8853 58.7036 42.208 58.2023 41.344C57.7116 40.48 57.4663 39.4987 57.4663 38.4C57.4663 37.3013 57.7116 36.32 58.2023 35.456C58.7036 34.5813 59.3863 33.904 60.2503 33.424C61.1249 32.9333 62.0956 32.688 63.1623 32.688C64.4209 32.688 65.5143 32.9973 66.4423 33.616C67.3703 34.224 68.0103 35.0827 68.3623 36.192H65.7863ZM72.5315 34.64V37.44H76.2915V39.216H72.5315V42.176H76.7715V44H70.2915V32.816H76.7715V34.64H72.5315ZM86.4071 32.832V34.64H83.4311V44H81.1911V34.64H78.2151V32.832H86.4071ZM99.998 36.288C99.998 36.8853 99.854 37.4453 99.566 37.968C99.2887 38.4907 98.846 38.912 98.238 39.232C97.6407 39.552 96.8833 39.712 95.966 39.712H94.094V44H91.854V32.832H95.966C96.83 32.832 97.566 32.9813 98.174 33.28C98.782 33.5787 99.2353 33.9893 99.534 34.512C99.8433 35.0347 99.998 35.6267 99.998 36.288ZM95.87 37.904C96.4887 37.904 96.9473 37.7653 97.246 37.488C97.5447 37.2 97.694 36.8 97.694 36.288C97.694 35.2 97.086 34.656 95.87 34.656H94.094V37.904H95.87ZM103.828 42.224H107.508V44H101.588V32.832H103.828V42.224ZM115.78 41.872H111.332L110.596 44H108.244L112.26 32.816H114.868L118.884 44H116.516L115.78 41.872ZM115.172 40.08L113.556 35.408L111.94 40.08H115.172ZM129.937 44H127.697L122.625 36.336V44H120.385V32.816H122.625L127.697 40.496V32.816H129.937V44Z" fill="#474747"/>
<path d="M474.784 32.88L470.608 44H468.496L464.304 32.88H466.256L469.552 42.128L472.864 32.88H474.784ZM477.237 34.016C476.907 34.016 476.629 33.904 476.405 33.68C476.181 33.456 476.069 33.1787 476.069 32.848C476.069 32.5173 476.181 32.24 476.405 32.016C476.629 31.792 476.907 31.68 477.237 31.68C477.557 31.68 477.829 31.792 478.053 32.016C478.277 32.24 478.389 32.5173 478.389 32.848C478.389 33.1787 478.277 33.456 478.053 33.68C477.829 33.904 477.557 34.016 477.237 34.016ZM478.133 35.184V44H476.309V35.184H478.133ZM488.608 39.376C488.608 39.7067 488.587 40.0053 488.544 40.272H481.808C481.861 40.976 482.123 41.5413 482.592 41.968C483.061 42.3947 483.637 42.608 484.32 42.608C485.301 42.608 485.995 42.1973 486.4 41.376H488.368C488.101 42.1867 487.616 42.8533 486.912 43.376C486.219 43.888 485.355 44.144 484.32 44.144C483.477 44.144 482.72 43.9573 482.048 43.584C481.387 43.2 480.864 42.6667 480.48 41.984C480.107 41.2907 479.92 40.4907 479.92 39.584C479.92 38.6773 480.101 37.8827 480.464 37.2C480.837 36.5067 481.355 35.9733 482.016 35.6C482.688 35.2267 483.456 35.04 484.32 35.04C485.152 35.04 485.893 35.2213 486.544 35.584C487.195 35.9467 487.701 36.4587 488.064 37.12C488.427 37.7707 488.608 38.5227 488.608 39.376ZM486.704 38.8C486.693 38.128 486.453 37.5893 485.984 37.184C485.515 36.7787 484.933 36.576 484.24 36.576C483.611 36.576 483.072 36.7787 482.624 37.184C482.176 37.5787 481.909 38.1173 481.824 38.8H486.704ZM502.243 35.184L499.507 44H497.587L495.811 37.488L494.035 44H492.115L489.363 35.184H491.219L493.059 42.272L494.931 35.184H496.835L498.627 42.24L500.451 35.184H502.243ZM507.155 39.552C507.155 38.6667 507.336 37.8827 507.699 37.2C508.072 36.5173 508.573 35.9893 509.203 35.616C509.843 35.232 510.547 35.04 511.315 35.04C512.008 35.04 512.611 35.1787 513.123 35.456C513.645 35.7227 514.061 36.0587 514.371 36.464V35.184H516.211V44H514.371V42.688C514.061 43.104 513.64 43.4507 513.107 43.728C512.573 44.0053 511.965 44.144 511.283 44.144C510.525 44.144 509.832 43.952 509.203 43.568C508.573 43.1733 508.072 42.6293 507.699 41.936C507.336 41.232 507.155 40.4373 507.155 39.552ZM514.371 39.584C514.371 38.976 514.243 38.448 513.987 38C513.741 37.552 513.416 37.2107 513.011 36.976C512.605 36.7413 512.168 36.624 511.699 36.624C511.229 36.624 510.792 36.7413 510.387 36.976C509.981 37.2 509.651 37.536 509.395 37.984C509.149 38.4213 509.027 38.944 509.027 39.552C509.027 40.16 509.149 40.6933 509.395 41.152C509.651 41.6107 509.981 41.9627 510.387 42.208C510.803 42.4427 511.24 42.56 511.699 42.56C512.168 42.56 512.605 42.4427 513.011 42.208C513.416 41.9733 513.741 41.632 513.987 41.184C514.243 40.7253 514.371 40.192 514.371 39.584ZM520.43 32.16V44H518.606V32.16H520.43ZM524.649 32.16V44H522.825V32.16H524.649Z" fill="#2A1A6E"/>
<rect x="24.5" y="69.5" width="501" height="95" rx="11.5" stroke="#E3DEF7"/>
<rect x="40" y="85" width="40" height="40" rx="20" fill="#F4F2FD"/>
<path d="M71.6011 108.355C71.5404 108.167 71.3564 107.942 70.8251 107.942H67.9296C67.9039 107.88 67.8621 107.824 67.8039 107.781C67.7069 107.712 67.6146 107.631 67.5169 107.546C67.2694 107.33 66.9891 107.086 66.5316 106.915C66.2164 106.797 65.8719 106.825 65.5391 106.852C65.2874 106.871 65.0276 106.892 64.8151 106.843C64.6509 106.806 64.4656 106.69 64.2691 106.568C63.9894 106.395 63.6721 106.198 63.2906 106.145C62.9519 106.099 62.6256 106.188 62.3096 106.275C62.0594 106.343 61.8241 106.409 61.6166 106.394C61.4344 106.383 61.2221 106.292 60.9971 106.197C60.7014 106.071 60.3666 105.929 60.0004 105.929C59.6341 105.929 59.2991 106.071 59.0036 106.197C58.7789 106.292 58.5666 106.383 58.3841 106.394C58.1766 106.409 57.9414 106.343 57.6911 106.275C57.3749 106.188 57.0479 106.099 56.7099 106.145C56.3284 106.198 56.0111 106.395 55.7314 106.569C55.5354 106.69 55.3501 106.806 55.1859 106.844C54.9731 106.892 54.7134 106.872 54.4621 106.852C54.1286 106.825 53.7844 106.797 53.4694 106.915C53.0119 107.086 52.7316 107.33 52.4841 107.546C52.3861 107.631 52.2939 107.712 52.1971 107.781C52.1389 107.824 52.0971 107.88 52.0714 107.942H49.1736C48.6414 107.942 48.4584 108.166 48.3986 108.355C48.3389 108.543 48.3591 108.832 48.7944 109.139L54.2079 112.951C54.3489 113.05 54.5239 113.142 54.7121 113.223V113.935C54.7121 114.636 55.2821 115.206 55.9826 115.206H64.0179C64.7186 115.206 65.2886 114.636 65.2886 113.935V113.277C65.5304 113.182 65.7541 113.067 65.9289 112.941L71.2124 109.144C71.6439 108.834 71.6619 108.544 71.6011 108.355ZM53.7319 107.618C53.8914 107.558 54.1394 107.578 54.4026 107.599C54.6964 107.623 55.0286 107.649 55.3544 107.574C55.6404 107.508 55.8881 107.354 56.1276 107.205C56.3649 107.058 56.5889 106.919 56.8121 106.888C56.9974 106.862 57.2391 106.928 57.4936 106.997C57.7784 107.075 58.1016 107.163 58.4329 107.142C58.7429 107.122 59.0246 107.002 59.2974 106.886C59.5494 106.779 59.7874 106.678 60.0006 106.678C60.2139 106.678 60.4521 106.779 60.7039 106.886C60.9766 107.002 61.2584 107.122 61.5684 107.142C61.8986 107.163 62.2229 107.075 62.5076 106.997C62.7624 106.928 63.0039 106.862 63.1889 106.888C63.4124 106.918 63.6364 107.058 63.8736 107.205C64.1131 107.354 64.3611 107.508 64.6469 107.574C64.9726 107.649 65.3054 107.622 65.5991 107.599C65.8619 107.578 66.1101 107.558 66.2696 107.618C66.4989 107.703 66.6674 107.817 66.8226 107.942H53.1789C53.3341 107.817 53.5026 107.703 53.7319 107.618ZM64.5386 113.935C64.5386 114.222 64.3049 114.456 64.0179 114.456H55.9829C55.6959 114.456 55.4624 114.222 55.4624 113.935V113.462C55.6704 113.507 55.8736 113.535 56.0521 113.535H64.0871C64.2264 113.535 64.3799 113.519 64.5389 113.491L64.5386 113.935ZM65.4911 112.333C65.1561 112.574 64.4999 112.785 64.0871 112.785H56.0521C55.6384 112.785 54.9784 112.576 54.6399 112.338L49.4621 108.692H70.5566L65.4911 112.333Z" fill="#2A1A6E"/>
<path d="M59.0938 101.903C59.0938 102.11 59.2617 102.278 59.4688 102.278C59.6758 102.278 59.8438 102.11 59.8438 101.903C59.8438 101.491 60.0237 101.301 60.2727 101.038C60.5555 100.74 60.9072 100.369 60.9072 99.658C60.9072 98.9472 60.5555 98.5757 60.2727 98.2775C60.0237 98.0147 59.8438 97.8247 59.8438 97.413C59.8438 97.0012 60.0237 96.8112 60.2727 96.5485C60.5555 96.25 60.9072 95.8787 60.9072 95.168C60.9072 94.9607 60.7392 94.793 60.5322 94.793C60.3252 94.793 60.1572 94.9607 60.1572 95.168C60.1572 95.5797 59.9772 95.7697 59.7282 96.0325C59.4455 96.331 59.0938 96.7022 59.0938 97.4127C59.0938 98.1232 59.4455 98.4947 59.7282 98.7932C59.9772 99.056 60.1572 99.246 60.1572 99.658C60.1572 100.07 59.9772 100.26 59.7282 100.522C59.4455 100.821 59.0938 101.192 59.0938 101.903Z" fill="#2A1A6E"/>
<path d="M55.9033 105.271C55.9033 105.478 56.0713 105.646 56.2783 105.646C56.4853 105.646 56.6533 105.478 56.6533 105.271C56.6533 104.859 56.8333 104.669 57.0823 104.406C57.3651 104.108 57.7168 103.737 57.7168 103.026C57.7168 102.315 57.3651 101.944 57.0823 101.645C56.8333 101.383 56.6533 101.193 56.6533 100.781C56.6533 100.369 56.8333 100.179 57.0823 99.9164C57.3651 99.6181 57.7168 99.2466 57.7168 98.5361C57.7168 98.3289 57.5488 98.1611 57.3418 98.1611C57.1348 98.1611 56.9668 98.3289 56.9668 98.5361C56.9668 98.9479 56.7868 99.1379 56.5378 99.4006C56.2551 99.6989 55.9033 100.07 55.9033 100.781C55.9033 101.491 56.2551 101.863 56.5378 102.161C56.7868 102.424 56.9668 102.614 56.9668 103.026C56.9668 103.438 56.7868 103.628 56.5378 103.891C56.2553 104.189 55.9033 104.56 55.9033 105.271Z" fill="#2A1A6E"/>
<path d="M62.2842 105.271C62.2842 105.478 62.4522 105.646 62.6592 105.646C62.8662 105.646 63.0342 105.478 63.0342 105.271C63.0342 104.859 63.2142 104.669 63.4632 104.406C63.7459 104.108 64.0977 103.737 64.0977 103.026C64.0977 102.315 63.7459 101.944 63.4632 101.645C63.2142 101.383 63.0342 101.193 63.0342 100.781C63.0342 100.369 63.2142 100.179 63.4632 99.9164C63.7459 99.6181 64.0977 99.2466 64.0977 98.5361C64.0977 98.3289 63.9297 98.1611 63.7227 98.1611C63.5157 98.1611 63.3477 98.3289 63.3477 98.5361C63.3477 98.9479 63.1677 99.1379 62.9187 99.4006C62.6359 99.6989 62.2842 100.07 62.2842 100.781C62.2842 101.491 62.6359 101.863 62.9187 102.161C63.1677 102.424 63.3477 102.614 63.3477 103.026C63.3477 103.438 63.1677 103.628 62.9187 103.891C62.6359 104.189 62.2842 104.56 62.2842 105.271Z" fill="#2A1A6E"/>
<path d="M100 90.832V92.64H95.344V95.504H98.912V97.28H95.344V102H93.104V90.832H100ZM105.524 102.144C104.671 102.144 103.903 101.957 103.22 101.584C102.538 101.2 101.999 100.661 101.604 99.968C101.22 99.2747 101.028 98.4747 101.028 97.568C101.028 96.6613 101.226 95.8613 101.62 95.168C102.026 94.4747 102.575 93.9413 103.268 93.568C103.962 93.184 104.735 92.992 105.588 92.992C106.442 92.992 107.215 93.184 107.908 93.568C108.602 93.9413 109.146 94.4747 109.54 95.168C109.946 95.8613 110.148 96.6613 110.148 97.568C110.148 98.4747 109.94 99.2747 109.524 99.968C109.119 100.661 108.564 101.2 107.86 101.584C107.167 101.957 106.388 102.144 105.524 102.144ZM105.524 100.192C105.93 100.192 106.308 100.096 106.66 99.904C107.023 99.7013 107.311 99.4027 107.524 99.008C107.738 98.6133 107.844 98.1333 107.844 97.568C107.844 96.7253 107.62 96.08 107.172 95.632C106.735 95.1733 106.196 94.944 105.556 94.944C104.916 94.944 104.378 95.1733 103.94 95.632C103.514 96.08 103.3 96.7253 103.3 97.568C103.3 98.4107 103.508 99.0613 103.924 99.52C104.351 99.968 104.884 100.192 105.524 100.192ZM115.728 102.144C114.874 102.144 114.106 101.957 113.424 101.584C112.741 101.2 112.202 100.661 111.808 99.968C111.424 99.2747 111.232 98.4747 111.232 97.568C111.232 96.6613 111.429 95.8613 111.824 95.168C112.229 94.4747 112.778 93.9413 113.472 93.568C114.165 93.184 114.938 92.992 115.792 92.992C116.645 92.992 117.418 93.184 118.112 93.568C118.805 93.9413 119.349 94.4747 119.744 95.168C120.149 95.8613 120.352 96.6613 120.352 97.568C120.352 98.4747 120.144 99.2747 119.727 99.968C119.322 100.661 118.768 101.2 118.064 101.584C117.37 101.957 116.592 102.144 115.728 102.144ZM115.728 100.192C116.133 100.192 116.512 100.096 116.864 99.904C117.226 99.7013 117.514 99.4027 117.728 99.008C117.941 98.6133 118.048 98.1333 118.048 97.568C118.048 96.7253 117.824 96.08 117.376 95.632C116.938 95.1733 116.4 94.944 115.76 94.944C115.12 94.944 114.581 95.1733 114.144 95.632C113.717 96.08 113.504 96.7253 113.504 97.568C113.504 98.4107 113.712 99.0613 114.128 99.52C114.554 99.968 115.088 100.192 115.728 100.192ZM121.419 97.536C121.419 96.64 121.595 95.8453 121.947 95.152C122.309 94.4587 122.8 93.9253 123.419 93.552C124.037 93.1787 124.725 92.992 125.483 92.992C126.059 92.992 126.608 93.12 127.131 93.376C127.653 93.6213 128.069 93.952 128.379 94.368V90.16H130.651V102H128.379V100.688C128.101 101.125 127.712 101.477 127.211 101.744C126.709 102.011 126.128 102.144 125.467 102.144C124.72 102.144 124.037 101.952 123.419 101.568C122.8 101.184 122.309 100.645 121.947 99.952C121.595 99.248 121.419 98.4427 121.419 97.536ZM128.395 97.568C128.395 97.024 128.288 96.56 128.075 96.176C127.861 95.7813 127.573 95.4827 127.211 95.28C126.848 95.0667 126.459 94.96 126.043 94.96C125.627 94.96 125.243 95.0613 124.891 95.264C124.539 95.4667 124.251 95.7653 124.027 96.16C123.813 96.544 123.707 97.0027 123.707 97.536C123.707 98.0693 123.813 98.5387 124.027 98.944C124.251 99.3387 124.539 99.6427 124.891 99.856C125.253 100.069 125.637 100.176 126.043 100.176C126.459 100.176 126.848 100.075 127.211 99.872C127.573 99.6587 127.861 99.36 128.075 98.976C128.288 98.5813 128.395 98.112 128.395 97.568Z" fill="#292929"/>
<path d="M100.47 113.07C100.199 112.501 99.8073 112.062 99.294 111.754C98.7807 111.437 98.1833 111.278 97.502 111.278C96.8207 111.278 96.2047 111.437 95.654 111.754C95.1127 112.062 94.6833 112.51 94.366 113.098C94.058 113.677 93.904 114.349 93.904 115.114C93.904 115.879 94.058 116.551 94.366 117.13C94.6833 117.709 95.1127 118.157 95.654 118.474C96.2047 118.782 96.8207 118.936 97.502 118.936C98.454 118.936 99.238 118.651 99.854 118.082C100.47 117.513 100.829 116.743 100.932 115.772H97.04V114.736H102.29V115.716C102.215 116.519 101.963 117.256 101.534 117.928C101.105 118.591 100.54 119.118 99.84 119.51C99.14 119.893 98.3607 120.084 97.502 120.084C96.5967 120.084 95.7707 119.874 95.024 119.454C94.2773 119.025 93.6847 118.432 93.246 117.676C92.8167 116.92 92.602 116.066 92.602 115.114C92.602 114.162 92.8167 113.308 93.246 112.552C93.6847 111.787 94.2773 111.194 95.024 110.774C95.7707 110.345 96.5967 110.13 97.502 110.13C98.538 110.13 99.4527 110.387 100.246 110.9C101.049 111.413 101.632 112.137 101.996 113.07H100.47ZM105.248 113.574C105.472 113.135 105.79 112.795 106.2 112.552C106.62 112.309 107.129 112.188 107.726 112.188V113.504H107.39C105.962 113.504 105.248 114.279 105.248 115.828V120H103.974V112.328H105.248V113.574ZM112.543 120.126C111.824 120.126 111.171 119.963 110.583 119.636C110.004 119.309 109.547 118.847 109.211 118.25C108.884 117.643 108.721 116.943 108.721 116.15C108.721 115.366 108.889 114.675 109.225 114.078C109.57 113.471 110.037 113.009 110.625 112.692C111.213 112.365 111.871 112.202 112.599 112.202C113.327 112.202 113.985 112.365 114.573 112.692C115.161 113.009 115.623 113.467 115.959 114.064C116.304 114.661 116.477 115.357 116.477 116.15C116.477 116.943 116.3 117.643 115.945 118.25C115.6 118.847 115.128 119.309 114.531 119.636C113.934 119.963 113.271 120.126 112.543 120.126ZM112.543 119.006C113 119.006 113.43 118.899 113.831 118.684C114.232 118.469 114.554 118.147 114.797 117.718C115.049 117.289 115.175 116.766 115.175 116.15C115.175 115.534 115.054 115.011 114.811 114.582C114.568 114.153 114.251 113.835 113.859 113.63C113.467 113.415 113.042 113.308 112.585 113.308C112.118 113.308 111.689 113.415 111.297 113.63C110.914 113.835 110.606 114.153 110.373 114.582C110.14 115.011 110.023 115.534 110.023 116.15C110.023 116.775 110.135 117.303 110.359 117.732C110.592 118.161 110.9 118.483 111.283 118.698C111.666 118.903 112.086 119.006 112.543 119.006ZM117.676 116.15C117.676 115.357 117.835 114.666 118.152 114.078C118.47 113.481 118.908 113.019 119.468 112.692C120.038 112.365 120.686 112.202 121.414 112.202C122.357 112.202 123.132 112.431 123.738 112.888C124.354 113.345 124.76 113.98 124.956 114.792H123.584C123.454 114.325 123.197 113.957 122.814 113.686C122.441 113.415 121.974 113.28 121.414 113.28C120.686 113.28 120.098 113.532 119.65 114.036C119.202 114.531 118.978 115.235 118.978 116.15C118.978 117.074 119.202 117.788 119.65 118.292C120.098 118.796 120.686 119.048 121.414 119.048C121.974 119.048 122.441 118.917 122.814 118.656C123.188 118.395 123.444 118.021 123.584 117.536H124.956C124.751 118.32 124.34 118.95 123.724 119.426C123.108 119.893 122.338 120.126 121.414 120.126C120.686 120.126 120.038 119.963 119.468 119.636C118.908 119.309 118.47 118.847 118.152 118.25C117.835 117.653 117.676 116.953 117.676 116.15ZM133.656 115.87C133.656 116.113 133.642 116.369 133.614 116.64H127.482C127.529 117.396 127.785 117.989 128.252 118.418C128.728 118.838 129.302 119.048 129.974 119.048C130.525 119.048 130.982 118.922 131.346 118.67C131.719 118.409 131.981 118.063 132.13 117.634H133.502C133.297 118.371 132.886 118.973 132.27 119.44C131.654 119.897 130.889 120.126 129.974 120.126C129.246 120.126 128.593 119.963 128.014 119.636C127.445 119.309 126.997 118.847 126.67 118.25C126.343 117.643 126.18 116.943 126.18 116.15C126.18 115.357 126.339 114.661 126.656 114.064C126.973 113.467 127.417 113.009 127.986 112.692C128.565 112.365 129.227 112.202 129.974 112.202C130.702 112.202 131.346 112.361 131.906 112.678C132.466 112.995 132.895 113.434 133.194 113.994C133.502 114.545 133.656 115.17 133.656 115.87ZM132.34 115.604C132.34 115.119 132.233 114.703 132.018 114.358C131.803 114.003 131.509 113.737 131.136 113.56C130.772 113.373 130.366 113.28 129.918 113.28C129.274 113.28 128.723 113.485 128.266 113.896C127.818 114.307 127.561 114.876 127.496 115.604H132.34ZM136.612 113.574C136.836 113.135 137.153 112.795 137.564 112.552C137.984 112.309 138.492 112.188 139.09 112.188V113.504H138.754C137.326 113.504 136.612 114.279 136.612 115.828V120H135.338V112.328H136.612V113.574ZM147.168 112.328L142.548 123.612H141.232L142.744 119.916L139.65 112.328H141.064L143.472 118.544L145.852 112.328H147.168ZM154.898 120.126C154.31 120.126 153.782 120.028 153.316 119.832C152.849 119.627 152.48 119.347 152.21 118.992C151.939 118.628 151.79 118.213 151.762 117.746H153.078C153.115 118.129 153.292 118.441 153.61 118.684C153.936 118.927 154.361 119.048 154.884 119.048C155.369 119.048 155.752 118.941 156.032 118.726C156.312 118.511 156.452 118.241 156.452 117.914C156.452 117.578 156.302 117.331 156.004 117.172C155.705 117.004 155.243 116.841 154.618 116.682C154.048 116.533 153.582 116.383 153.218 116.234C152.863 116.075 152.555 115.847 152.294 115.548C152.042 115.24 151.916 114.839 151.916 114.344C151.916 113.952 152.032 113.593 152.266 113.266C152.499 112.939 152.83 112.683 153.26 112.496C153.689 112.3 154.179 112.202 154.73 112.202C155.579 112.202 156.265 112.417 156.788 112.846C157.31 113.275 157.59 113.863 157.628 114.61H156.354C156.326 114.209 156.162 113.887 155.864 113.644C155.574 113.401 155.182 113.28 154.688 113.28C154.23 113.28 153.866 113.378 153.596 113.574C153.325 113.77 153.19 114.027 153.19 114.344C153.19 114.596 153.269 114.806 153.428 114.974C153.596 115.133 153.801 115.263 154.044 115.366C154.296 115.459 154.641 115.567 155.08 115.688C155.63 115.837 156.078 115.987 156.424 116.136C156.769 116.276 157.063 116.491 157.306 116.78C157.558 117.069 157.688 117.447 157.698 117.914C157.698 118.334 157.581 118.712 157.348 119.048C157.114 119.384 156.783 119.65 156.354 119.846C155.934 120.033 155.448 120.126 154.898 120.126ZM163.304 112.188C163.883 112.188 164.405 112.314 164.872 112.566C165.339 112.809 165.703 113.177 165.964 113.672C166.235 114.167 166.37 114.769 166.37 115.478V120H165.11V115.66C165.11 114.895 164.919 114.311 164.536 113.91C164.153 113.499 163.631 113.294 162.968 113.294C162.296 113.294 161.759 113.504 161.358 113.924C160.966 114.344 160.77 114.955 160.77 115.758V120H159.496V109.64H160.77V113.42C161.022 113.028 161.367 112.725 161.806 112.51C162.254 112.295 162.753 112.188 163.304 112.188ZM171.797 120.126C171.078 120.126 170.425 119.963 169.837 119.636C169.258 119.309 168.801 118.847 168.465 118.25C168.138 117.643 167.975 116.943 167.975 116.15C167.975 115.366 168.143 114.675 168.479 114.078C168.824 113.471 169.291 113.009 169.879 112.692C170.467 112.365 171.125 112.202 171.853 112.202C172.581 112.202 173.239 112.365 173.827 112.692C174.415 113.009 174.877 113.467 175.213 114.064C175.558 114.661 175.731 115.357 175.731 116.15C175.731 116.943 175.554 117.643 175.199 118.25C174.854 118.847 174.382 119.309 173.785 119.636C173.188 119.963 172.525 120.126 171.797 120.126ZM171.797 119.006C172.254 119.006 172.684 118.899 173.085 118.684C173.486 118.469 173.808 118.147 174.051 117.718C174.303 117.289 174.429 116.766 174.429 116.15C174.429 115.534 174.308 115.011 174.065 114.582C173.822 114.153 173.505 113.835 173.113 113.63C172.721 113.415 172.296 113.308 171.839 113.308C171.372 113.308 170.943 113.415 170.551 113.63C170.168 113.835 169.86 114.153 169.627 114.582C169.394 115.011 169.277 115.534 169.277 116.15C169.277 116.775 169.389 117.303 169.613 117.732C169.846 118.161 170.154 118.483 170.537 118.698C170.92 118.903 171.34 119.006 171.797 119.006ZM178.68 113.742C178.932 113.303 179.305 112.939 179.8 112.65C180.304 112.351 180.887 112.202 181.55 112.202C182.231 112.202 182.847 112.365 183.398 112.692C183.958 113.019 184.397 113.481 184.714 114.078C185.031 114.666 185.19 115.352 185.19 116.136C185.19 116.911 185.031 117.601 184.714 118.208C184.397 118.815 183.958 119.286 183.398 119.622C182.847 119.958 182.231 120.126 181.55 120.126C180.897 120.126 180.318 119.981 179.814 119.692C179.319 119.393 178.941 119.025 178.68 118.586V123.64H177.406V112.328H178.68V113.742ZM183.888 116.136C183.888 115.557 183.771 115.053 183.538 114.624C183.305 114.195 182.987 113.868 182.586 113.644C182.194 113.42 181.76 113.308 181.284 113.308C180.817 113.308 180.383 113.425 179.982 113.658C179.59 113.882 179.273 114.213 179.03 114.652C178.797 115.081 178.68 115.581 178.68 116.15C178.68 116.729 178.797 117.237 179.03 117.676C179.273 118.105 179.59 118.437 179.982 118.67C180.383 118.894 180.817 119.006 181.284 119.006C181.76 119.006 182.194 118.894 182.586 118.67C182.987 118.437 183.305 118.105 183.538 117.676C183.771 117.237 183.888 116.724 183.888 116.136ZM188.141 113.742C188.393 113.303 188.766 112.939 189.261 112.65C189.765 112.351 190.348 112.202 191.011 112.202C191.692 112.202 192.308 112.365 192.859 112.692C193.419 113.019 193.858 113.481 194.175 114.078C194.492 114.666 194.651 115.352 194.651 116.136C194.651 116.911 194.492 117.601 194.175 118.208C193.858 118.815 193.419 119.286 192.859 119.622C192.308 119.958 191.692 120.126 191.011 120.126C190.358 120.126 189.779 119.981 189.275 119.692C188.78 119.393 188.402 119.025 188.141 118.586V123.64H186.867V112.328H188.141V113.742ZM193.349 116.136C193.349 115.557 193.232 115.053 192.999 114.624C192.766 114.195 192.448 113.868 192.047 113.644C191.655 113.42 191.221 113.308 190.745 113.308C190.278 113.308 189.844 113.425 189.443 113.658C189.051 113.882 188.734 114.213 188.491 114.652C188.258 115.081 188.141 115.581 188.141 116.15C188.141 116.729 188.258 117.237 188.491 117.676C188.734 118.105 189.051 118.437 189.443 118.67C189.844 118.894 190.278 119.006 190.745 119.006C191.221 119.006 191.655 118.894 192.047 118.67C192.448 118.437 192.766 118.105 192.999 117.676C193.232 117.237 193.349 116.724 193.349 116.136ZM196.986 111.082C196.743 111.082 196.538 110.998 196.37 110.83C196.202 110.662 196.118 110.457 196.118 110.214C196.118 109.971 196.202 109.766 196.37 109.598C196.538 109.43 196.743 109.346 196.986 109.346C197.219 109.346 197.415 109.43 197.574 109.598C197.742 109.766 197.826 109.971 197.826 110.214C197.826 110.457 197.742 110.662 197.574 110.83C197.415 110.998 197.219 111.082 196.986 111.082ZM197.602 112.328V120H196.328V112.328H197.602ZM203.511 112.188C204.445 112.188 205.201 112.473 205.779 113.042C206.358 113.602 206.647 114.414 206.647 115.478V120H205.387V115.66C205.387 114.895 205.196 114.311 204.813 113.91C204.431 113.499 203.908 113.294 203.245 113.294C202.573 113.294 202.037 113.504 201.635 113.924C201.243 114.344 201.047 114.955 201.047 115.758V120H199.773V112.328H201.047V113.42C201.299 113.028 201.64 112.725 202.069 112.51C202.508 112.295 202.989 112.188 203.511 112.188ZM211.892 112.202C212.555 112.202 213.134 112.347 213.628 112.636C214.132 112.925 214.506 113.289 214.748 113.728V112.328H216.036V120.168C216.036 120.868 215.887 121.489 215.588 122.03C215.29 122.581 214.86 123.01 214.3 123.318C213.75 123.626 213.106 123.78 212.368 123.78C211.36 123.78 210.52 123.542 209.848 123.066C209.176 122.59 208.78 121.941 208.658 121.12H209.918C210.058 121.587 210.348 121.96 210.786 122.24C211.225 122.529 211.752 122.674 212.368 122.674C213.068 122.674 213.638 122.455 214.076 122.016C214.524 121.577 214.748 120.961 214.748 120.168V118.558C214.496 119.006 214.123 119.379 213.628 119.678C213.134 119.977 212.555 120.126 211.892 120.126C211.211 120.126 210.59 119.958 210.03 119.622C209.48 119.286 209.046 118.815 208.728 118.208C208.411 117.601 208.252 116.911 208.252 116.136C208.252 115.352 208.411 114.666 208.728 114.078C209.046 113.481 209.48 113.019 210.03 112.692C210.59 112.365 211.211 112.202 211.892 112.202ZM214.748 116.15C214.748 115.571 214.632 115.067 214.398 114.638C214.165 114.209 213.848 113.882 213.446 113.658C213.054 113.425 212.62 113.308 212.144 113.308C211.668 113.308 211.234 113.42 210.842 113.644C210.45 113.868 210.138 114.195 209.904 114.624C209.671 115.053 209.554 115.557 209.554 116.136C209.554 116.724 209.671 117.237 209.904 117.676C210.138 118.105 210.45 118.437 210.842 118.67C211.234 118.894 211.668 119.006 212.144 119.006C212.62 119.006 213.054 118.894 213.446 118.67C213.848 118.437 214.165 118.105 214.398 117.676C214.632 117.237 214.748 116.729 214.748 116.15ZM219.505 118.236L217.937 122.002H217.083L218.105 118.236H219.505ZM224.221 116.136C224.221 115.352 224.38 114.666 224.697 114.078C225.014 113.481 225.448 113.019 225.999 112.692C226.559 112.365 227.184 112.202 227.875 112.202C228.472 112.202 229.028 112.342 229.541 112.622C230.054 112.893 230.446 113.252 230.717 113.7V109.64H232.005V120H230.717V118.558C230.465 119.015 230.092 119.393 229.597 119.692C229.102 119.981 228.524 120.126 227.861 120.126C227.18 120.126 226.559 119.958 225.999 119.622C225.448 119.286 225.014 118.815 224.697 118.208C224.38 117.601 224.221 116.911 224.221 116.136ZM230.717 116.15C230.717 115.571 230.6 115.067 230.367 114.638C230.134 114.209 229.816 113.882 229.415 113.658C229.023 113.425 228.589 113.308 228.113 113.308C227.637 113.308 227.203 113.42 226.811 113.644C226.419 113.868 226.106 114.195 225.873 114.624C225.64 115.053 225.523 115.557 225.523 116.136C225.523 116.724 225.64 117.237 225.873 117.676C226.106 118.105 226.419 118.437 226.811 118.67C227.203 118.894 227.637 119.006 228.113 119.006C228.589 119.006 229.023 118.894 229.415 118.67C229.816 118.437 230.134 118.105 230.367 117.676C230.6 117.237 230.717 116.729 230.717 116.15ZM234.816 111.082C234.573 111.082 234.368 110.998 234.2 110.83C234.032 110.662 233.948 110.457 233.948 110.214C233.948 109.971 234.032 109.766 234.2 109.598C234.368 109.43 234.573 109.346 234.816 109.346C235.049 109.346 235.245 109.43 235.404 109.598C235.572 109.766 235.656 109.971 235.656 110.214C235.656 110.457 235.572 110.662 235.404 110.83C235.245 110.998 235.049 111.082 234.816 111.082ZM235.432 112.328V120H234.158V112.328H235.432ZM241.341 112.188C242.275 112.188 243.031 112.473 243.609 113.042C244.188 113.602 244.477 114.414 244.477 115.478V120H243.217V115.66C243.217 114.895 243.026 114.311 242.643 113.91C242.261 113.499 241.738 113.294 241.075 113.294C240.403 113.294 239.867 113.504 239.465 113.924C239.073 114.344 238.877 114.955 238.877 115.758V120H237.603V112.328H238.877V113.42C239.129 113.028 239.47 112.725 239.899 112.51C240.338 112.295 240.819 112.188 241.341 112.188ZM247.216 111.082C246.974 111.082 246.768 110.998 246.6 110.83C246.432 110.662 246.348 110.457 246.348 110.214C246.348 109.971 246.432 109.766 246.6 109.598C246.768 109.43 246.974 109.346 247.216 109.346C247.45 109.346 247.646 109.43 247.804 109.598C247.972 109.766 248.056 109.971 248.056 110.214C248.056 110.457 247.972 110.662 247.804 110.83C247.646 110.998 247.45 111.082 247.216 111.082ZM247.832 112.328V120H246.558V112.328H247.832ZM253.742 112.188C254.675 112.188 255.431 112.473 256.01 113.042C256.588 113.602 256.878 114.414 256.878 115.478V120H255.618V115.66C255.618 114.895 255.426 114.311 255.044 113.91C254.661 113.499 254.138 113.294 253.476 113.294C252.804 113.294 252.267 113.504 251.866 113.924C251.474 114.344 251.278 114.955 251.278 115.758V120H250.004V112.328H251.278V113.42C251.53 113.028 251.87 112.725 252.3 112.51C252.738 112.295 253.219 112.188 253.742 112.188ZM262.123 112.202C262.786 112.202 263.364 112.347 263.859 112.636C264.363 112.925 264.736 113.289 264.979 113.728V112.328H266.267V120.168C266.267 120.868 266.118 121.489 265.819 122.03C265.52 122.581 265.091 123.01 264.531 123.318C263.98 123.626 263.336 123.78 262.599 123.78C261.591 123.78 260.751 123.542 260.079 123.066C259.407 122.59 259.01 121.941 258.889 121.12H260.149C260.289 121.587 260.578 121.96 261.017 122.24C261.456 122.529 261.983 122.674 262.599 122.674C263.299 122.674 263.868 122.455 264.307 122.016C264.755 121.577 264.979 120.961 264.979 120.168V118.558C264.727 119.006 264.354 119.379 263.859 119.678C263.364 119.977 262.786 120.126 262.123 120.126C261.442 120.126 260.821 119.958 260.261 119.622C259.71 119.286 259.276 118.815 258.959 118.208C258.642 117.601 258.483 116.911 258.483 116.136C258.483 115.352 258.642 114.666 258.959 114.078C259.276 113.481 259.71 113.019 260.261 112.692C260.821 112.365 261.442 112.202 262.123 112.202ZM264.979 116.15C264.979 115.571 264.862 115.067 264.629 114.638C264.396 114.209 264.078 113.882 263.677 113.658C263.285 113.425 262.851 113.308 262.375 113.308C261.899 113.308 261.465 113.42 261.073 113.644C260.681 113.868 260.368 114.195 260.135 114.624C259.902 115.053 259.785 115.557 259.785 116.136C259.785 116.724 259.902 117.237 260.135 117.676C260.368 118.105 260.681 118.437 261.073 118.67C261.465 118.894 261.899 119.006 262.375 119.006C262.851 119.006 263.285 118.894 263.677 118.67C264.078 118.437 264.396 118.105 264.629 117.676C264.862 117.237 264.979 116.729 264.979 116.15ZM275.498 120.126C274.78 120.126 274.126 119.963 273.538 119.636C272.96 119.309 272.502 118.847 272.166 118.25C271.84 117.643 271.676 116.943 271.676 116.15C271.676 115.366 271.844 114.675 272.18 114.078C272.526 113.471 272.992 113.009 273.58 112.692C274.168 112.365 274.826 112.202 275.554 112.202C276.282 112.202 276.94 112.365 277.528 112.692C278.116 113.009 278.578 113.467 278.914 114.064C279.26 114.661 279.432 115.357 279.432 116.15C279.432 116.943 279.255 117.643 278.9 118.25C278.555 118.847 278.084 119.309 277.486 119.636C276.889 119.963 276.226 120.126 275.498 120.126ZM275.498 119.006C275.956 119.006 276.385 118.899 276.786 118.684C277.188 118.469 277.51 118.147 277.752 117.718C278.004 117.289 278.13 116.766 278.13 116.15C278.13 115.534 278.009 115.011 277.766 114.582C277.524 114.153 277.206 113.835 276.814 113.63C276.422 113.415 275.998 113.308 275.54 113.308C275.074 113.308 274.644 113.415 274.252 113.63C273.87 113.835 273.562 114.153 273.328 114.582C273.095 115.011 272.978 115.534 272.978 116.15C272.978 116.775 273.09 117.303 273.314 117.732C273.548 118.161 273.856 118.483 274.238 118.698C274.621 118.903 275.041 119.006 275.498 119.006ZM287.911 112.328V120H286.637V118.866C286.395 119.258 286.054 119.566 285.615 119.79C285.186 120.005 284.71 120.112 284.187 120.112C283.59 120.112 283.053 119.991 282.577 119.748C282.101 119.496 281.723 119.123 281.443 118.628C281.173 118.133 281.037 117.531 281.037 116.822V112.328H282.297V116.654C282.297 117.41 282.489 117.993 282.871 118.404C283.254 118.805 283.777 119.006 284.439 119.006C285.121 119.006 285.657 118.796 286.049 118.376C286.441 117.956 286.637 117.345 286.637 116.542V112.328H287.911ZM291.616 113.378V117.9C291.616 118.273 291.696 118.539 291.854 118.698C292.013 118.847 292.288 118.922 292.68 118.922H293.618V120H292.47C291.761 120 291.229 119.837 290.874 119.51C290.52 119.183 290.342 118.647 290.342 117.9V113.378H289.348V112.328H290.342V110.396H291.616V112.328H293.618V113.378H291.616ZM296.478 118.236L294.91 122.002H294.056L295.078 118.236H296.478ZM308.67 115.87C308.67 116.113 308.656 116.369 308.628 116.64H302.496C302.542 117.396 302.799 117.989 303.266 118.418C303.742 118.838 304.316 119.048 304.988 119.048C305.538 119.048 305.996 118.922 306.36 118.67C306.733 118.409 306.994 118.063 307.144 117.634H308.516C308.31 118.371 307.9 118.973 307.284 119.44C306.668 119.897 305.902 120.126 304.988 120.126C304.26 120.126 303.606 119.963 303.028 119.636C302.458 119.309 302.01 118.847 301.684 118.25C301.357 117.643 301.194 116.943 301.194 116.15C301.194 115.357 301.352 114.661 301.67 114.064C301.987 113.467 302.43 113.009 303 112.692C303.578 112.365 304.241 112.202 304.988 112.202C305.716 112.202 306.36 112.361 306.92 112.678C307.48 112.995 307.909 113.434 308.208 113.994C308.516 114.545 308.67 115.17 308.67 115.87ZM307.354 115.604C307.354 115.119 307.246 114.703 307.032 114.358C306.817 114.003 306.523 113.737 306.15 113.56C305.786 113.373 305.38 113.28 304.932 113.28C304.288 113.28 303.737 113.485 303.28 113.896C302.832 114.307 302.575 114.876 302.51 115.604H307.354ZM311.905 113.378V117.9C311.905 118.273 311.985 118.539 312.143 118.698C312.302 118.847 312.577 118.922 312.969 118.922H313.907V120H312.759C312.05 120 311.518 119.837 311.163 119.51C310.809 119.183 310.631 118.647 310.631 117.9V113.378H309.637V112.328H310.631V110.396H311.905V112.328H313.907V113.378H311.905ZM314.975 116.15C314.975 115.357 315.134 114.666 315.451 114.078C315.768 113.481 316.207 113.019 316.767 112.692C317.336 112.365 317.985 112.202 318.713 112.202C319.656 112.202 320.43 112.431 321.037 112.888C321.653 113.345 322.059 113.98 322.255 114.792H320.883C320.752 114.325 320.496 113.957 320.113 113.686C319.74 113.415 319.273 113.28 318.713 113.28C317.985 113.28 317.397 113.532 316.949 114.036C316.501 114.531 316.277 115.235 316.277 116.15C316.277 117.074 316.501 117.788 316.949 118.292C317.397 118.796 317.985 119.048 318.713 119.048C319.273 119.048 319.74 118.917 320.113 118.656C320.486 118.395 320.743 118.021 320.883 117.536H322.255C322.05 118.32 321.639 118.95 321.023 119.426C320.407 119.893 319.637 120.126 318.713 120.126C317.985 120.126 317.336 119.963 316.767 119.636C316.207 119.309 315.768 118.847 315.451 118.25C315.134 117.653 314.975 116.953 314.975 116.15ZM324.361 120.084C324.118 120.084 323.913 120 323.745 119.832C323.577 119.664 323.493 119.459 323.493 119.216C323.493 118.973 323.577 118.768 323.745 118.6C323.913 118.432 324.118 118.348 324.361 118.348C324.594 118.348 324.79 118.432 324.949 118.6C325.117 118.768 325.201 118.973 325.201 119.216C325.201 119.459 325.117 119.664 324.949 119.832C324.79 120 324.594 120.084 324.361 120.084Z" fill="#707070"/>
<path d="M432.224 111V106.554H431.18V105.222H432.224V103.926H431.18V102.594H432.224V98.148H435.05L436.454 102.594H438.092V98.148H440.09V102.594H441.116V103.926H440.09V105.222H441.116V106.554H440.09V111H437.246L435.806 106.554H434.222V111H432.224ZM434.222 105.222H435.41L435.014 103.926H434.186L434.222 105.222ZM438.146 108.192H438.236L438.164 106.554H437.678L438.146 108.192ZM434.15 102.594H434.654L434.132 100.866H434.06L434.15 102.594ZM437.3 105.222H438.128L438.092 103.926H436.886L437.3 105.222ZM441.949 100.2V97.878H446.287V111H443.695V100.2H441.949ZM449.568 108.156C450.72 107.196 451.638 106.398 452.322 105.762C453.006 105.114 453.576 104.442 454.032 103.746C454.488 103.05 454.716 102.366 454.716 101.694C454.716 101.082 454.572 100.602 454.284 100.254C453.996 99.906 453.552 99.732 452.952 99.732C452.352 99.732 451.89 99.936 451.566 100.344C451.242 100.74 451.074 101.286 451.062 101.982H448.614C448.662 100.542 449.088 99.45 449.892 98.706C450.708 97.962 451.74 97.59 452.988 97.59C454.356 97.59 455.406 97.956 456.138 98.688C456.87 99.408 457.236 100.362 457.236 101.55C457.236 102.486 456.984 103.38 456.48 104.232C455.976 105.084 455.4 105.828 454.752 106.464C454.104 107.088 453.258 107.844 452.214 108.732H457.524V110.82H448.632V108.948L449.568 108.156ZM459.112 104.268C459.112 102.192 459.484 100.566 460.228 99.39C460.984 98.214 462.232 97.626 463.972 97.626C465.712 97.626 466.954 98.214 467.698 99.39C468.454 100.566 468.832 102.192 468.832 104.268C468.832 106.356 468.454 107.994 467.698 109.182C466.954 110.37 465.712 110.964 463.972 110.964C462.232 110.964 460.984 110.37 460.228 109.182C459.484 107.994 459.112 106.356 459.112 104.268ZM466.348 104.268C466.348 103.38 466.288 102.636 466.168 102.036C466.06 101.424 465.832 100.926 465.484 100.542C465.148 100.158 464.644 99.966 463.972 99.966C463.3 99.966 462.79 100.158 462.442 100.542C462.106 100.926 461.878 101.424 461.758 102.036C461.65 102.636 461.596 103.38 461.596 104.268C461.596 105.18 461.65 105.948 461.758 106.572C461.866 107.184 462.094 107.682 462.442 108.066C462.79 108.438 463.3 108.624 463.972 108.624C464.644 108.624 465.154 108.438 465.502 108.066C465.85 107.682 466.078 107.184 466.186 106.572C466.294 105.948 466.348 105.18 466.348 104.268ZM473.791 108.354L471.685 113.412H470.065L471.235 108.354H473.791ZM475.319 104.268C475.319 102.192 475.691 100.566 476.435 99.39C477.191 98.214 478.439 97.626 480.179 97.626C481.919 97.626 483.161 98.214 483.905 99.39C484.661 100.566 485.039 102.192 485.039 104.268C485.039 106.356 484.661 107.994 483.905 109.182C483.161 110.37 481.919 110.964 480.179 110.964C478.439 110.964 477.191 110.37 476.435 109.182C475.691 107.994 475.319 106.356 475.319 104.268ZM482.555 104.268C482.555 103.38 482.495 102.636 482.375 102.036C482.267 101.424 482.039 100.926 481.691 100.542C481.355 100.158 480.851 99.966 480.179 99.966C479.507 99.966 478.997 100.158 478.649 100.542C478.313 100.926 478.085 101.424 477.965 102.036C477.857 102.636 477.803 103.38 477.803 104.268C477.803 105.18 477.857 105.948 477.965 106.572C478.073 107.184 478.301 107.682 478.649 108.066C478.997 108.438 479.507 108.624 480.179 108.624C480.851 108.624 481.361 108.438 481.709 108.066C482.057 107.682 482.285 107.184 482.393 106.572C482.501 105.948 482.555 105.18 482.555 104.268ZM486.956 104.268C486.956 102.192 487.328 100.566 488.072 99.39C488.828 98.214 490.076 97.626 491.816 97.626C493.556 97.626 494.798 98.214 495.542 99.39C496.298 100.566 496.676 102.192 496.676 104.268C496.676 106.356 496.298 107.994 495.542 109.182C494.798 110.37 493.556 110.964 491.816 110.964C490.076 110.964 488.828 110.37 488.072 109.182C487.328 107.994 486.956 106.356 486.956 104.268ZM494.192 104.268C494.192 103.38 494.132 102.636 494.012 102.036C493.904 101.424 493.676 100.926 493.328 100.542C492.992 100.158 492.488 99.966 491.816 99.966C491.144 99.966 490.634 100.158 490.286 100.542C489.95 100.926 489.722 101.424 489.602 102.036C489.494 102.636 489.44 103.38 489.44 104.268C489.44 105.18 489.494 105.948 489.602 106.572C489.71 107.184 489.938 107.682 490.286 108.066C490.634 108.438 491.144 108.624 491.816 108.624C492.488 108.624 492.998 108.438 493.346 108.066C493.694 107.682 493.922 107.184 494.03 106.572C494.138 105.948 494.192 105.18 494.192 104.268ZM498.593 104.268C498.593 102.192 498.965 100.566 499.709 99.39C500.465 98.214 501.713 97.626 503.453 97.626C505.193 97.626 506.435 98.214 507.179 99.39C507.935 100.566 508.313 102.192 508.313 104.268C508.313 106.356 507.935 107.994 507.179 109.182C506.435 110.37 505.193 110.964 503.453 110.964C501.713 110.964 500.465 110.37 499.709 109.182C498.965 107.994 498.593 106.356 498.593 104.268ZM505.829 104.268C505.829 103.38 505.769 102.636 505.649 102.036C505.541 101.424 505.313 100.926 504.965 100.542C504.629 100.158 504.125 99.966 503.453 99.966C502.781 99.966 502.271 100.158 501.923 100.542C501.587 100.926 501.359 101.424 501.239 102.036C501.131 102.636 501.077 103.38 501.077 104.268C501.077 105.18 501.131 105.948 501.239 106.572C501.347 107.184 501.575 107.682 501.923 108.066C502.271 108.438 502.781 108.624 503.453 108.624C504.125 108.624 504.635 108.438 504.983 108.066C505.331 107.682 505.559 107.184 505.667 106.572C505.775 105.948 505.829 105.18 505.829 104.268Z" fill="#474747"/>
<rect x="40" y="141" width="470" height="8" rx="4" fill="#E3DEF7"/>
<rect x="40" y="141" width="276.646" height="8" rx="4" fill="#442BB6"/>
<rect x="24.5" y="185.5" width="501" height="95" rx="11.5" stroke="#E3DEF7"/>
<rect x="40" y="201" width="40" height="40" rx="20" fill="#EDFFEF"/>
<path d="M69.6004 222.586C69.5998 221.662 69.2325 220.775 68.5792 220.122C67.9258 219.468 67.0398 219.1 66.1156 219.099H65.2084C60.8884 215.888 56.9428 215.897 53.4724 219.125C52.626 219.227 51.8462 219.636 51.2802 220.273C50.7143 220.911 50.4013 221.733 50.4004 222.586V222.8C50.401 223.142 50.5373 223.469 50.7794 223.711C51.0215 223.953 51.3496 224.088 51.6916 224.088H51.8404C52.0294 224.454 52.3154 224.76 52.6669 224.974C53.0185 225.188 53.4221 225.302 53.8336 225.302C54.2451 225.302 54.6487 225.188 55.0003 224.974C55.3518 224.76 55.6377 224.454 55.8268 224.088H64.1764C64.3654 224.454 64.6514 224.76 65.0029 224.974C65.3545 225.188 65.7581 225.302 66.1696 225.302C66.5811 225.302 66.9847 225.188 67.3363 224.974C67.6878 224.76 67.9737 224.454 68.1628 224.088H68.3092C68.6512 224.088 68.9793 223.953 69.2214 223.711C69.4634 223.469 69.5998 223.142 69.6004 222.8V222.586ZM58.5052 217.64C60.1084 217.498 61.798 217.985 63.5932 219.104H58.5052V217.64ZM57.6004 217.786V219.099H54.9196C55.7134 218.481 56.626 218.034 57.6004 217.786ZM53.8324 224.388C53.5684 224.389 53.3101 224.311 53.0904 224.165C52.8706 224.018 52.6992 223.81 52.5979 223.566C52.4965 223.323 52.4697 223.054 52.5209 222.795C52.5722 222.536 52.6991 222.298 52.8856 222.111C53.0721 221.924 53.3099 221.797 53.5688 221.745C53.8277 221.694 54.0961 221.72 54.3401 221.821C54.5841 221.922 54.7926 222.093 54.9393 222.312C55.0861 222.532 55.1644 222.79 55.1644 223.054C55.1638 223.407 55.0233 223.746 54.7737 223.996C54.5241 224.246 54.1857 224.387 53.8324 224.388ZM66.1684 224.388C65.9045 224.388 65.6465 224.31 65.427 224.163C65.2076 224.017 65.0366 223.808 64.9356 223.565C64.8346 223.321 64.8081 223.053 64.8596 222.794C64.9111 222.535 65.0382 222.297 65.2248 222.11C65.4114 221.924 65.6492 221.797 65.9081 221.745C66.1669 221.694 66.4352 221.72 66.679 221.821C66.9229 221.922 67.1313 222.093 67.2779 222.313C67.4245 222.532 67.5028 222.79 67.5028 223.054C67.5022 223.408 67.3614 223.747 67.1113 223.997C66.8611 224.247 66.5221 224.388 66.1684 224.388ZM68.686 222.8C68.6851 222.881 68.658 222.96 68.6087 223.025C68.5594 223.09 68.4906 223.137 68.4124 223.16C68.4124 223.124 68.4124 223.09 68.4124 223.054C68.4222 222.753 68.3714 222.452 68.2629 222.171C68.1544 221.89 67.9904 221.633 67.7807 221.417C67.571 221.2 67.3199 221.028 67.0423 220.91C66.7647 220.792 66.4663 220.732 66.1648 220.732C65.8633 220.732 65.5649 220.792 65.2873 220.91C65.0097 221.028 64.7586 221.2 64.5489 221.417C64.3392 221.633 64.1752 221.89 64.0667 222.171C63.9582 222.452 63.9073 222.753 63.9172 223.054C63.9172 223.095 63.9172 223.136 63.9172 223.174H56.074C56.074 223.136 56.074 223.095 56.074 223.054C56.0838 222.753 56.033 222.452 55.9245 222.171C55.816 221.89 55.652 221.633 55.4423 221.417C55.2326 221.2 54.9815 221.028 54.7039 220.91C54.4263 220.792 54.1279 220.732 53.8264 220.732C53.5249 220.732 53.2265 220.792 52.9489 220.91C52.6713 221.028 52.4202 221.2 52.2105 221.417C52.0008 221.633 51.8368 221.89 51.7283 222.171C51.6198 222.452 51.5689 222.753 51.5788 223.054C51.5788 223.09 51.5788 223.124 51.5788 223.16C51.5006 223.137 51.4317 223.09 51.3825 223.025C51.3332 222.96 51.3061 222.881 51.3052 222.8V222.586C51.3055 222.248 51.3725 221.913 51.5024 221.6C51.6322 221.288 51.8224 221.004 52.062 220.765C52.3016 220.526 52.5859 220.337 52.8988 220.208C53.2116 220.079 53.5468 220.013 53.8852 220.013H66.1252C66.8053 220.017 67.4562 220.29 67.936 220.772C68.4157 221.254 68.6854 221.906 68.686 222.586V222.8Z" fill="#1C9928"/>
<path d="M100.704 206.832V208.64H97.728V218H95.488V208.64H92.512V206.832H100.704ZM104.578 210.512C104.866 210.043 105.24 209.675 105.698 209.408C106.168 209.141 106.701 209.008 107.298 209.008V211.36H106.706C106.002 211.36 105.469 211.525 105.106 211.856C104.754 212.187 104.578 212.763 104.578 213.584V218H102.338V209.136H104.578V210.512ZM108.231 213.536C108.231 212.64 108.407 211.845 108.759 211.152C109.122 210.459 109.607 209.925 110.215 209.552C110.834 209.179 111.522 208.992 112.279 208.992C112.94 208.992 113.516 209.125 114.007 209.392C114.508 209.659 114.908 209.995 115.207 210.4V209.136H117.463V218H115.207V216.704C114.919 217.12 114.519 217.467 114.007 217.744C113.506 218.011 112.924 218.144 112.263 218.144C111.516 218.144 110.834 217.952 110.215 217.568C109.607 217.184 109.122 216.645 108.759 215.952C108.407 215.248 108.231 214.443 108.231 213.536ZM115.207 213.568C115.207 213.024 115.1 212.56 114.887 212.176C114.674 211.781 114.386 211.483 114.023 211.28C113.66 211.067 113.271 210.96 112.855 210.96C112.439 210.96 112.055 211.061 111.703 211.264C111.351 211.467 111.063 211.765 110.839 212.16C110.626 212.544 110.519 213.003 110.519 213.536C110.519 214.069 110.626 214.539 110.839 214.944C111.063 215.339 111.351 215.643 111.703 215.856C112.066 216.069 112.45 216.176 112.855 216.176C113.271 216.176 113.66 216.075 114.023 215.872C114.386 215.659 114.674 215.36 114.887 214.976C115.1 214.581 115.207 214.112 115.207 213.568ZM124.563 209.008C125.619 209.008 126.472 209.344 127.123 210.016C127.774 210.677 128.099 211.605 128.099 212.8V218H125.859V213.104C125.859 212.4 125.683 211.861 125.331 211.488C124.979 211.104 124.499 210.912 123.891 210.912C123.272 210.912 122.782 211.104 122.419 211.488C122.067 211.861 121.891 212.4 121.891 213.104V218H119.651V209.136H121.891V210.24C122.19 209.856 122.568 209.557 123.027 209.344C123.496 209.12 124.008 209.008 124.563 209.008ZM133.621 218.144C132.896 218.144 132.245 218.016 131.669 217.76C131.093 217.493 130.634 217.136 130.293 216.688C129.962 216.24 129.781 215.744 129.749 215.2H132.005C132.048 215.541 132.213 215.824 132.501 216.048C132.8 216.272 133.168 216.384 133.605 216.384C134.032 216.384 134.362 216.299 134.597 216.128C134.842 215.957 134.965 215.739 134.965 215.472C134.965 215.184 134.816 214.971 134.517 214.832C134.229 214.683 133.765 214.523 133.125 214.352C132.464 214.192 131.92 214.027 131.493 213.856C131.077 213.685 130.714 213.424 130.405 213.072C130.106 212.72 129.957 212.245 129.957 211.648C129.957 211.157 130.096 210.709 130.373 210.304C130.661 209.899 131.066 209.579 131.589 209.344C132.122 209.109 132.746 208.992 133.461 208.992C134.517 208.992 135.36 209.259 135.989 209.792C136.618 210.315 136.965 211.024 137.029 211.92H134.885C134.853 211.568 134.704 211.291 134.437 211.088C134.181 210.875 133.834 210.768 133.397 210.768C132.992 210.768 132.677 210.843 132.453 210.992C132.24 211.141 132.133 211.349 132.133 211.616C132.133 211.915 132.282 212.144 132.581 212.304C132.88 212.453 133.344 212.608 133.973 212.768C134.613 212.928 135.141 213.093 135.557 213.264C135.973 213.435 136.33 213.701 136.629 214.064C136.938 214.416 137.098 214.885 137.109 215.472C137.109 215.984 136.965 216.443 136.677 216.848C136.4 217.253 135.994 217.573 135.461 217.808C134.938 218.032 134.325 218.144 133.621 218.144ZM141.188 210.416C141.476 210.011 141.87 209.675 142.372 209.408C142.884 209.131 143.465 208.992 144.116 208.992C144.873 208.992 145.556 209.179 146.164 209.552C146.782 209.925 147.268 210.459 147.62 211.152C147.982 211.835 148.164 212.629 148.164 213.536C148.164 214.443 147.982 215.248 147.62 215.952C147.268 216.645 146.782 217.184 146.164 217.568C145.556 217.952 144.873 218.144 144.116 218.144C143.465 218.144 142.889 218.011 142.388 217.744C141.897 217.477 141.497 217.141 141.188 216.736V222.224H138.948V209.136H141.188V210.416ZM145.876 213.536C145.876 213.003 145.764 212.544 145.54 212.16C145.326 211.765 145.038 211.467 144.676 211.264C144.324 211.061 143.94 210.96 143.524 210.96C143.118 210.96 142.734 211.067 142.372 211.28C142.02 211.483 141.732 211.781 141.508 212.176C141.294 212.571 141.188 213.035 141.188 213.568C141.188 214.101 141.294 214.565 141.508 214.96C141.732 215.355 142.02 215.659 142.372 215.872C142.734 216.075 143.118 216.176 143.524 216.176C143.94 216.176 144.324 216.069 144.676 215.856C145.038 215.643 145.326 215.339 145.54 214.944C145.764 214.549 145.876 214.08 145.876 213.536ZM153.728 218.144C152.874 218.144 152.106 217.957 151.424 217.584C150.741 217.2 150.202 216.661 149.808 215.968C149.424 215.275 149.232 214.475 149.232 213.568C149.232 212.661 149.429 211.861 149.824 211.168C150.229 210.475 150.778 209.941 151.472 209.568C152.165 209.184 152.938 208.992 153.792 208.992C154.645 208.992 155.418 209.184 156.112 209.568C156.805 209.941 157.349 210.475 157.744 211.168C158.149 211.861 158.352 212.661 158.352 213.568C158.352 214.475 158.144 215.275 157.727 215.968C157.322 216.661 156.768 217.2 156.064 217.584C155.37 217.957 154.592 218.144 153.728 218.144ZM153.728 216.192C154.133 216.192 154.512 216.096 154.864 215.904C155.226 215.701 155.514 215.403 155.728 215.008C155.941 214.613 156.048 214.133 156.048 213.568C156.048 212.725 155.824 212.08 155.376 211.632C154.938 211.173 154.4 210.944 153.76 210.944C153.12 210.944 152.581 211.173 152.144 211.632C151.717 212.08 151.504 212.725 151.504 213.568C151.504 214.411 151.712 215.061 152.128 215.52C152.554 215.968 153.088 216.192 153.728 216.192ZM162.235 210.512C162.523 210.043 162.896 209.675 163.355 209.408C163.824 209.141 164.357 209.008 164.955 209.008V211.36H164.363C163.659 211.36 163.125 211.525 162.763 211.856C162.411 212.187 162.235 212.763 162.235 213.584V218H159.995V209.136H162.235V210.512ZM169.071 210.976V215.264C169.071 215.563 169.141 215.781 169.279 215.92C169.429 216.048 169.674 216.112 170.015 216.112H171.055V218H169.647C167.759 218 166.815 217.083 166.815 215.248V210.976H165.759V209.136H166.815V206.944H169.071V209.136H171.055V210.976H169.071ZM172.09 213.536C172.09 212.64 172.266 211.845 172.618 211.152C172.981 210.459 173.467 209.925 174.075 209.552C174.693 209.179 175.381 208.992 176.139 208.992C176.8 208.992 177.376 209.125 177.867 209.392C178.368 209.659 178.768 209.995 179.067 210.4V209.136H181.323V218H179.067V216.704C178.779 217.12 178.379 217.467 177.867 217.744C177.365 218.011 176.784 218.144 176.123 218.144C175.376 218.144 174.693 217.952 174.075 217.568C173.467 217.184 172.981 216.645 172.618 215.952C172.266 215.248 172.09 214.443 172.09 213.536ZM179.067 213.568C179.067 213.024 178.96 212.56 178.747 212.176C178.533 211.781 178.245 211.483 177.883 211.28C177.52 211.067 177.131 210.96 176.715 210.96C176.299 210.96 175.915 211.061 175.562 211.264C175.211 211.467 174.923 211.765 174.699 212.16C174.485 212.544 174.379 213.003 174.379 213.536C174.379 214.069 174.485 214.539 174.699 214.944C174.923 215.339 175.211 215.643 175.562 215.856C175.925 216.069 176.309 216.176 176.715 216.176C177.131 216.176 177.52 216.075 177.883 215.872C178.245 215.659 178.533 215.36 178.747 214.976C178.96 214.581 179.067 214.112 179.067 213.568ZM186.118 210.976V215.264C186.118 215.563 186.188 215.781 186.326 215.92C186.476 216.048 186.721 216.112 187.062 216.112H188.102V218H186.694C184.806 218 183.862 217.083 183.862 215.248V210.976H182.806V209.136H183.862V206.944H186.118V209.136H188.102V210.976H186.118ZM190.849 208.08C190.455 208.08 190.124 207.957 189.857 207.712C189.601 207.456 189.473 207.141 189.473 206.768C189.473 206.395 189.601 206.085 189.857 205.84C190.124 205.584 190.455 205.456 190.849 205.456C191.244 205.456 191.569 205.584 191.825 205.84C192.092 206.085 192.225 206.395 192.225 206.768C192.225 207.141 192.092 207.456 191.825 207.712C191.569 207.957 191.244 208.08 190.849 208.08ZM191.953 209.136V218H189.713V209.136H191.953ZM198.103 218.144C197.249 218.144 196.481 217.957 195.799 217.584C195.116 217.2 194.577 216.661 194.183 215.968C193.799 215.275 193.607 214.475 193.607 213.568C193.607 212.661 193.804 211.861 194.199 211.168C194.604 210.475 195.153 209.941 195.847 209.568C196.54 209.184 197.313 208.992 198.167 208.992C199.02 208.992 199.793 209.184 200.487 209.568C201.18 209.941 201.724 210.475 202.119 211.168C202.524 211.861 202.727 212.661 202.727 213.568C202.727 214.475 202.519 215.275 202.102 215.968C201.697 216.661 201.143 217.2 200.439 217.584C199.745 217.957 198.967 218.144 198.103 218.144ZM198.103 216.192C198.508 216.192 198.887 216.096 199.239 215.904C199.601 215.701 199.889 215.403 200.103 215.008C200.316 214.613 200.423 214.133 200.423 213.568C200.423 212.725 200.199 212.08 199.751 211.632C199.313 211.173 198.775 210.944 198.135 210.944C197.495 210.944 196.956 211.173 196.519 211.632C196.092 212.08 195.879 212.725 195.879 213.568C195.879 214.411 196.087 215.061 196.503 215.52C196.929 215.968 197.463 216.192 198.103 216.192ZM209.282 209.008C210.338 209.008 211.191 209.344 211.842 210.016C212.492 210.677 212.818 211.605 212.818 212.8V218H210.578V213.104C210.578 212.4 210.402 211.861 210.05 211.488C209.698 211.104 209.218 210.912 208.61 210.912C207.991 210.912 207.5 211.104 207.138 211.488C206.786 211.861 206.61 212.4 206.61 213.104V218H204.37V209.136H206.61V210.24C206.908 209.856 207.287 209.557 207.746 209.344C208.215 209.12 208.727 209.008 209.282 209.008Z" fill="#292929"/>
<path d="M98.594 226.242V227.278H94.352V230.568H97.796V231.604H94.352V236H93.078V226.242H98.594ZM106.937 228.328V236H105.663V234.866C105.42 235.258 105.079 235.566 104.641 235.79C104.211 236.005 103.735 236.112 103.213 236.112C102.615 236.112 102.079 235.991 101.603 235.748C101.127 235.496 100.749 235.123 100.469 234.628C100.198 234.133 100.063 233.531 100.063 232.822V228.328H101.323V232.654C101.323 233.41 101.514 233.993 101.897 234.404C102.279 234.805 102.802 235.006 103.465 235.006C104.146 235.006 104.683 234.796 105.075 234.376C105.467 233.956 105.663 233.345 105.663 232.542V228.328H106.937ZM116.088 231.87C116.088 232.113 116.074 232.369 116.046 232.64H109.914C109.96 233.396 110.217 233.989 110.684 234.418C111.16 234.838 111.734 235.048 112.406 235.048C112.956 235.048 113.414 234.922 113.778 234.67C114.151 234.409 114.412 234.063 114.562 233.634H115.934C115.728 234.371 115.318 234.973 114.702 235.44C114.086 235.897 113.32 236.126 112.406 236.126C111.678 236.126 111.024 235.963 110.446 235.636C109.876 235.309 109.428 234.847 109.102 234.25C108.775 233.643 108.612 232.943 108.612 232.15C108.612 231.357 108.77 230.661 109.088 230.064C109.405 229.467 109.848 229.009 110.418 228.692C110.996 228.365 111.659 228.202 112.406 228.202C113.134 228.202 113.778 228.361 114.338 228.678C114.898 228.995 115.327 229.434 115.626 229.994C115.934 230.545 116.088 231.17 116.088 231.87ZM114.772 231.604C114.772 231.119 114.664 230.703 114.45 230.358C114.235 230.003 113.941 229.737 113.568 229.56C113.204 229.373 112.798 229.28 112.35 229.28C111.706 229.28 111.155 229.485 110.698 229.896C110.25 230.307 109.993 230.876 109.928 231.604H114.772ZM119.043 225.64V236H117.769V225.64H119.043ZM122.531 234.236L120.963 238.002H120.109L121.131 234.236H122.531ZM128.997 229.742C129.249 229.303 129.622 228.939 130.117 228.65C130.621 228.351 131.204 228.202 131.867 228.202C132.548 228.202 133.164 228.365 133.715 228.692C134.275 229.019 134.713 229.481 135.031 230.078C135.348 230.666 135.507 231.352 135.507 232.136C135.507 232.911 135.348 233.601 135.031 234.208C134.713 234.815 134.275 235.286 133.715 235.622C133.164 235.958 132.548 236.126 131.867 236.126C131.213 236.126 130.635 235.981 130.131 235.692C129.636 235.393 129.258 235.025 128.997 234.586V239.64H127.723V228.328H128.997V229.742ZM134.205 232.136C134.205 231.557 134.088 231.053 133.855 230.624C133.621 230.195 133.304 229.868 132.903 229.644C132.511 229.42 132.077 229.308 131.601 229.308C131.134 229.308 130.7 229.425 130.299 229.658C129.907 229.882 129.589 230.213 129.347 230.652C129.113 231.081 128.997 231.581 128.997 232.15C128.997 232.729 129.113 233.237 129.347 233.676C129.589 234.105 129.907 234.437 130.299 234.67C130.7 234.894 131.134 235.006 131.601 235.006C132.077 235.006 132.511 234.894 132.903 234.67C133.304 234.437 133.621 234.105 133.855 233.676C134.088 233.237 134.205 232.724 134.205 232.136ZM143.987 228.328V236H142.713V234.866C142.471 235.258 142.13 235.566 141.691 235.79C141.262 236.005 140.786 236.112 140.263 236.112C139.666 236.112 139.129 235.991 138.653 235.748C138.177 235.496 137.799 235.123 137.519 234.628C137.249 234.133 137.113 233.531 137.113 232.822V228.328H138.373V232.654C138.373 233.41 138.565 233.993 138.947 234.404C139.33 234.805 139.853 235.006 140.515 235.006C141.197 235.006 141.733 234.796 142.125 234.376C142.517 233.956 142.713 233.345 142.713 232.542V228.328H143.987ZM147.413 229.756C147.674 229.299 148.057 228.925 148.561 228.636C149.065 228.347 149.639 228.202 150.283 228.202C150.973 228.202 151.594 228.365 152.145 228.692C152.695 229.019 153.129 229.481 153.447 230.078C153.764 230.666 153.923 231.352 153.923 232.136C153.923 232.911 153.764 233.601 153.447 234.208C153.129 234.815 152.691 235.286 152.131 235.622C151.58 235.958 150.964 236.126 150.283 236.126C149.62 236.126 149.037 235.981 148.533 235.692C148.038 235.403 147.665 235.034 147.413 234.586V236H146.139V225.64H147.413V229.756ZM152.621 232.136C152.621 231.557 152.504 231.053 152.271 230.624C152.037 230.195 151.72 229.868 151.319 229.644C150.927 229.42 150.493 229.308 150.017 229.308C149.55 229.308 149.116 229.425 148.715 229.658C148.323 229.882 148.005 230.213 147.763 230.652C147.529 231.081 147.413 231.581 147.413 232.15C147.413 232.729 147.529 233.237 147.763 233.676C148.005 234.105 148.323 234.437 148.715 234.67C149.116 234.894 149.55 235.006 150.017 235.006C150.493 235.006 150.927 234.894 151.319 234.67C151.72 234.437 152.037 234.105 152.271 233.676C152.504 233.237 152.621 232.724 152.621 232.136ZM156.873 225.64V236H155.599V225.64H156.873ZM159.703 227.082C159.46 227.082 159.255 226.998 159.087 226.83C158.919 226.662 158.835 226.457 158.835 226.214C158.835 225.971 158.919 225.766 159.087 225.598C159.255 225.43 159.46 225.346 159.703 225.346C159.936 225.346 160.132 225.43 160.291 225.598C160.459 225.766 160.543 225.971 160.543 226.214C160.543 226.457 160.459 226.662 160.291 226.83C160.132 226.998 159.936 227.082 159.703 227.082ZM160.319 228.328V236H159.045V228.328H160.319ZM162.014 232.15C162.014 231.357 162.173 230.666 162.49 230.078C162.807 229.481 163.246 229.019 163.806 228.692C164.375 228.365 165.024 228.202 165.752 228.202C166.695 228.202 167.469 228.431 168.076 228.888C168.692 229.345 169.098 229.98 169.294 230.792H167.922C167.791 230.325 167.535 229.957 167.152 229.686C166.779 229.415 166.312 229.28 165.752 229.28C165.024 229.28 164.436 229.532 163.988 230.036C163.54 230.531 163.316 231.235 163.316 232.15C163.316 233.074 163.54 233.788 163.988 234.292C164.436 234.796 165.024 235.048 165.752 235.048C166.312 235.048 166.779 234.917 167.152 234.656C167.525 234.395 167.782 234.021 167.922 233.536H169.294C169.089 234.32 168.678 234.95 168.062 235.426C167.446 235.893 166.676 236.126 165.752 236.126C165.024 236.126 164.375 235.963 163.806 235.636C163.246 235.309 162.807 234.847 162.49 234.25C162.173 233.653 162.014 232.953 162.014 232.15ZM176.28 229.378V233.9C176.28 234.273 176.36 234.539 176.518 234.698C176.677 234.847 176.952 234.922 177.344 234.922H178.282V236H177.134C176.425 236 175.893 235.837 175.538 235.51C175.184 235.183 175.006 234.647 175.006 233.9V229.378H174.012V228.328H175.006V226.396H176.28V228.328H178.282V229.378H176.28ZM181.1 229.574C181.324 229.135 181.641 228.795 182.052 228.552C182.472 228.309 182.981 228.188 183.578 228.188V229.504H183.242C181.814 229.504 181.1 230.279 181.1 231.828V236H179.826V228.328H181.1V229.574ZM184.573 232.136C184.573 231.352 184.731 230.666 185.049 230.078C185.366 229.481 185.8 229.019 186.351 228.692C186.911 228.365 187.531 228.202 188.213 228.202C188.885 228.202 189.468 228.347 189.963 228.636C190.457 228.925 190.826 229.289 191.069 229.728V228.328H192.357V236H191.069V234.572C190.817 235.02 190.439 235.393 189.935 235.692C189.44 235.981 188.861 236.126 188.199 236.126C187.517 236.126 186.901 235.958 186.351 235.622C185.8 235.286 185.366 234.815 185.049 234.208C184.731 233.601 184.573 232.911 184.573 232.136ZM191.069 232.15C191.069 231.571 190.952 231.067 190.719 230.638C190.485 230.209 190.168 229.882 189.767 229.658C189.375 229.425 188.941 229.308 188.465 229.308C187.989 229.308 187.555 229.42 187.163 229.644C186.771 229.868 186.458 230.195 186.225 230.624C185.991 231.053 185.875 231.557 185.875 232.136C185.875 232.724 185.991 233.237 186.225 233.676C186.458 234.105 186.771 234.437 187.163 234.67C187.555 234.894 187.989 235.006 188.465 235.006C188.941 235.006 189.375 234.894 189.767 234.67C190.168 234.437 190.485 234.105 190.719 233.676C190.952 233.237 191.069 232.729 191.069 232.15ZM198.248 228.188C199.181 228.188 199.937 228.473 200.516 229.042C201.094 229.602 201.384 230.414 201.384 231.478V236H200.124V231.66C200.124 230.895 199.932 230.311 199.55 229.91C199.167 229.499 198.644 229.294 197.982 229.294C197.31 229.294 196.773 229.504 196.372 229.924C195.98 230.344 195.784 230.955 195.784 231.758V236H194.51V228.328H195.784V229.42C196.036 229.028 196.376 228.725 196.806 228.51C197.244 228.295 197.725 228.188 198.248 228.188ZM206.181 236.126C205.593 236.126 205.065 236.028 204.599 235.832C204.132 235.627 203.763 235.347 203.493 234.992C203.222 234.628 203.073 234.213 203.045 233.746H204.361C204.398 234.129 204.575 234.441 204.893 234.684C205.219 234.927 205.644 235.048 206.167 235.048C206.652 235.048 207.035 234.941 207.315 234.726C207.595 234.511 207.735 234.241 207.735 233.914C207.735 233.578 207.585 233.331 207.287 233.172C206.988 233.004 206.526 232.841 205.901 232.682C205.331 232.533 204.865 232.383 204.501 232.234C204.146 232.075 203.838 231.847 203.577 231.548C203.325 231.24 203.199 230.839 203.199 230.344C203.199 229.952 203.315 229.593 203.549 229.266C203.782 228.939 204.113 228.683 204.543 228.496C204.972 228.3 205.462 228.202 206.013 228.202C206.862 228.202 207.548 228.417 208.071 228.846C208.593 229.275 208.873 229.863 208.911 230.61H207.637C207.609 230.209 207.445 229.887 207.147 229.644C206.857 229.401 206.465 229.28 205.971 229.28C205.513 229.28 205.149 229.378 204.879 229.574C204.608 229.77 204.473 230.027 204.473 230.344C204.473 230.596 204.552 230.806 204.711 230.974C204.879 231.133 205.084 231.263 205.327 231.366C205.579 231.459 205.924 231.567 206.363 231.688C206.913 231.837 207.361 231.987 207.707 232.136C208.052 232.276 208.346 232.491 208.589 232.78C208.841 233.069 208.971 233.447 208.981 233.914C208.981 234.334 208.864 234.712 208.631 235.048C208.397 235.384 208.066 235.65 207.637 235.846C207.217 236.033 206.731 236.126 206.181 236.126ZM212.053 229.742C212.305 229.303 212.679 228.939 213.173 228.65C213.677 228.351 214.261 228.202 214.923 228.202C215.605 228.202 216.221 228.365 216.771 228.692C217.331 229.019 217.77 229.481 218.087 230.078C218.405 230.666 218.563 231.352 218.563 232.136C218.563 232.911 218.405 233.601 218.087 234.208C217.77 234.815 217.331 235.286 216.771 235.622C216.221 235.958 215.605 236.126 214.923 236.126C214.27 236.126 213.691 235.981 213.187 235.692C212.693 235.393 212.315 235.025 212.053 234.586V239.64H210.779V228.328H212.053V229.742ZM217.261 232.136C217.261 231.557 217.145 231.053 216.911 230.624C216.678 230.195 216.361 229.868 215.959 229.644C215.567 229.42 215.133 229.308 214.657 229.308C214.191 229.308 213.757 229.425 213.355 229.658C212.963 229.882 212.646 230.213 212.403 230.652C212.17 231.081 212.053 231.581 212.053 232.15C212.053 232.729 212.17 233.237 212.403 233.676C212.646 234.105 212.963 234.437 213.355 234.67C213.757 234.894 214.191 235.006 214.657 235.006C215.133 235.006 215.567 234.894 215.959 234.67C216.361 234.437 216.678 234.105 216.911 233.676C217.145 233.237 217.261 232.724 217.261 232.136ZM223.586 236.126C222.867 236.126 222.214 235.963 221.626 235.636C221.047 235.309 220.59 234.847 220.254 234.25C219.927 233.643 219.764 232.943 219.764 232.15C219.764 231.366 219.932 230.675 220.268 230.078C220.613 229.471 221.08 229.009 221.668 228.692C222.256 228.365 222.914 228.202 223.642 228.202C224.37 228.202 225.028 228.365 225.616 228.692C226.204 229.009 226.666 229.467 227.002 230.064C227.347 230.661 227.52 231.357 227.52 232.15C227.52 232.943 227.343 233.643 226.988 234.25C226.643 234.847 226.171 235.309 225.574 235.636C224.977 235.963 224.314 236.126 223.586 236.126ZM223.586 235.006C224.043 235.006 224.473 234.899 224.874 234.684C225.275 234.469 225.597 234.147 225.84 233.718C226.092 233.289 226.218 232.766 226.218 232.15C226.218 231.534 226.097 231.011 225.854 230.582C225.611 230.153 225.294 229.835 224.902 229.63C224.51 229.415 224.085 229.308 223.628 229.308C223.161 229.308 222.732 229.415 222.34 229.63C221.957 229.835 221.649 230.153 221.416 230.582C221.183 231.011 221.066 231.534 221.066 232.15C221.066 232.775 221.178 233.303 221.402 233.732C221.635 234.161 221.943 234.483 222.326 234.698C222.709 234.903 223.129 235.006 223.586 235.006ZM230.469 229.574C230.693 229.135 231.011 228.795 231.421 228.552C231.841 228.309 232.35 228.188 232.947 228.188V229.504H232.611C231.183 229.504 230.469 230.279 230.469 231.828V236H229.195V228.328H230.469V229.574ZM235.972 229.378V233.9C235.972 234.273 236.051 234.539 236.21 234.698C236.369 234.847 236.644 234.922 237.036 234.922H237.974V236H236.826C236.117 236 235.585 235.837 235.23 235.51C234.875 235.183 234.698 234.647 234.698 233.9V229.378H233.704V228.328H234.698V226.396H235.972V228.328H237.974V229.378H235.972ZM240.833 234.236L239.265 238.002H238.411L239.433 234.236H240.833ZM245.549 232.136C245.549 231.352 245.708 230.666 246.025 230.078C246.343 229.481 246.777 229.019 247.327 228.692C247.887 228.365 248.508 228.202 249.189 228.202C249.861 228.202 250.445 228.347 250.939 228.636C251.434 228.925 251.803 229.289 252.045 229.728V228.328H253.333V236H252.045V234.572C251.793 235.02 251.415 235.393 250.911 235.692C250.417 235.981 249.838 236.126 249.175 236.126C248.494 236.126 247.878 235.958 247.327 235.622C246.777 235.286 246.343 234.815 246.025 234.208C245.708 233.601 245.549 232.911 245.549 232.136ZM252.045 232.15C252.045 231.571 251.929 231.067 251.695 230.638C251.462 230.209 251.145 229.882 250.743 229.658C250.351 229.425 249.917 229.308 249.441 229.308C248.965 229.308 248.531 229.42 248.139 229.644C247.747 229.868 247.435 230.195 247.201 230.624C246.968 231.053 246.851 231.557 246.851 232.136C246.851 232.724 246.968 233.237 247.201 233.676C247.435 234.105 247.747 234.437 248.139 234.67C248.531 234.894 248.965 235.006 249.441 235.006C249.917 235.006 250.351 234.894 250.743 234.67C251.145 234.437 251.462 234.105 251.695 233.676C251.929 233.237 252.045 232.729 252.045 232.15ZM259.224 228.188C260.158 228.188 260.914 228.473 261.492 229.042C262.071 229.602 262.36 230.414 262.36 231.478V236H261.1V231.66C261.1 230.895 260.909 230.311 260.526 229.91C260.144 229.499 259.621 229.294 258.958 229.294C258.286 229.294 257.75 229.504 257.348 229.924C256.956 230.344 256.76 230.955 256.76 231.758V236H255.486V228.328H256.76V229.42C257.012 229.028 257.353 228.725 257.782 228.51C258.221 228.295 258.702 228.188 259.224 228.188ZM263.965 232.136C263.965 231.352 264.124 230.666 264.441 230.078C264.759 229.481 265.193 229.019 265.743 228.692C266.303 228.365 266.929 228.202 267.619 228.202C268.217 228.202 268.772 228.342 269.285 228.622C269.799 228.893 270.191 229.252 270.461 229.7V225.64H271.749V236H270.461V234.558C270.209 235.015 269.836 235.393 269.341 235.692C268.847 235.981 268.268 236.126 267.605 236.126C266.924 236.126 266.303 235.958 265.743 235.622C265.193 235.286 264.759 234.815 264.441 234.208C264.124 233.601 263.965 232.911 263.965 232.136ZM270.461 232.15C270.461 231.571 270.345 231.067 270.111 230.638C269.878 230.209 269.561 229.882 269.159 229.658C268.767 229.425 268.333 229.308 267.857 229.308C267.381 229.308 266.947 229.42 266.555 229.644C266.163 229.868 265.851 230.195 265.617 230.624C265.384 231.053 265.267 231.557 265.267 232.136C265.267 232.724 265.384 233.237 265.617 233.676C265.851 234.105 266.163 234.437 266.555 234.67C266.947 234.894 267.381 235.006 267.857 235.006C268.333 235.006 268.767 234.894 269.159 234.67C269.561 234.437 269.878 234.105 270.111 233.676C270.345 233.237 270.461 232.729 270.461 232.15ZM279.189 229.378V233.9C279.189 234.273 279.268 234.539 279.427 234.698C279.585 234.847 279.861 234.922 280.253 234.922H281.191V236H280.043C279.333 236 278.801 235.837 278.447 235.51C278.092 235.183 277.915 234.647 277.915 233.9V229.378H276.921V228.328H277.915V226.396H279.189V228.328H281.191V229.378H279.189ZM284.008 229.574C284.232 229.135 284.55 228.795 284.96 228.552C285.38 228.309 285.889 228.188 286.486 228.188V229.504H286.15C284.722 229.504 284.008 230.279 284.008 231.828V236H282.734V228.328H284.008V229.574ZM287.481 232.136C287.481 231.352 287.64 230.666 287.957 230.078C288.274 229.481 288.708 229.019 289.259 228.692C289.819 228.365 290.44 228.202 291.121 228.202C291.793 228.202 292.376 228.347 292.871 228.636C293.366 228.925 293.734 229.289 293.977 229.728V228.328H295.265V236H293.977V234.572C293.725 235.02 293.347 235.393 292.843 235.692C292.348 235.981 291.77 236.126 291.107 236.126C290.426 236.126 289.81 235.958 289.259 235.622C288.708 235.286 288.274 234.815 287.957 234.208C287.64 233.601 287.481 232.911 287.481 232.136ZM293.977 232.15C293.977 231.571 293.86 231.067 293.627 230.638C293.394 230.209 293.076 229.882 292.675 229.658C292.283 229.425 291.849 229.308 291.373 229.308C290.897 229.308 290.463 229.42 290.071 229.644C289.679 229.868 289.366 230.195 289.133 230.624C288.9 231.053 288.783 231.557 288.783 232.136C288.783 232.724 288.9 233.237 289.133 233.676C289.366 234.105 289.679 234.437 290.071 234.67C290.463 234.894 290.897 235.006 291.373 235.006C291.849 235.006 292.283 234.894 292.675 234.67C293.076 234.437 293.394 234.105 293.627 233.676C293.86 233.237 293.977 232.729 293.977 232.15ZM300.274 234.824L302.654 228.328H304.012L301.002 236H299.518L296.508 228.328H297.88L300.274 234.824ZM312.266 231.87C312.266 232.113 312.252 232.369 312.224 232.64H306.092C306.138 233.396 306.395 233.989 306.862 234.418C307.338 234.838 307.912 235.048 308.584 235.048C309.134 235.048 309.592 234.922 309.956 234.67C310.329 234.409 310.59 234.063 310.74 233.634H312.112C311.906 234.371 311.496 234.973 310.88 235.44C310.264 235.897 309.498 236.126 308.584 236.126C307.856 236.126 307.202 235.963 306.624 235.636C306.054 235.309 305.606 234.847 305.28 234.25C304.953 233.643 304.79 232.943 304.79 232.15C304.79 231.357 304.948 230.661 305.266 230.064C305.583 229.467 306.026 229.009 306.596 228.692C307.174 228.365 307.837 228.202 308.584 228.202C309.312 228.202 309.956 228.361 310.516 228.678C311.076 228.995 311.505 229.434 311.804 229.994C312.112 230.545 312.266 231.17 312.266 231.87ZM310.95 231.604C310.95 231.119 310.842 230.703 310.628 230.358C310.413 230.003 310.119 229.737 309.746 229.56C309.382 229.373 308.976 229.28 308.528 229.28C307.884 229.28 307.333 229.485 306.876 229.896C306.428 230.307 306.171 230.876 306.106 231.604H310.95ZM315.221 225.64V236H313.947V225.64H315.221Z" fill="#707070"/>
<path d="M432.224 227V222.554H431.18V221.222H432.224V219.926H431.18V218.594H432.224V214.148H435.05L436.454 218.594H438.092V214.148H440.09V218.594H441.116V219.926H440.09V221.222H441.116V222.554H440.09V227H437.246L435.806 222.554H434.222V227H432.224ZM434.222 221.222H435.41L435.014 219.926H434.186L434.222 221.222ZM438.146 224.192H438.236L438.164 222.554H437.678L438.146 224.192ZM434.15 218.594H434.654L434.132 216.866H434.06L434.15 218.594ZM437.3 221.222H438.128L438.092 219.926H436.886L437.3 221.222ZM441.949 216.2V213.878H446.287V227H443.695V216.2H441.949ZM449.568 224.156C450.72 223.196 451.638 222.398 452.322 221.762C453.006 221.114 453.576 220.442 454.032 219.746C454.488 219.05 454.716 218.366 454.716 217.694C454.716 217.082 454.572 216.602 454.284 216.254C453.996 215.906 453.552 215.732 452.952 215.732C452.352 215.732 451.89 215.936 451.566 216.344C451.242 216.74 451.074 217.286 451.062 217.982H448.614C448.662 216.542 449.088 215.45 449.892 214.706C450.708 213.962 451.74 213.59 452.988 213.59C454.356 213.59 455.406 213.956 456.138 214.688C456.87 215.408 457.236 216.362 457.236 217.55C457.236 218.486 456.984 219.38 456.48 220.232C455.976 221.084 455.4 221.828 454.752 222.464C454.104 223.088 453.258 223.844 452.214 224.732H457.524V226.82H448.632V224.948L449.568 224.156ZM459.112 220.268C459.112 218.192 459.484 216.566 460.228 215.39C460.984 214.214 462.232 213.626 463.972 213.626C465.712 213.626 466.954 214.214 467.698 215.39C468.454 216.566 468.832 218.192 468.832 220.268C468.832 222.356 468.454 223.994 467.698 225.182C466.954 226.37 465.712 226.964 463.972 226.964C462.232 226.964 460.984 226.37 460.228 225.182C459.484 223.994 459.112 222.356 459.112 220.268ZM466.348 220.268C466.348 219.38 466.288 218.636 466.168 218.036C466.06 217.424 465.832 216.926 465.484 216.542C465.148 216.158 464.644 215.966 463.972 215.966C463.3 215.966 462.79 216.158 462.442 216.542C462.106 216.926 461.878 217.424 461.758 218.036C461.65 218.636 461.596 219.38 461.596 220.268C461.596 221.18 461.65 221.948 461.758 222.572C461.866 223.184 462.094 223.682 462.442 224.066C462.79 224.438 463.3 224.624 463.972 224.624C464.644 224.624 465.154 224.438 465.502 224.066C465.85 223.682 466.078 223.184 466.186 222.572C466.294 221.948 466.348 221.18 466.348 220.268ZM473.791 224.354L471.685 229.412H470.065L471.235 224.354H473.791ZM475.319 220.268C475.319 218.192 475.691 216.566 476.435 215.39C477.191 214.214 478.439 213.626 480.179 213.626C481.919 213.626 483.161 214.214 483.905 215.39C484.661 216.566 485.039 218.192 485.039 220.268C485.039 222.356 484.661 223.994 483.905 225.182C483.161 226.37 481.919 226.964 480.179 226.964C478.439 226.964 477.191 226.37 476.435 225.182C475.691 223.994 475.319 222.356 475.319 220.268ZM482.555 220.268C482.555 219.38 482.495 218.636 482.375 218.036C482.267 217.424 482.039 216.926 481.691 216.542C481.355 216.158 480.851 215.966 480.179 215.966C479.507 215.966 478.997 216.158 478.649 216.542C478.313 216.926 478.085 217.424 477.965 218.036C477.857 218.636 477.803 219.38 477.803 220.268C477.803 221.18 477.857 221.948 477.965 222.572C478.073 223.184 478.301 223.682 478.649 224.066C478.997 224.438 479.507 224.624 480.179 224.624C480.851 224.624 481.361 224.438 481.709 224.066C482.057 223.682 482.285 223.184 482.393 222.572C482.501 221.948 482.555 221.18 482.555 220.268ZM486.956 220.268C486.956 218.192 487.328 216.566 488.072 215.39C488.828 214.214 490.076 213.626 491.816 213.626C493.556 213.626 494.798 214.214 495.542 215.39C496.298 216.566 496.676 218.192 496.676 220.268C496.676 222.356 496.298 223.994 495.542 225.182C494.798 226.37 493.556 226.964 491.816 226.964C490.076 226.964 488.828 226.37 488.072 225.182C487.328 223.994 486.956 222.356 486.956 220.268ZM494.192 220.268C494.192 219.38 494.132 218.636 494.012 218.036C493.904 217.424 493.676 216.926 493.328 216.542C492.992 216.158 492.488 215.966 491.816 215.966C491.144 215.966 490.634 216.158 490.286 216.542C489.95 216.926 489.722 217.424 489.602 218.036C489.494 218.636 489.44 219.38 489.44 220.268C489.44 221.18 489.494 221.948 489.602 222.572C489.71 223.184 489.938 223.682 490.286 224.066C490.634 224.438 491.144 224.624 491.816 224.624C492.488 224.624 492.998 224.438 493.346 224.066C493.694 223.682 493.922 223.184 494.03 222.572C494.138 221.948 494.192 221.18 494.192 220.268ZM498.593 220.268C498.593 218.192 498.965 216.566 499.709 215.39C500.465 214.214 501.713 213.626 503.453 213.626C505.193 213.626 506.435 214.214 507.179 215.39C507.935 216.566 508.313 218.192 508.313 220.268C508.313 222.356 507.935 223.994 507.179 225.182C506.435 226.37 505.193 226.964 503.453 226.964C501.713 226.964 500.465 226.37 499.709 225.182C498.965 223.994 498.593 222.356 498.593 220.268ZM505.829 220.268C505.829 219.38 505.769 218.636 505.649 218.036C505.541 217.424 505.313 216.926 504.965 216.542C504.629 216.158 504.125 215.966 503.453 215.966C502.781 215.966 502.271 216.158 501.923 216.542C501.587 216.926 501.359 217.424 501.239 218.036C501.131 218.636 501.077 219.38 501.077 220.268C501.077 221.18 501.131 221.948 501.239 222.572C501.347 223.184 501.575 223.682 501.923 224.066C502.271 224.438 502.781 224.624 503.453 224.624C504.125 224.624 504.635 224.438 504.983 224.066C505.331 223.682 505.559 223.184 505.667 222.572C505.775 221.948 505.829 221.18 505.829 220.268Z" fill="#474747"/>
<rect x="40" y="257" width="470" height="8" rx="4" fill="#DDF9DF"/>
<rect x="40" y="257" width="276.646" height="8" rx="4" fill="#1C9928"/>
</svg>
