<svg width="80" height="80" viewBox="0 0 80 80" fill="none" xmlns="http://www.w3.org/2000/svg">
<rect x="0.25" y="0.25" width="79.5" height="79.5" rx="11.75" fill="#F1FDFF" fill-opacity="0.5"/>
<rect x="0.25" y="0.25" width="79.5" height="79.5" rx="11.75" stroke="#01252B" stroke-width="0.5"/>
<path d="M38.9997 61.4996C38.8797 61.4996 38.7597 61.4796 38.6597 61.4596C38.5397 61.4396 38.4197 61.3796 38.2997 61.3196L33.8797 59.1196C33.1397 58.7396 32.8397 57.8396 33.1997 57.0996C33.5797 56.3596 34.4797 56.0596 35.2197 56.4196L37.4997 57.5596V54.4396C37.4997 53.6196 38.1797 52.9396 38.9997 52.9396C39.8197 52.9396 40.4997 53.6196 40.4997 54.4396V57.5596L42.7797 56.4196C43.5197 56.0596 44.4197 56.3596 44.7997 57.0996C45.1797 57.8396 44.8797 58.7396 44.1197 59.1196L39.6997 61.3196C39.5797 61.3796 39.4597 61.4196 39.3397 61.4596C39.2197 61.4796 39.1197 61.4996 38.9997 61.4996ZM52.3397 54.8396C51.7997 54.8396 51.2597 54.5396 50.9997 54.0196C50.6197 53.2796 50.9197 52.3796 51.6797 51.9996L55.2997 50.1996V45.5796C55.2997 44.7596 55.9797 44.0796 56.7997 44.0796C57.6197 44.0796 58.2997 44.7596 58.2997 45.5796V51.1396C58.2997 51.6996 57.9797 52.2196 57.4797 52.4796L53.0397 54.6996C52.7797 54.7796 52.5597 54.8396 52.3397 54.8396ZM25.6597 54.8396C25.4397 54.8396 25.1997 54.7796 24.9997 54.6796L20.5597 52.4596C20.0597 52.1996 19.7397 51.6796 19.7397 51.1196V45.5596C19.7397 44.7396 20.4197 44.0596 21.2397 44.0596C22.0597 44.0596 22.7397 44.7396 22.7397 45.5596V50.1796L26.3597 51.9796C27.0997 52.3596 27.3997 53.2596 27.0397 53.9996C26.7397 54.5196 26.2197 54.8396 25.6597 54.8396ZM38.9997 44.8396C38.1797 44.8396 37.4997 44.1596 37.4997 43.3396V38.7196L33.8797 36.9196C33.1397 36.5396 32.8397 35.6396 33.1997 34.8996C33.5797 34.1596 34.4797 33.8596 35.2197 34.2196L38.9997 36.0996L42.7797 34.2196C43.5197 33.8596 44.4197 34.1396 44.7997 34.8996C45.1797 35.6596 44.8797 36.5396 44.1197 36.9196L40.4997 38.7196V43.3396C40.4997 44.1596 39.8197 44.8396 38.9997 44.8396ZM56.7797 35.9396C55.9597 35.9396 55.2797 35.2596 55.2797 34.4396V31.3196L52.9997 32.4596C52.2597 32.8396 51.3597 32.5396 50.9797 31.7796C50.5997 31.0396 50.8997 30.1396 51.6597 29.7596L53.4197 28.8796L51.6597 27.9996C50.9197 27.6196 50.6197 26.7196 50.9797 25.9796C51.3597 25.2396 52.2597 24.9396 52.9997 25.2996L57.4197 27.4996C57.4597 27.5196 57.5197 27.5396 57.5597 27.5796C57.6797 27.6396 57.7797 27.7396 57.8797 27.8396C57.9397 27.9196 57.9997 27.9996 58.0597 28.0796C58.1397 28.2196 58.1997 28.3596 58.2397 28.5196C58.2597 28.6396 58.2797 28.7596 58.2797 28.8596V28.8796V34.3996C58.2797 35.2796 57.5997 35.9396 56.7797 35.9396ZM21.2197 35.9396C20.3997 35.9396 19.7197 35.2596 19.7197 34.4396V28.9196V28.8996C19.7197 28.7796 19.7397 28.6596 19.7597 28.5596C19.7997 28.3996 19.8597 28.2596 19.9397 28.1196C19.9997 28.0196 20.0597 27.9396 20.1397 27.8596C20.2197 27.7796 20.3197 27.6996 20.4197 27.6396C20.4597 27.6196 20.5197 27.5796 20.5597 27.5596L24.9797 25.3596C25.7197 24.9996 26.6197 25.2796 26.9997 26.0396C27.3797 26.7996 27.0797 27.6796 26.3197 28.0596L24.5597 28.9396L26.3197 29.8196C27.0597 30.1996 27.3597 31.0996 26.9997 31.8396C26.6197 32.5796 25.7397 32.8796 24.9797 32.5196L22.6997 31.3796V34.4996C22.7197 35.2796 22.0597 35.9396 21.2197 35.9396ZM43.4397 23.7196C43.2197 23.7196 42.9797 23.6596 42.7797 23.5596L38.9997 21.6796L35.2197 23.5596C34.4797 23.9396 33.5797 23.6396 33.1997 22.8796C32.8197 22.1396 33.1197 21.2396 33.8797 20.8596L38.3197 18.6396C38.7397 18.4196 39.2397 18.4196 39.6597 18.6396L44.0997 20.8596C44.8397 21.2396 45.1397 22.1396 44.7797 22.8796C44.5197 23.4196 43.9997 23.7196 43.4397 23.7196Z" fill="#01252B"/>
</svg>
