<svg width="80" height="80" viewBox="0 0 80 80" fill="none" xmlns="http://www.w3.org/2000/svg">
<rect x="0.25" y="0.25" width="79.5" height="79.5" rx="11.75" fill="#FDF2FF" fill-opacity="0.5"/>
<rect x="0.25" y="0.25" width="79.5" height="79.5" rx="11.75" stroke="#380242" stroke-width="0.5"/>
<path d="M32.9399 49.5C32.1599 49.5 31.4799 49.44 30.8399 49.34C23.2399 48.34 17.4399 41.74 17.4399 34C17.4399 25.46 24.3999 18.5 32.9399 18.5C40.6799 18.5 47.2799 24.28 48.2799 31.94C48.3799 32.54 48.4399 33.22 48.4399 34C48.4399 42.54 41.4999 49.5 32.9399 49.5ZM32.9399 21.5C26.0399 21.5 20.4399 27.1 20.4399 34C20.4399 40.24 25.0999 45.56 31.2799 46.38C31.7999 46.46 32.3399 46.5 32.9399 46.5C39.8399 46.5 45.4399 40.9 45.4399 34C45.4399 33.4 45.3999 32.86 45.3199 32.38C44.4999 26.16 39.1999 21.5 32.9399 21.5Z" fill="#380242"/>
<path d="M44.9398 61.5004C37.1998 61.5004 30.5998 55.7204 29.5998 48.0604C29.5398 47.5804 29.6998 47.1204 30.0398 46.7804C30.3798 46.4404 30.8798 46.3004 31.3398 46.3804C31.8198 46.4604 32.3398 46.5004 32.9398 46.5004C39.8398 46.5004 45.4398 40.9004 45.4398 34.0004C45.4398 33.4004 45.3998 32.8604 45.3198 32.3804C45.2398 31.9204 45.3998 31.4404 45.7198 31.1004C46.0398 30.7604 46.4998 30.5804 46.9998 30.6604C54.6598 31.6604 60.4398 38.2604 60.4398 46.0004C60.4398 54.5404 53.4998 61.5004 44.9398 61.5004ZM32.9598 49.5004C34.4798 54.7404 39.3398 58.5004 44.9398 58.5004C51.8398 58.5004 57.4398 52.9004 57.4398 46.0004C57.4398 40.4004 53.6798 35.5204 48.4398 34.0204C48.4398 42.5404 41.4998 49.5004 32.9598 49.5004Z" fill="#380242"/>
<path d="M45.86 48.3195C45.48 48.3195 45.1 48.1795 44.8 47.8995L42.2 45.3395C41.62 44.7595 41.6 43.7995 42.18 43.2195C42.76 42.6395 43.7 42.6195 44.3 43.1995L46.9 45.7595C47.48 46.3395 47.5 47.2995 46.92 47.8795C46.64 48.1595 46.24 48.3195 45.86 48.3195Z" fill="#380242"/>
<path d="M48.9398 41.4999C48.5598 41.4999 48.1798 41.3599 47.8798 41.0599L45.8798 39.0599C45.2998 38.4799 45.2998 37.5199 45.8798 36.9399C46.4598 36.3599 47.4198 36.3599 47.9998 36.9399L49.9998 38.9399C50.5798 39.5199 50.5798 40.4799 49.9998 41.0599C49.7198 41.3599 49.3398 41.4999 48.9398 41.4999Z" fill="#292D32"/>
<path d="M38.9398 51.4999C38.5598 51.4999 38.1798 51.3599 37.8798 51.0599L35.8798 49.0599C35.2998 48.4799 35.2998 47.5199 35.8798 46.9399C36.4598 46.3599 37.4198 46.3599 37.9998 46.9399L39.9998 48.9399C40.5798 49.5199 40.5798 50.4799 39.9998 51.0599C39.7198 51.3599 39.3398 51.4999 38.9398 51.4999Z" fill="#292D32"/>
</svg>
