<svg width="80" height="80" viewBox="0 0 80 80" fill="none" xmlns="http://www.w3.org/2000/svg">
<rect x="0.25" y="0.25" width="79.5" height="79.5" rx="11.75" fill="#FBFFDE"/>
<rect x="0.25" y="0.25" width="79.5" height="79.5" rx="11.75" stroke="#353C02" stroke-width="0.5"/>
<path d="M45 61.5H33C22.14 61.5 17.5 56.86 17.5 46V34C17.5 23.14 22.14 18.5 33 18.5H45C55.86 18.5 60.5 23.14 60.5 34V46C60.5 56.86 55.86 61.5 45 61.5ZM33 21.5C23.78 21.5 20.5 24.78 20.5 34V46C20.5 55.22 23.78 58.5 33 58.5H45C54.22 58.5 57.5 55.22 57.5 46V34C57.5 24.78 54.22 21.5 45 21.5H33Z" fill="#353C02"/>
<path d="M39.0002 42.1594C38.7402 42.1594 38.4802 42.0994 38.2402 41.9594L27.6403 35.8394C26.9203 35.4194 26.6802 34.4994 27.1002 33.7994C27.5202 33.0794 28.4403 32.8394 29.1403 33.2594L38.9802 38.9594L48.7602 33.2994C49.4802 32.8794 50.4002 33.1394 50.8002 33.8394C51.2002 34.5394 50.9602 35.4794 50.2602 35.8794L39.7402 41.9594C39.5202 42.0794 39.2602 42.1594 39.0002 42.1594Z" fill="#353C02"/>
<path d="M39 53.0401C38.18 53.0401 37.5 52.3601 37.5 51.5401V40.6602C37.5 39.8402 38.18 39.1602 39 39.1602C39.82 39.1602 40.5 39.8402 40.5 40.6602V51.5401C40.5 52.3601 39.82 53.0401 39 53.0401Z" fill="#353C02"/>
<path d="M39.0005 53.4996C37.8405 53.4996 36.7005 53.2396 35.7805 52.7396L29.3805 49.1796C27.4605 48.1196 25.9805 45.5796 25.9805 43.3796V36.5996C25.9805 34.4196 27.4805 31.8796 29.3805 30.7996L35.7805 27.2396C37.6205 26.2196 40.3805 26.2196 42.2205 27.2396L48.6205 30.7996C50.5405 31.8596 52.0205 34.3996 52.0205 36.5996V43.3796C52.0205 45.5596 50.5205 48.0996 48.6205 49.1796L42.2205 52.7396C41.3005 53.2596 40.1605 53.4996 39.0005 53.4996ZM39.0005 29.4996C38.3405 29.4996 37.7005 29.6196 37.2405 29.8796L30.8405 33.4396C29.8605 33.9796 28.9805 35.4996 28.9805 36.5996V43.3796C28.9805 44.4996 29.8605 45.9996 30.8405 46.5396L37.2405 50.0996C38.1605 50.6196 39.8405 50.6196 40.7605 50.0996L47.1605 46.5396C48.1405 45.9996 49.0205 44.4796 49.0205 43.3796V36.5996C49.0205 35.4796 48.1405 33.9796 47.1605 33.4396L40.7605 29.8796C40.3005 29.6196 39.6605 29.4996 39.0005 29.4996Z" fill="#353C02"/>
</svg>
