<svg width="80" height="80" viewBox="0 0 80 80" fill="none" xmlns="http://www.w3.org/2000/svg">
<rect x="0.25" y="0.25" width="79.5" height="79.5" rx="11.75" fill="#F4FFEE" fill-opacity="0.5"/>
<rect x="0.25" y="0.25" width="79.5" height="79.5" rx="11.75" stroke="#112D01" stroke-width="0.5"/>
<path d="M33.74 61.5H24.24C19.64 61.5 17.5 59.36 17.5 54.76V45.26C17.5 40.64 19.64 38.5 24.24 38.5H29C29.82 38.5 30.5 39.18 30.5 40V44.74C30.5 47.66 31.34 48.5 34.24 48.5H39C39.82 48.5 40.5 49.18 40.5 50V54.76C40.5 59.36 38.36 61.5 33.74 61.5ZM24.24 41.5C21.34 41.5 20.5 42.34 20.5 45.26V54.76C20.5 57.66 21.34 58.5 24.24 58.5H33.74C36.66 58.5 37.5 57.66 37.5 54.76V51.5H34.24C29.64 51.5 27.5 49.36 27.5 44.74V41.5H24.24Z" fill="#112D01"/>
<path d="M43.74 51.5H34.24C29.64 51.5 27.5 49.36 27.5 44.74V35.24C27.5 30.64 29.64 28.5 34.24 28.5H39C39.82 28.5 40.5 29.18 40.5 30V34.74C40.5 37.66 41.34 38.5 44.24 38.5H49C49.82 38.5 50.5 39.18 50.5 40V44.74C50.5 49.36 48.36 51.5 43.74 51.5ZM34.24 31.5C31.34 31.5 30.5 32.34 30.5 35.24V44.74C30.5 47.66 31.34 48.5 34.24 48.5H43.74C46.66 48.5 47.5 47.66 47.5 44.74V41.5H44.24C39.64 41.5 37.5 39.36 37.5 34.74V31.5H34.24Z" fill="#112D01"/>
<path d="M53.74 41.5H44.24C39.64 41.5 37.5 39.36 37.5 34.74V25.24C37.5 20.64 39.64 18.5 44.24 18.5H53.74C58.36 18.5 60.5 20.64 60.5 25.24V34.74C60.5 39.36 58.36 41.5 53.74 41.5ZM44.24 21.5C41.34 21.5 40.5 22.34 40.5 25.24V34.74C40.5 37.66 41.34 38.5 44.24 38.5H53.74C56.66 38.5 57.5 37.66 57.5 34.74V25.24C57.5 22.34 56.66 21.5 53.74 21.5H44.24Z" fill="#112D01"/>
</svg>
