<svg width="35" height="44" viewBox="0 0 35 44" fill="none" xmlns="http://www.w3.org/2000/svg">
<path d="M0.706902 1.17988C0.209934 1.83487 -0.0410008 2.67456 0.00550817 3.5269V40.4739C-0.041136 41.3263 0.209815 42.166 0.706902 42.821L0.819053 42.9414L19.5951 22.2446V21.7563L0.819053 1.05859L0.706902 1.17988Z" fill="url(#paint0_linear_7126_9478)"/>
<path d="M25.853 29.1459L19.5947 22.244V21.7557L25.8545 14.8555L25.9956 14.9442L33.4109 19.5886C35.529 20.9151 35.529 23.0855 33.4109 24.4128L25.9956 29.0572L25.853 29.1459Z" fill="url(#paint1_linear_7126_9478)"/>
<path d="M25.9962 29.0564L19.5953 22L0.707031 42.8205C1.13861 43.24 1.68975 43.48 2.26495 43.4987C2.84016 43.5175 3.40318 43.3138 3.85649 42.923L25.9962 29.0564Z" fill="url(#paint2_linear_7126_9478)"/>
<path d="M25.9962 14.9435L3.85649 1.07687C3.40318 0.686109 2.84016 0.482452 2.26495 0.501186C1.68975 0.51992 1.13861 0.759864 0.707031 1.17945L19.5953 22.0001L25.9962 14.9435Z" fill="url(#paint3_linear_7126_9478)"/>
<path opacity="0.2" d="M25.8551 28.9014L3.85649 42.6793C3.42064 43.045 2.88869 43.2446 2.34092 43.2478C1.79316 43.251 1.25931 43.0577 0.819939 42.6972L0.707031 42.8216L0.819182 42.9421L0.819939 42.9412C1.25923 43.302 1.79311 43.4954 2.34092 43.4922C2.88874 43.489 3.42071 43.2893 3.85649 42.9233L25.9962 29.0567L25.8551 28.9014Z" fill="#211F1F"/>
<path opacity="0.12" d="M0.706866 42.5775C0.209947 41.9225 -0.0409813 41.0828 0.00547332 40.2305V40.4745C-0.0410092 41.3269 0.209922 42.1666 0.706866 42.8216L0.819774 42.6971L0.706866 42.5775Z" fill="#211F1F"/>
<path opacity="0.12" d="M33.4108 24.1682L25.8545 28.9014L25.9956 29.0567L33.4108 24.4123C33.847 24.2036 34.2245 23.8699 34.5039 23.4458C34.7834 23.0217 34.9545 22.5228 34.9996 22.001C34.9058 22.4735 34.7134 22.9154 34.4376 23.2916C34.1618 23.6678 33.8103 23.968 33.4108 24.1682Z" fill="#211F1F"/>
<path opacity="0.25" d="M3.85671 1.32205L33.4117 19.8322C33.8112 20.0325 34.1629 20.3327 34.4387 20.7091C34.7145 21.0855 34.9069 21.5276 35.0004 22.0003C34.9556 21.4784 34.7846 20.9792 34.5051 20.5549C34.2257 20.1306 33.8481 19.7967 33.4117 19.5882L3.85671 1.07798C1.73858 -0.248642 0.00585938 0.853282 0.00585938 3.52757V3.77165C0.00585938 1.09752 1.73858 -0.00440079 3.85671 1.32205Z" fill="white"/>
<defs>
<linearGradient id="paint0_linear_7126_9478" x1="17.9301" y1="3.13733" x2="-9.97407" y2="28.4516" gradientUnits="userSpaceOnUse">
<stop stop-color="#00A0FF"/>
<stop offset="0.00657" stop-color="#00A1FF"/>
<stop offset="0.2601" stop-color="#00BEFF"/>
<stop offset="0.5122" stop-color="#00D2FF"/>
<stop offset="0.7604" stop-color="#00DFFF"/>
<stop offset="1" stop-color="#00E3FF"/>
</linearGradient>
<linearGradient id="paint1_linear_7126_9478" x1="36.1687" y1="22.0007" x2="-0.502795" y2="22.0007" gradientUnits="userSpaceOnUse">
<stop stop-color="#FFE000"/>
<stop offset="0.4087" stop-color="#FFBD00"/>
<stop offset="0.7754" stop-color="#FFA500"/>
<stop offset="1" stop-color="#FF9C00"/>
</linearGradient>
<linearGradient id="paint2_linear_7126_9478" x1="22.5181" y1="25.8342" x2="-15.3222" y2="60.1624" gradientUnits="userSpaceOnUse">
<stop stop-color="#FF3A44"/>
<stop offset="1" stop-color="#C31162"/>
</linearGradient>
<linearGradient id="paint3_linear_7126_9478" x1="-4.04885" y1="-11.1192" x2="12.8484" y2="4.20981" gradientUnits="userSpaceOnUse">
<stop stop-color="#32A071"/>
<stop offset="0.0685" stop-color="#2DA771"/>
<stop offset="0.4762" stop-color="#15CF74"/>
<stop offset="0.8009" stop-color="#06E775"/>
<stop offset="1" stop-color="#00F076"/>
</linearGradient>
</defs>
</svg>
