<svg width="582" height="208" viewBox="0 0 582 208" fill="none" xmlns="http://www.w3.org/2000/svg">
<g filter="url(#filter0_d_6691_51277)">
<g clip-path="url(#clip0_6691_51277)">
<rect x="16" y="24" width="550" height="150" rx="8" fill="#FCFCFC"/>
<path d="M53.88 69V55.176H48.36V52.2H63.024V55.176H57.528V69H53.88ZM67.9466 69.36C64.1306 69.36 61.5866 66.864 61.5866 63C61.5866 59.136 64.1306 56.64 67.9466 56.64C71.6906 56.64 74.2346 59.136 74.2346 63C74.2346 66.864 71.6906 69.36 67.9466 69.36ZM65.1146 63C65.1146 65.088 66.2426 66.456 67.9466 66.456C69.5786 66.456 70.7066 65.088 70.7066 63C70.7066 60.912 69.5786 59.544 67.9466 59.544C66.2426 59.544 65.1146 60.912 65.1146 63ZM80.2969 69C78.2089 69 77.1289 67.824 77.1289 65.808L77.1529 59.736H74.7049V57H77.2489V53.64H80.2249V57H83.5609V59.736H80.3449V65.208C80.3449 66 80.5609 66.264 81.2569 66.264H83.8249V69H80.2969ZM89.1293 69.36C86.3933 69.36 85.1213 67.896 85.1213 65.736C85.1213 63.696 86.4893 62.472 89.2253 61.8L91.6013 61.2C92.4413 61.008 92.7773 60.792 92.7773 60.336C92.7773 59.616 92.2013 59.136 90.7853 59.136C89.2493 59.136 88.5293 60 88.5053 60.936H85.2893C85.2893 58.368 87.4492 56.64 90.7853 56.64C94.1453 56.64 96.3773 58.272 96.3773 61.344V69H92.9693C93.1853 68.232 93.5933 67.464 94.0733 66.888V66.648H92.8733C92.5373 68.28 91.1693 69.36 89.1293 69.36ZM88.4333 65.448C88.4333 66.12 88.7693 66.792 90.0893 66.792C91.5053 66.792 92.8973 66.024 92.8973 64.368V62.64C92.6093 63.048 92.0573 63.336 91.4573 63.528L89.8973 64.008C89.0093 64.296 88.4333 64.752 88.4333 65.448ZM98.8178 69V52.2H102.274V69H98.8178ZM110.496 69V52.2H117.648C121.632 52.2 123.624 53.664 123.624 56.544C123.624 58.824 122.4 59.688 119.4 59.76V60.72C122.736 60.72 124.224 61.68 124.224 64.416C124.224 67.392 122.376 69 118.344 69H110.496ZM114.12 66.144H117.84C119.712 66.144 120.456 65.544 120.456 63.984C120.456 62.472 119.784 61.824 117.84 61.824H114.12V66.144ZM114.12 59.016H117.624C119.256 59.016 119.904 58.392 119.904 57C119.904 55.608 119.184 55.008 117.528 55.008H114.12V59.016ZM137.991 57V69H134.871C134.991 68.184 135.351 67.08 135.687 66.336V66.096H134.511C134.079 68.112 132.711 69.36 130.551 69.36C127.983 69.36 126.567 67.608 126.567 64.488V57H130.047V63.864C130.047 65.568 130.743 66.456 132.135 66.456C133.455 66.456 134.511 65.136 134.511 63.408V57H137.991ZM145.312 69.36C142.241 69.36 140.009 66.744 140.009 63C140.009 59.256 142.241 56.64 145.312 56.64C147.449 56.64 148.793 57.84 149.441 59.904H150.617V59.664C149.897 58.32 149.441 56.616 149.441 54.624V52.2H152.921V69H149.441C149.609 68.256 150.137 67.104 150.617 66.36V66.12H149.441C148.793 68.16 147.617 69.36 145.312 69.36ZM143.537 63C143.537 65.112 144.737 66.456 146.513 66.456C148.265 66.456 149.465 65.112 149.465 63C149.465 60.888 148.265 59.544 146.513 59.544C144.737 59.544 143.537 60.888 143.537 63ZM158.946 73.8C156.234 73.8 154.986 72.432 154.986 70.608C154.986 69.12 156.066 68.112 157.362 68.112V67.416H157.002C156.234 67.416 155.634 66.84 155.634 66.144C155.634 65.448 156.234 64.896 157.002 64.896H158.034V64.272C156.642 63.648 155.778 62.352 155.778 60.888C155.778 58.344 157.698 56.64 160.77 56.64C162.906 56.64 164.394 57.552 165.138 58.776H165.858V58.32C165.858 57.504 166.482 57 167.058 57H168.234V60H166.674C166.242 60 165.858 60.264 165.858 60.696V61.008C165.858 63.36 163.986 65.208 161.01 65.208H159.714C159.282 65.208 158.994 65.448 158.994 65.856C158.994 66.264 159.282 66.48 159.714 66.48H165.042C167.154 66.48 168.45 67.92 168.45 69.744C168.45 72.216 166.722 73.8 163.338 73.8H158.946ZM158.082 70.296C158.082 70.992 158.61 71.376 159.426 71.376H163.722C164.49 71.376 165.09 71.04 165.09 70.272C165.09 69.624 164.586 69.264 163.794 69.264H159.354C158.634 69.264 158.082 69.648 158.082 70.296ZM158.874 60.936C158.874 62.064 159.666 62.784 160.866 62.784C162.042 62.784 162.81 62.064 162.81 60.936C162.81 59.808 162.042 59.088 160.866 59.088C159.666 59.088 158.874 59.808 158.874 60.936ZM175.435 69.36C171.427 69.36 168.907 66.864 168.907 63C168.907 59.136 171.283 56.64 175.243 56.64C178.507 56.64 181.267 58.584 181.267 62.712C181.267 63.048 181.243 63.408 181.219 63.648H172.435C172.651 65.496 173.923 66.672 175.435 66.672C176.827 66.672 177.787 65.976 178.027 64.944H181.363C180.931 67.608 178.771 69.36 175.435 69.36ZM172.531 61.512H177.715C177.691 60.024 176.683 59.208 175.171 59.208C173.683 59.208 172.723 60.072 172.531 61.512ZM187.406 69C185.318 69 184.238 67.824 184.238 65.808L184.262 59.736H181.814V57H184.358V53.64H187.334V57H190.67V59.736H187.454V65.208C187.454 66 187.67 66.264 188.366 66.264H190.934V69H187.406ZM192.447 65.52H196.167V69H192.447V65.52ZM192.447 60.504V57.024H196.167V60.504H192.447Z" fill="#1F1F1F"/>
<path d="M223.656 70.5H221.416L216.344 62.836V70.5H214.104V59.316H216.344L221.416 66.996V59.316H223.656V70.5ZM233.646 62.692C233.39 62.2227 233.038 61.8653 232.59 61.62C232.142 61.3747 231.619 61.252 231.022 61.252C230.36 61.252 229.774 61.4013 229.262 61.7C228.75 61.9987 228.35 62.4253 228.062 62.98C227.774 63.5347 227.63 64.1747 227.63 64.9C227.63 65.6467 227.774 66.2973 228.062 66.852C228.36 67.4067 228.771 67.8333 229.294 68.132C229.816 68.4307 230.424 68.58 231.118 68.58C231.971 68.58 232.67 68.356 233.214 67.908C233.758 67.4493 234.115 66.8147 234.286 66.004H230.446V64.292H236.494V66.244C236.344 67.0227 236.024 67.7427 235.534 68.404C235.043 69.0653 234.408 69.5987 233.63 70.004C232.862 70.3987 231.998 70.596 231.038 70.596C229.96 70.596 228.984 70.356 228.11 69.876C227.246 69.3853 226.563 68.708 226.062 67.844C225.571 66.98 225.326 65.9987 225.326 64.9C225.326 63.8013 225.571 62.82 226.062 61.956C226.563 61.0813 227.246 60.404 228.11 59.924C228.984 59.4333 229.955 59.188 231.022 59.188C232.28 59.188 233.374 59.4973 234.302 60.116C235.23 60.724 235.87 61.5827 236.222 62.692H233.646ZM247.703 70.5H245.463L240.391 62.836V70.5H238.151V59.316H240.391L245.463 66.996V59.316H247.703V70.5ZM255.141 70.5V56.108H253.741C253.629 57.48 252.705 58.404 251.641 58.404H250.017V54.708C253.153 54.708 255.057 53.336 255.057 50.9H259.201V70.5H255.141ZM270.746 70.92C265.314 70.92 262.318 66.58 262.318 60.7C262.318 54.82 265.314 50.48 270.746 50.48C276.178 50.48 279.146 54.792 279.146 60.7C279.146 66.58 276.178 70.92 270.746 70.92ZM266.49 60.7C266.49 64.424 267.61 67.336 270.746 67.336C273.882 67.336 274.974 64.424 274.974 60.7C274.974 56.948 273.882 54.064 270.746 54.064C267.61 54.064 266.49 56.948 266.49 60.7ZM288.601 70.92C283.169 70.92 280.173 66.58 280.173 60.7C280.173 54.82 283.169 50.48 288.601 50.48C294.033 50.48 297.001 54.792 297.001 60.7C297.001 66.58 294.033 70.92 288.601 70.92ZM284.345 60.7C284.345 64.424 285.465 67.336 288.601 67.336C291.737 67.336 292.829 64.424 292.829 60.7C292.829 56.948 291.737 54.064 288.601 54.064C285.465 54.064 284.345 56.948 284.345 60.7ZM306.457 70.92C301.025 70.92 298.029 66.58 298.029 60.7C298.029 54.82 301.025 50.48 306.457 50.48C311.889 50.48 314.857 54.792 314.857 60.7C314.857 66.58 311.889 70.92 306.457 70.92ZM302.201 60.7C302.201 64.424 303.321 67.336 306.457 67.336C309.593 67.336 310.685 64.424 310.685 60.7C310.685 56.948 309.593 54.064 306.457 54.064C303.321 54.064 302.201 56.948 302.201 60.7ZM316.754 74.028V72.264H317.986C318.266 72.264 318.406 72.096 318.406 71.844V70.5H316.754V66.44H321.066V72.852C321.066 73.58 320.562 74.028 319.89 74.028H316.754ZM331.859 70.92C326.427 70.92 323.431 66.58 323.431 60.7C323.431 54.82 326.427 50.48 331.859 50.48C337.291 50.48 340.259 54.792 340.259 60.7C340.259 66.58 337.291 70.92 331.859 70.92ZM327.603 60.7C327.603 64.424 328.723 67.336 331.859 67.336C334.995 67.336 336.087 64.424 336.087 60.7C336.087 56.948 334.995 54.064 331.859 54.064C328.723 54.064 327.603 56.948 327.603 60.7ZM349.715 70.92C344.283 70.92 341.287 66.58 341.287 60.7C341.287 54.82 344.283 50.48 349.715 50.48C355.147 50.48 358.115 54.792 358.115 60.7C358.115 66.58 355.147 70.92 349.715 70.92ZM345.459 60.7C345.459 64.424 346.579 67.336 349.715 67.336C352.851 67.336 353.943 64.424 353.943 60.7C353.943 56.948 352.851 54.064 349.715 54.064C346.579 54.064 345.459 56.948 345.459 60.7ZM367.57 70.92C362.138 70.92 359.142 66.58 359.142 60.7C359.142 54.82 362.138 50.48 367.57 50.48C373.002 50.48 375.97 54.792 375.97 60.7C375.97 66.58 373.002 70.92 367.57 70.92ZM363.314 60.7C363.314 64.424 364.434 67.336 367.57 67.336C370.706 67.336 371.798 64.424 371.798 60.7C371.798 56.948 370.706 54.064 367.57 54.064C364.434 54.064 363.314 56.948 363.314 60.7ZM378.205 66.44H382.545V70.5H378.205V66.44ZM393.273 70.92C387.841 70.92 384.845 66.58 384.845 60.7C384.845 54.82 387.841 50.48 393.273 50.48C398.705 50.48 401.673 54.792 401.673 60.7C401.673 66.58 398.705 70.92 393.273 70.92ZM389.017 60.7C389.017 64.424 390.137 67.336 393.273 67.336C396.409 67.336 397.501 64.424 397.501 60.7C397.501 56.948 396.409 54.064 393.273 54.064C390.137 54.064 389.017 56.948 389.017 60.7ZM411.129 70.92C405.697 70.92 402.701 66.58 402.701 60.7C402.701 54.82 405.697 50.48 411.129 50.48C416.561 50.48 419.529 54.792 419.529 60.7C419.529 66.58 416.561 70.92 411.129 70.92ZM406.873 60.7C406.873 64.424 407.993 67.336 411.129 67.336C414.265 67.336 415.357 64.424 415.357 60.7C415.357 56.948 414.265 54.064 411.129 54.064C407.993 54.064 406.873 56.948 406.873 60.7Z" fill="#251763"/>
<rect x="48" y="106" width="12" height="12" rx="6" fill="#057C76"/>
<path d="M72.2483 110.56C72.0163 110.072 71.6803 109.696 71.2403 109.432C70.8003 109.16 70.2883 109.024 69.7043 109.024C69.1203 109.024 68.5923 109.16 68.1203 109.432C67.6563 109.696 67.2883 110.08 67.0163 110.584C66.7523 111.08 66.6203 111.656 66.6203 112.312C66.6203 112.968 66.7523 113.544 67.0163 114.04C67.2883 114.536 67.6563 114.92 68.1203 115.192C68.5923 115.456 69.1203 115.588 69.7043 115.588C70.5203 115.588 71.1923 115.344 71.7203 114.856C72.2483 114.368 72.5563 113.708 72.6443 112.876H69.3083V111.988H73.8083V112.828C73.7443 113.516 73.5283 114.148 73.1603 114.724C72.7923 115.292 72.3083 115.744 71.7083 116.08C71.1083 116.408 70.4403 116.572 69.7043 116.572C68.9283 116.572 68.2203 116.392 67.5803 116.032C66.9403 115.664 66.4323 115.156 66.0563 114.508C65.6883 113.86 65.5043 113.128 65.5043 112.312C65.5043 111.496 65.6883 110.764 66.0563 110.116C66.4323 109.46 66.9403 108.952 67.5803 108.592C68.2203 108.224 68.9283 108.04 69.7043 108.04C70.5923 108.04 71.3763 108.26 72.0563 108.7C72.7443 109.14 73.2443 109.76 73.5563 110.56H72.2483ZM76.3441 110.992C76.5361 110.616 76.8081 110.324 77.1601 110.116C77.5201 109.908 77.9561 109.804 78.4681 109.804V110.932H78.1801C76.9561 110.932 76.3441 111.596 76.3441 112.924V116.5H75.2521V109.924H76.3441V110.992ZM82.5967 116.608C81.9807 116.608 81.4207 116.468 80.9167 116.188C80.4207 115.908 80.0287 115.512 79.7407 115C79.4607 114.48 79.3207 113.88 79.3207 113.2C79.3207 112.528 79.4647 111.936 79.7527 111.424C80.0487 110.904 80.4487 110.508 80.9527 110.236C81.4567 109.956 82.0207 109.816 82.6447 109.816C83.2687 109.816 83.8327 109.956 84.3367 110.236C84.8407 110.508 85.2367 110.9 85.5247 111.412C85.8207 111.924 85.9687 112.52 85.9687 113.2C85.9687 113.88 85.8167 114.48 85.5127 115C85.2167 115.512 84.8127 115.908 84.3007 116.188C83.7887 116.468 83.2207 116.608 82.5967 116.608ZM82.5967 115.648C82.9887 115.648 83.3567 115.556 83.7007 115.372C84.0447 115.188 84.3207 114.912 84.5287 114.544C84.7447 114.176 84.8527 113.728 84.8527 113.2C84.8527 112.672 84.7487 112.224 84.5407 111.856C84.3327 111.488 84.0607 111.216 83.7247 111.04C83.3887 110.856 83.0247 110.764 82.6327 110.764C82.2327 110.764 81.8647 110.856 81.5287 111.04C81.2007 111.216 80.9367 111.488 80.7367 111.856C80.5367 112.224 80.4367 112.672 80.4367 113.2C80.4367 113.736 80.5327 114.188 80.7247 114.556C80.9247 114.924 81.1887 115.2 81.5167 115.384C81.8447 115.56 82.2047 115.648 82.5967 115.648ZM86.9965 113.2C86.9965 112.52 87.1325 111.928 87.4045 111.424C87.6765 110.912 88.0525 110.516 88.5325 110.236C89.0205 109.956 89.5765 109.816 90.2005 109.816C91.0085 109.816 91.6725 110.012 92.1925 110.404C92.7205 110.796 93.0685 111.34 93.2365 112.036H92.0605C91.9485 111.636 91.7285 111.32 91.4005 111.088C91.0805 110.856 90.6805 110.74 90.2005 110.74C89.5765 110.74 89.0725 110.956 88.6885 111.388C88.3045 111.812 88.1125 112.416 88.1125 113.2C88.1125 113.992 88.3045 114.604 88.6885 115.036C89.0725 115.468 89.5765 115.684 90.2005 115.684C90.6805 115.684 91.0805 115.572 91.4005 115.348C91.7205 115.124 91.9405 114.804 92.0605 114.388H93.2365C93.0605 115.06 92.7085 115.6 92.1805 116.008C91.6525 116.408 90.9925 116.608 90.2005 116.608C89.5765 116.608 89.0205 116.468 88.5325 116.188C88.0525 115.908 87.6765 115.512 87.4045 115C87.1325 114.488 86.9965 113.888 86.9965 113.2ZM100.694 112.96C100.694 113.168 100.682 113.388 100.658 113.62H95.4015C95.4415 114.268 95.6615 114.776 96.0615 115.144C96.4695 115.504 96.9615 115.684 97.5375 115.684C98.0095 115.684 98.4015 115.576 98.7135 115.36C99.0335 115.136 99.2575 114.84 99.3855 114.472H100.562C100.386 115.104 100.034 115.62 99.5055 116.02C98.9775 116.412 98.3215 116.608 97.5375 116.608C96.9135 116.608 96.3535 116.468 95.8575 116.188C95.3695 115.908 94.9855 115.512 94.7055 115C94.4255 114.48 94.2855 113.88 94.2855 113.2C94.2855 112.52 94.4215 111.924 94.6935 111.412C94.9655 110.9 95.3455 110.508 95.8335 110.236C96.3295 109.956 96.8975 109.816 97.5375 109.816C98.1615 109.816 98.7135 109.952 99.1935 110.224C99.6735 110.496 100.042 110.872 100.298 111.352C100.562 111.824 100.694 112.36 100.694 112.96ZM99.5655 112.732C99.5655 112.316 99.4735 111.96 99.2895 111.664C99.1055 111.36 98.8535 111.132 98.5335 110.98C98.2215 110.82 97.8735 110.74 97.4895 110.74C96.9375 110.74 96.4655 110.916 96.0735 111.268C95.6895 111.62 95.4695 112.108 95.4135 112.732H99.5655ZM103.227 110.992C103.419 110.616 103.691 110.324 104.043 110.116C104.403 109.908 104.839 109.804 105.351 109.804V110.932H105.063C103.839 110.932 103.227 111.596 103.227 112.924V116.5H102.135V109.924H103.227V110.992ZM112.276 109.924L108.316 119.596H107.188L108.484 116.428L105.832 109.924H107.044L109.108 115.252L111.148 109.924H112.276ZM121.132 111.64V112.564H116.344V111.64H121.132ZM126.069 115.624C127.085 114.808 127.881 114.14 128.457 113.62C129.033 113.092 129.517 112.544 129.909 111.976C130.309 111.4 130.509 110.836 130.509 110.284C130.509 109.764 130.381 109.356 130.125 109.06C129.877 108.756 129.473 108.604 128.913 108.604C128.369 108.604 127.945 108.776 127.641 109.12C127.345 109.456 127.185 109.908 127.161 110.476H126.105C126.137 109.58 126.409 108.888 126.921 108.4C127.433 107.912 128.093 107.668 128.901 107.668C129.725 107.668 130.377 107.896 130.857 108.352C131.345 108.808 131.589 109.436 131.589 110.236C131.589 110.9 131.389 111.548 130.989 112.18C130.597 112.804 130.149 113.356 129.645 113.836C129.141 114.308 128.497 114.86 127.713 115.492H131.841V116.404H126.069V115.624ZM138.635 108.772H134.423V111.508C134.607 111.252 134.879 111.044 135.239 110.884C135.599 110.716 135.987 110.632 136.403 110.632C137.067 110.632 137.607 110.772 138.023 111.052C138.439 111.324 138.735 111.68 138.911 112.12C139.095 112.552 139.187 113.012 139.187 113.5C139.187 114.076 139.079 114.592 138.863 115.048C138.647 115.504 138.315 115.864 137.867 116.128C137.427 116.392 136.879 116.524 136.223 116.524C135.383 116.524 134.703 116.308 134.183 115.876C133.663 115.444 133.347 114.868 133.235 114.148H134.303C134.407 114.604 134.627 114.96 134.963 115.216C135.299 115.472 135.723 115.6 136.235 115.6C136.867 115.6 137.343 115.412 137.663 115.036C137.983 114.652 138.143 114.148 138.143 113.524C138.143 112.9 137.983 112.42 137.663 112.084C137.343 111.74 136.871 111.568 136.247 111.568C135.823 111.568 135.451 111.672 135.131 111.88C134.819 112.08 134.591 112.356 134.447 112.708H133.415V107.812H138.635V108.772ZM140.399 109.78C140.399 109.236 140.563 108.804 140.891 108.484C141.219 108.156 141.639 107.992 142.151 107.992C142.663 107.992 143.083 108.156 143.411 108.484C143.739 108.804 143.903 109.236 143.903 109.78C143.903 110.332 143.739 110.772 143.411 111.1C143.083 111.42 142.663 111.58 142.151 111.58C141.639 111.58 141.219 111.42 140.891 111.1C140.563 110.772 140.399 110.332 140.399 109.78ZM147.407 108.124L142.547 116.5H141.467L146.327 108.124H147.407ZM142.151 108.664C141.879 108.664 141.663 108.76 141.503 108.952C141.351 109.136 141.275 109.412 141.275 109.78C141.275 110.148 141.351 110.428 141.503 110.62C141.663 110.812 141.879 110.908 142.151 110.908C142.423 110.908 142.639 110.812 142.799 110.62C142.959 110.42 143.039 110.14 143.039 109.78C143.039 109.412 142.959 109.136 142.799 108.952C142.639 108.76 142.423 108.664 142.151 108.664ZM144.995 114.844C144.995 114.292 145.159 113.856 145.487 113.536C145.815 113.208 146.235 113.044 146.747 113.044C147.259 113.044 147.675 113.208 147.995 113.536C148.323 113.856 148.487 114.292 148.487 114.844C148.487 115.388 148.323 115.824 147.995 116.152C147.675 116.48 147.259 116.644 146.747 116.644C146.235 116.644 145.815 116.484 145.487 116.164C145.159 115.836 144.995 115.396 144.995 114.844ZM146.735 113.728C146.463 113.728 146.247 113.824 146.087 114.016C145.927 114.2 145.847 114.476 145.847 114.844C145.847 115.204 145.927 115.48 146.087 115.672C146.247 115.856 146.463 115.948 146.735 115.948C147.007 115.948 147.223 115.856 147.383 115.672C147.543 115.48 147.623 115.204 147.623 114.844C147.623 114.476 147.543 114.2 147.383 114.016C147.223 113.824 147.007 113.728 146.735 113.728Z" fill="#292929"/>
<rect x="220" y="106" width="12" height="12" rx="6" fill="#6DD3CE"/>
<path d="M238.356 109.024V111.82H241.404V112.72H238.356V115.6H241.764V116.5H237.264V108.124H241.764V109.024H238.356ZM243.008 113.188C243.008 112.516 243.144 111.928 243.416 111.424C243.688 110.912 244.06 110.516 244.532 110.236C245.012 109.956 245.548 109.816 246.14 109.816C246.652 109.816 247.128 109.936 247.568 110.176C248.008 110.408 248.344 110.716 248.576 111.1V107.62H249.68V116.5H248.576V115.264C248.36 115.656 248.04 115.98 247.616 116.236C247.192 116.484 246.696 116.608 246.128 116.608C245.544 116.608 245.012 116.464 244.532 116.176C244.06 115.888 243.688 115.484 243.416 114.964C243.144 114.444 243.008 113.852 243.008 113.188ZM248.576 113.2C248.576 112.704 248.476 112.272 248.276 111.904C248.076 111.536 247.804 111.256 247.46 111.064C247.124 110.864 246.752 110.764 246.344 110.764C245.936 110.764 245.564 110.86 245.228 111.052C244.892 111.244 244.624 111.524 244.424 111.892C244.224 112.26 244.124 112.692 244.124 113.188C244.124 113.692 244.224 114.132 244.424 114.508C244.624 114.876 244.892 115.16 245.228 115.36C245.564 115.552 245.936 115.648 246.344 115.648C246.752 115.648 247.124 115.552 247.46 115.36C247.804 115.16 248.076 114.876 248.276 114.508C248.476 114.132 248.576 113.696 248.576 113.2ZM257.358 109.924V116.5H256.266V115.528C256.058 115.864 255.766 116.128 255.39 116.32C255.022 116.504 254.614 116.596 254.166 116.596C253.654 116.596 253.194 116.492 252.786 116.284C252.378 116.068 252.054 115.748 251.814 115.324C251.582 114.9 251.466 114.384 251.466 113.776V109.924H252.546V113.632C252.546 114.28 252.71 114.78 253.038 115.132C253.366 115.476 253.814 115.648 254.382 115.648C254.966 115.648 255.426 115.468 255.762 115.108C256.098 114.748 256.266 114.224 256.266 113.536V109.924H257.358ZM258.793 113.2C258.793 112.52 258.929 111.928 259.201 111.424C259.473 110.912 259.849 110.516 260.329 110.236C260.817 109.956 261.373 109.816 261.997 109.816C262.805 109.816 263.469 110.012 263.989 110.404C264.517 110.796 264.865 111.34 265.033 112.036H263.857C263.745 111.636 263.525 111.32 263.197 111.088C262.877 110.856 262.477 110.74 261.997 110.74C261.373 110.74 260.869 110.956 260.485 111.388C260.101 111.812 259.909 112.416 259.909 113.2C259.909 113.992 260.101 114.604 260.485 115.036C260.869 115.468 261.373 115.684 261.997 115.684C262.477 115.684 262.877 115.572 263.197 115.348C263.517 115.124 263.737 114.804 263.857 114.388H265.033C264.857 115.06 264.505 115.6 263.977 116.008C263.449 116.408 262.789 116.608 261.997 116.608C261.373 116.608 260.817 116.468 260.329 116.188C259.849 115.908 259.473 115.512 259.201 115C258.929 114.488 258.793 113.888 258.793 113.2ZM266.082 113.188C266.082 112.516 266.218 111.928 266.49 111.424C266.762 110.912 267.134 110.516 267.606 110.236C268.086 109.956 268.618 109.816 269.202 109.816C269.778 109.816 270.278 109.94 270.702 110.188C271.126 110.436 271.442 110.748 271.65 111.124V109.924H272.754V116.5H271.65V115.276C271.434 115.66 271.11 115.98 270.678 116.236C270.254 116.484 269.758 116.608 269.19 116.608C268.606 116.608 268.078 116.464 267.606 116.176C267.134 115.888 266.762 115.484 266.49 114.964C266.218 114.444 266.082 113.852 266.082 113.188ZM271.65 113.2C271.65 112.704 271.55 112.272 271.35 111.904C271.15 111.536 270.878 111.256 270.534 111.064C270.198 110.864 269.826 110.764 269.418 110.764C269.01 110.764 268.638 110.86 268.302 111.052C267.966 111.244 267.698 111.524 267.498 111.892C267.298 112.26 267.198 112.692 267.198 113.188C267.198 113.692 267.298 114.132 267.498 114.508C267.698 114.876 267.966 115.16 268.302 115.36C268.638 115.552 269.01 115.648 269.418 115.648C269.826 115.648 270.198 115.552 270.534 115.36C270.878 115.16 271.15 114.876 271.35 114.508C271.55 114.132 271.65 113.696 271.65 113.2ZM275.932 110.824V114.7C275.932 115.02 276 115.248 276.136 115.384C276.272 115.512 276.508 115.576 276.844 115.576H277.648V116.5H276.664C276.056 116.5 275.6 116.36 275.296 116.08C274.992 115.8 274.84 115.34 274.84 114.7V110.824H273.988V109.924H274.84V108.268H275.932V109.924H277.648V110.824H275.932ZM279.535 108.856C279.327 108.856 279.151 108.784 279.007 108.64C278.863 108.496 278.791 108.32 278.791 108.112C278.791 107.904 278.863 107.728 279.007 107.584C279.151 107.44 279.327 107.368 279.535 107.368C279.735 107.368 279.903 107.44 280.039 107.584C280.183 107.728 280.255 107.904 280.255 108.112C280.255 108.32 280.183 108.496 280.039 108.64C279.903 108.784 279.735 108.856 279.535 108.856ZM280.063 109.924V116.5H278.971V109.924H280.063ZM284.792 116.608C284.176 116.608 283.616 116.468 283.112 116.188C282.616 115.908 282.224 115.512 281.936 115C281.656 114.48 281.516 113.88 281.516 113.2C281.516 112.528 281.66 111.936 281.948 111.424C282.244 110.904 282.644 110.508 283.148 110.236C283.652 109.956 284.216 109.816 284.84 109.816C285.464 109.816 286.028 109.956 286.532 110.236C287.036 110.508 287.432 110.9 287.72 111.412C288.016 111.924 288.164 112.52 288.164 113.2C288.164 113.88 288.012 114.48 287.708 115C287.412 115.512 287.008 115.908 286.496 116.188C285.984 116.468 285.416 116.608 284.792 116.608ZM284.792 115.648C285.184 115.648 285.552 115.556 285.896 115.372C286.24 115.188 286.516 114.912 286.724 114.544C286.94 114.176 287.048 113.728 287.048 113.2C287.048 112.672 286.944 112.224 286.736 111.856C286.528 111.488 286.256 111.216 285.92 111.04C285.584 110.856 285.22 110.764 284.828 110.764C284.428 110.764 284.06 110.856 283.724 111.04C283.396 111.216 283.132 111.488 282.932 111.856C282.732 112.224 282.632 112.672 282.632 113.2C282.632 113.736 282.728 114.188 282.92 114.556C283.12 114.924 283.384 115.2 283.712 115.384C284.04 115.56 284.4 115.648 284.792 115.648ZM292.804 109.804C293.604 109.804 294.252 110.048 294.748 110.536C295.244 111.016 295.492 111.712 295.492 112.624V116.5H294.412V112.78C294.412 112.124 294.248 111.624 293.92 111.28C293.592 110.928 293.144 110.752 292.576 110.752C292 110.752 291.54 110.932 291.196 111.292C290.86 111.652 290.692 112.176 290.692 112.864V116.5H289.6V109.924H290.692V110.86C290.908 110.524 291.2 110.264 291.568 110.08C291.944 109.896 292.356 109.804 292.804 109.804ZM305.035 111.64V112.564H300.247V111.64H305.035ZM315.635 108.772H311.423V111.508C311.607 111.252 311.879 111.044 312.239 110.884C312.599 110.716 312.987 110.632 313.403 110.632C314.067 110.632 314.607 110.772 315.023 111.052C315.439 111.324 315.735 111.68 315.911 112.12C316.095 112.552 316.187 113.012 316.187 113.5C316.187 114.076 316.079 114.592 315.863 115.048C315.647 115.504 315.315 115.864 314.867 116.128C314.427 116.392 313.879 116.524 313.223 116.524C312.383 116.524 311.703 116.308 311.183 115.876C310.663 115.444 310.347 114.868 310.235 114.148H311.303C311.407 114.604 311.627 114.96 311.963 115.216C312.299 115.472 312.723 115.6 313.235 115.6C313.867 115.6 314.343 115.412 314.663 115.036C314.983 114.652 315.143 114.148 315.143 113.524C315.143 112.9 314.983 112.42 314.663 112.084C314.343 111.74 313.871 111.568 313.247 111.568C312.823 111.568 312.451 111.672 312.131 111.88C311.819 112.08 311.591 112.356 311.447 112.708H310.415V107.812H315.635V108.772ZM317.399 109.78C317.399 109.236 317.563 108.804 317.891 108.484C318.219 108.156 318.639 107.992 319.151 107.992C319.663 107.992 320.083 108.156 320.411 108.484C320.739 108.804 320.903 109.236 320.903 109.78C320.903 110.332 320.739 110.772 320.411 111.1C320.083 111.42 319.663 111.58 319.151 111.58C318.639 111.58 318.219 111.42 317.891 111.1C317.563 110.772 317.399 110.332 317.399 109.78ZM324.407 108.124L319.547 116.5H318.467L323.327 108.124H324.407ZM319.151 108.664C318.879 108.664 318.663 108.76 318.503 108.952C318.351 109.136 318.275 109.412 318.275 109.78C318.275 110.148 318.351 110.428 318.503 110.62C318.663 110.812 318.879 110.908 319.151 110.908C319.423 110.908 319.639 110.812 319.799 110.62C319.959 110.42 320.039 110.14 320.039 109.78C320.039 109.412 319.959 109.136 319.799 108.952C319.639 108.76 319.423 108.664 319.151 108.664ZM321.995 114.844C321.995 114.292 322.159 113.856 322.487 113.536C322.815 113.208 323.235 113.044 323.747 113.044C324.259 113.044 324.675 113.208 324.995 113.536C325.323 113.856 325.487 114.292 325.487 114.844C325.487 115.388 325.323 115.824 324.995 116.152C324.675 116.48 324.259 116.644 323.747 116.644C323.235 116.644 322.815 116.484 322.487 116.164C322.159 115.836 321.995 115.396 321.995 114.844ZM323.735 113.728C323.463 113.728 323.247 113.824 323.087 114.016C322.927 114.2 322.847 114.476 322.847 114.844C322.847 115.204 322.927 115.48 323.087 115.672C323.247 115.856 323.463 115.948 323.735 115.948C324.007 115.948 324.223 115.856 324.383 115.672C324.543 115.48 324.623 115.204 324.623 114.844C324.623 114.476 324.543 114.2 324.383 114.016C324.223 113.824 324.007 113.728 323.735 113.728Z" fill="#292929"/>
<rect x="392" y="106" width="12" height="12" rx="6" fill="#FE7272"/>
<path d="M415.958 108.136V116.5H414.866V112.708H410.606V116.5H409.514V108.136H410.606V111.808H414.866V108.136H415.958ZM423.822 112.96C423.822 113.168 423.81 113.388 423.786 113.62H418.53C418.57 114.268 418.79 114.776 419.19 115.144C419.598 115.504 420.09 115.684 420.666 115.684C421.138 115.684 421.53 115.576 421.842 115.36C422.162 115.136 422.386 114.84 422.514 114.472H423.69C423.514 115.104 423.162 115.62 422.634 116.02C422.106 116.412 421.45 116.608 420.666 116.608C420.042 116.608 419.482 116.468 418.986 116.188C418.498 115.908 418.114 115.512 417.834 115C417.554 114.48 417.414 113.88 417.414 113.2C417.414 112.52 417.55 111.924 417.822 111.412C418.094 110.9 418.474 110.508 418.962 110.236C419.458 109.956 420.026 109.816 420.666 109.816C421.29 109.816 421.842 109.952 422.322 110.224C422.802 110.496 423.17 110.872 423.426 111.352C423.69 111.824 423.822 112.36 423.822 112.96ZM422.694 112.732C422.694 112.316 422.602 111.96 422.418 111.664C422.234 111.36 421.982 111.132 421.662 110.98C421.35 110.82 421.002 110.74 420.618 110.74C420.066 110.74 419.594 110.916 419.202 111.268C418.818 111.62 418.598 112.108 418.542 112.732H422.694ZM424.856 113.188C424.856 112.516 424.992 111.928 425.264 111.424C425.536 110.912 425.908 110.516 426.38 110.236C426.86 109.956 427.392 109.816 427.976 109.816C428.552 109.816 429.052 109.94 429.476 110.188C429.9 110.436 430.216 110.748 430.424 111.124V109.924H431.528V116.5H430.424V115.276C430.208 115.66 429.884 115.98 429.452 116.236C429.028 116.484 428.532 116.608 427.964 116.608C427.38 116.608 426.852 116.464 426.38 116.176C425.908 115.888 425.536 115.484 425.264 114.964C424.992 114.444 424.856 113.852 424.856 113.188ZM430.424 113.2C430.424 112.704 430.324 112.272 430.124 111.904C429.924 111.536 429.652 111.256 429.308 111.064C428.972 110.864 428.6 110.764 428.192 110.764C427.784 110.764 427.412 110.86 427.076 111.052C426.74 111.244 426.472 111.524 426.272 111.892C426.072 112.26 425.972 112.692 425.972 113.188C425.972 113.692 426.072 114.132 426.272 114.508C426.472 114.876 426.74 115.16 427.076 115.36C427.412 115.552 427.784 115.648 428.192 115.648C428.6 115.648 428.972 115.552 429.308 115.36C429.652 115.16 429.924 114.876 430.124 114.508C430.324 114.132 430.424 113.696 430.424 113.2ZM434.465 107.62V116.5H433.373V107.62H434.465ZM437.658 110.824V114.7C437.658 115.02 437.726 115.248 437.862 115.384C437.998 115.512 438.234 115.576 438.57 115.576H439.374V116.5H438.39C437.782 116.5 437.326 116.36 437.022 116.08C436.718 115.8 436.566 115.34 436.566 114.7V110.824H435.714V109.924H436.566V108.268H437.658V109.924H439.374V110.824H437.658ZM443.961 109.804C444.457 109.804 444.905 109.912 445.305 110.128C445.705 110.336 446.017 110.652 446.241 111.076C446.473 111.5 446.589 112.016 446.589 112.624V116.5H445.509V112.78C445.509 112.124 445.345 111.624 445.017 111.28C444.689 110.928 444.241 110.752 443.673 110.752C443.097 110.752 442.637 110.932 442.293 111.292C441.957 111.652 441.789 112.176 441.789 112.864V116.5H440.697V107.62H441.789V110.86C442.005 110.524 442.301 110.264 442.677 110.08C443.061 109.896 443.489 109.804 443.961 109.804ZM456.132 111.64V112.564H451.344V111.64H456.132ZM461.069 115.624C462.085 114.808 462.881 114.14 463.457 113.62C464.033 113.092 464.517 112.544 464.909 111.976C465.309 111.4 465.509 110.836 465.509 110.284C465.509 109.764 465.381 109.356 465.125 109.06C464.877 108.756 464.473 108.604 463.913 108.604C463.369 108.604 462.945 108.776 462.641 109.12C462.345 109.456 462.185 109.908 462.161 110.476H461.105C461.137 109.58 461.409 108.888 461.921 108.4C462.433 107.912 463.093 107.668 463.901 107.668C464.725 107.668 465.377 107.896 465.857 108.352C466.345 108.808 466.589 109.436 466.589 110.236C466.589 110.9 466.389 111.548 465.989 112.18C465.597 112.804 465.149 113.356 464.645 113.836C464.141 114.308 463.497 114.86 462.713 115.492H466.841V116.404H461.069V115.624ZM468.103 112.072C468.103 110.696 468.327 109.624 468.775 108.856C469.223 108.08 470.007 107.692 471.127 107.692C472.239 107.692 473.019 108.08 473.467 108.856C473.915 109.624 474.139 110.696 474.139 112.072C474.139 113.472 473.915 114.56 473.467 115.336C473.019 116.112 472.239 116.5 471.127 116.5C470.007 116.5 469.223 116.112 468.775 115.336C468.327 114.56 468.103 113.472 468.103 112.072ZM473.059 112.072C473.059 111.376 473.011 110.788 472.915 110.308C472.827 109.82 472.639 109.428 472.351 109.132C472.071 108.836 471.663 108.688 471.127 108.688C470.583 108.688 470.167 108.836 469.879 109.132C469.599 109.428 469.411 109.82 469.315 110.308C469.227 110.788 469.183 111.376 469.183 112.072C469.183 112.792 469.227 113.396 469.315 113.884C469.411 114.372 469.599 114.764 469.879 115.06C470.167 115.356 470.583 115.504 471.127 115.504C471.663 115.504 472.071 115.356 472.351 115.06C472.639 114.764 472.827 114.372 472.915 113.884C473.011 113.396 473.059 112.792 473.059 112.072ZM475.399 109.78C475.399 109.236 475.563 108.804 475.891 108.484C476.219 108.156 476.639 107.992 477.151 107.992C477.663 107.992 478.083 108.156 478.411 108.484C478.739 108.804 478.903 109.236 478.903 109.78C478.903 110.332 478.739 110.772 478.411 111.1C478.083 111.42 477.663 111.58 477.151 111.58C476.639 111.58 476.219 111.42 475.891 111.1C475.563 110.772 475.399 110.332 475.399 109.78ZM482.407 108.124L477.547 116.5H476.467L481.327 108.124H482.407ZM477.151 108.664C476.879 108.664 476.663 108.76 476.503 108.952C476.351 109.136 476.275 109.412 476.275 109.78C476.275 110.148 476.351 110.428 476.503 110.62C476.663 110.812 476.879 110.908 477.151 110.908C477.423 110.908 477.639 110.812 477.799 110.62C477.959 110.42 478.039 110.14 478.039 109.78C478.039 109.412 477.959 109.136 477.799 108.952C477.639 108.76 477.423 108.664 477.151 108.664ZM479.995 114.844C479.995 114.292 480.159 113.856 480.487 113.536C480.815 113.208 481.235 113.044 481.747 113.044C482.259 113.044 482.675 113.208 482.995 113.536C483.323 113.856 483.487 114.292 483.487 114.844C483.487 115.388 483.323 115.824 482.995 116.152C482.675 116.48 482.259 116.644 481.747 116.644C481.235 116.644 480.815 116.484 480.487 116.164C480.159 115.836 479.995 115.396 479.995 114.844ZM481.735 113.728C481.463 113.728 481.247 113.824 481.087 114.016C480.927 114.2 480.847 114.476 480.847 114.844C480.847 115.204 480.927 115.48 481.087 115.672C481.247 115.856 481.463 115.948 481.735 115.948C482.007 115.948 482.223 115.856 482.383 115.672C482.543 115.48 482.623 115.204 482.623 114.844C482.623 114.476 482.543 114.2 482.383 114.016C482.223 113.824 482.007 113.728 481.735 113.728Z" fill="#292929"/>
<rect x="564" y="106" width="12" height="12" rx="6" fill="#044D49"/>
<rect x="48" y="141" width="12" height="12" rx="6" fill="#FDBB49"/>
<path d="M70.9822 143.136V144.024H68.7022V151.5H67.6102V144.024H65.3182V143.136H70.9822ZM73.4183 145.992C73.6103 145.616 73.8823 145.324 74.2343 145.116C74.5943 144.908 75.0303 144.804 75.5423 144.804V145.932H75.2543C74.0303 145.932 73.4183 146.596 73.4183 147.924V151.5H72.3263V144.924H73.4183V145.992ZM76.3949 148.188C76.3949 147.516 76.5309 146.928 76.8029 146.424C77.0749 145.912 77.4469 145.516 77.9189 145.236C78.3989 144.956 78.9309 144.816 79.5149 144.816C80.0909 144.816 80.5909 144.94 81.0149 145.188C81.4389 145.436 81.7549 145.748 81.9629 146.124V144.924H83.0669V151.5H81.9629V150.276C81.7469 150.66 81.4229 150.98 80.9909 151.236C80.5669 151.484 80.0709 151.608 79.5029 151.608C78.9189 151.608 78.3909 151.464 77.9189 151.176C77.4469 150.888 77.0749 150.484 76.8029 149.964C76.5309 149.444 76.3949 148.852 76.3949 148.188ZM81.9629 148.2C81.9629 147.704 81.8629 147.272 81.6629 146.904C81.4629 146.536 81.1909 146.256 80.8469 146.064C80.5109 145.864 80.1389 145.764 79.7309 145.764C79.3229 145.764 78.9509 145.86 78.6149 146.052C78.2789 146.244 78.0109 146.524 77.8109 146.892C77.6109 147.26 77.5109 147.692 77.5109 148.188C77.5109 148.692 77.6109 149.132 77.8109 149.508C78.0109 149.876 78.2789 150.16 78.6149 150.36C78.9509 150.552 79.3229 150.648 79.7309 150.648C80.1389 150.648 80.5109 150.552 80.8469 150.36C81.1909 150.16 81.4629 149.876 81.6629 149.508C81.8629 149.132 81.9629 148.696 81.9629 148.2ZM88.1163 144.804C88.9163 144.804 89.5643 145.048 90.0603 145.536C90.5563 146.016 90.8043 146.712 90.8043 147.624V151.5H89.7243V147.78C89.7243 147.124 89.5603 146.624 89.2323 146.28C88.9043 145.928 88.4563 145.752 87.8883 145.752C87.3123 145.752 86.8523 145.932 86.5083 146.292C86.1723 146.652 86.0043 147.176 86.0043 147.864V151.5H84.9123V144.924H86.0043V145.86C86.2203 145.524 86.5123 145.264 86.8803 145.08C87.2563 144.896 87.6683 144.804 88.1163 144.804ZM94.9161 151.608C94.4121 151.608 93.9601 151.524 93.5601 151.356C93.1601 151.18 92.8441 150.94 92.6121 150.636C92.3801 150.324 92.2521 149.968 92.2281 149.568H93.3561C93.3881 149.896 93.5401 150.164 93.8121 150.372C94.0921 150.58 94.4561 150.684 94.9041 150.684C95.3201 150.684 95.6481 150.592 95.8881 150.408C96.1281 150.224 96.2481 149.992 96.2481 149.712C96.2481 149.424 96.1201 149.212 95.8641 149.076C95.6081 148.932 95.2121 148.792 94.6761 148.656C94.1881 148.528 93.7881 148.4 93.4761 148.272C93.1721 148.136 92.9081 147.94 92.6841 147.684C92.4681 147.42 92.3601 147.076 92.3601 146.652C92.3601 146.316 92.4601 146.008 92.6601 145.728C92.8601 145.448 93.1441 145.228 93.5121 145.068C93.8801 144.9 94.3001 144.816 94.7721 144.816C95.5001 144.816 96.0881 145 96.5361 145.368C96.9841 145.736 97.2241 146.24 97.2561 146.88H96.1641C96.1401 146.536 96.0001 146.26 95.7441 146.052C95.4961 145.844 95.1601 145.74 94.7361 145.74C94.3441 145.74 94.0321 145.824 93.8001 145.992C93.5681 146.16 93.4521 146.38 93.4521 146.652C93.4521 146.868 93.5201 147.048 93.6561 147.192C93.8001 147.328 93.9761 147.44 94.1841 147.528C94.4001 147.608 94.6961 147.7 95.0721 147.804C95.5441 147.932 95.9281 148.06 96.2241 148.188C96.5201 148.308 96.7721 148.492 96.9801 148.74C97.1961 148.988 97.3081 149.312 97.3161 149.712C97.3161 150.072 97.2161 150.396 97.0161 150.684C96.8161 150.972 96.5321 151.2 96.1641 151.368C95.8041 151.528 95.3881 151.608 94.9161 151.608ZM99.9496 146.136C100.166 145.76 100.486 145.448 100.91 145.2C101.342 144.944 101.842 144.816 102.41 144.816C102.994 144.816 103.522 144.956 103.994 145.236C104.474 145.516 104.85 145.912 105.122 146.424C105.394 146.928 105.53 147.516 105.53 148.188C105.53 148.852 105.394 149.444 105.122 149.964C104.85 150.484 104.474 150.888 103.994 151.176C103.522 151.464 102.994 151.608 102.41 151.608C101.85 151.608 101.354 151.484 100.922 151.236C100.498 150.98 100.174 150.664 99.9496 150.288V154.62H98.8576V144.924H99.9496V146.136ZM104.414 148.188C104.414 147.692 104.314 147.26 104.114 146.892C103.914 146.524 103.642 146.244 103.298 146.052C102.962 145.86 102.59 145.764 102.182 145.764C101.782 145.764 101.41 145.864 101.066 146.064C100.73 146.256 100.458 146.54 100.25 146.916C100.05 147.284 99.9496 147.712 99.9496 148.2C99.9496 148.696 100.05 149.132 100.25 149.508C100.458 149.876 100.73 150.16 101.066 150.36C101.41 150.552 101.782 150.648 102.182 150.648C102.59 150.648 102.962 150.552 103.298 150.36C103.642 150.16 103.914 149.876 104.114 149.508C104.314 149.132 104.414 148.692 104.414 148.188ZM109.835 151.608C109.219 151.608 108.659 151.468 108.155 151.188C107.659 150.908 107.267 150.512 106.979 150C106.699 149.48 106.559 148.88 106.559 148.2C106.559 147.528 106.703 146.936 106.991 146.424C107.287 145.904 107.687 145.508 108.191 145.236C108.695 144.956 109.259 144.816 109.883 144.816C110.507 144.816 111.071 144.956 111.575 145.236C112.079 145.508 112.475 145.9 112.763 146.412C113.059 146.924 113.207 147.52 113.207 148.2C113.207 148.88 113.055 149.48 112.751 150C112.455 150.512 112.051 150.908 111.539 151.188C111.027 151.468 110.459 151.608 109.835 151.608ZM109.835 150.648C110.227 150.648 110.595 150.556 110.939 150.372C111.283 150.188 111.559 149.912 111.767 149.544C111.983 149.176 112.091 148.728 112.091 148.2C112.091 147.672 111.987 147.224 111.779 146.856C111.571 146.488 111.299 146.216 110.963 146.04C110.627 145.856 110.263 145.764 109.871 145.764C109.471 145.764 109.103 145.856 108.767 146.04C108.439 146.216 108.175 146.488 107.975 146.856C107.775 147.224 107.675 147.672 107.675 148.2C107.675 148.736 107.771 149.188 107.963 149.556C108.163 149.924 108.427 150.2 108.755 150.384C109.083 150.56 109.443 150.648 109.835 150.648ZM115.735 145.992C115.927 145.616 116.199 145.324 116.551 145.116C116.911 144.908 117.347 144.804 117.859 144.804V145.932H117.571C116.347 145.932 115.735 146.596 115.735 147.924V151.5H114.643V144.924H115.735V145.992ZM120.451 145.824V149.7C120.451 150.02 120.519 150.248 120.655 150.384C120.791 150.512 121.027 150.576 121.363 150.576H122.167V151.5H121.183C120.575 151.5 120.119 151.36 119.815 151.08C119.511 150.8 119.359 150.34 119.359 149.7V145.824H118.507V144.924H119.359V143.268H120.451V144.924H122.167V145.824H120.451ZM123.082 148.188C123.082 147.516 123.218 146.928 123.49 146.424C123.762 145.912 124.134 145.516 124.606 145.236C125.086 144.956 125.618 144.816 126.202 144.816C126.778 144.816 127.278 144.94 127.702 145.188C128.126 145.436 128.442 145.748 128.65 146.124V144.924H129.754V151.5H128.65V150.276C128.434 150.66 128.11 150.98 127.678 151.236C127.254 151.484 126.758 151.608 126.19 151.608C125.606 151.608 125.078 151.464 124.606 151.176C124.134 150.888 123.762 150.484 123.49 149.964C123.218 149.444 123.082 148.852 123.082 148.188ZM128.65 148.2C128.65 147.704 128.55 147.272 128.35 146.904C128.15 146.536 127.878 146.256 127.534 146.064C127.198 145.864 126.826 145.764 126.418 145.764C126.01 145.764 125.638 145.86 125.302 146.052C124.966 146.244 124.698 146.524 124.498 146.892C124.298 147.26 124.198 147.692 124.198 148.188C124.198 148.692 124.298 149.132 124.498 149.508C124.698 149.876 124.966 150.16 125.302 150.36C125.638 150.552 126.01 150.648 126.418 150.648C126.826 150.648 127.198 150.552 127.534 150.36C127.878 150.16 128.15 149.876 128.35 149.508C128.55 149.132 128.65 148.696 128.65 148.2ZM132.932 145.824V149.7C132.932 150.02 133 150.248 133.136 150.384C133.272 150.512 133.508 150.576 133.844 150.576H134.648V151.5H133.664C133.056 151.5 132.6 151.36 132.296 151.08C131.992 150.8 131.84 150.34 131.84 149.7V145.824H130.988V144.924H131.84V143.268H132.932V144.924H134.648V145.824H132.932ZM136.535 143.856C136.327 143.856 136.151 143.784 136.007 143.64C135.863 143.496 135.791 143.32 135.791 143.112C135.791 142.904 135.863 142.728 136.007 142.584C136.151 142.44 136.327 142.368 136.535 142.368C136.735 142.368 136.903 142.44 137.039 142.584C137.183 142.728 137.255 142.904 137.255 143.112C137.255 143.32 137.183 143.496 137.039 143.64C136.903 143.784 136.735 143.856 136.535 143.856ZM137.063 144.924V151.5H135.971V144.924H137.063ZM141.792 151.608C141.176 151.608 140.616 151.468 140.112 151.188C139.616 150.908 139.224 150.512 138.936 150C138.656 149.48 138.516 148.88 138.516 148.2C138.516 147.528 138.66 146.936 138.948 146.424C139.244 145.904 139.644 145.508 140.148 145.236C140.652 144.956 141.216 144.816 141.84 144.816C142.464 144.816 143.028 144.956 143.532 145.236C144.036 145.508 144.432 145.9 144.72 146.412C145.016 146.924 145.164 147.52 145.164 148.2C145.164 148.88 145.012 149.48 144.708 150C144.412 150.512 144.008 150.908 143.496 151.188C142.984 151.468 142.416 151.608 141.792 151.608ZM141.792 150.648C142.184 150.648 142.552 150.556 142.896 150.372C143.24 150.188 143.516 149.912 143.724 149.544C143.94 149.176 144.048 148.728 144.048 148.2C144.048 147.672 143.944 147.224 143.736 146.856C143.528 146.488 143.256 146.216 142.92 146.04C142.584 145.856 142.22 145.764 141.828 145.764C141.428 145.764 141.06 145.856 140.724 146.04C140.396 146.216 140.132 146.488 139.932 146.856C139.732 147.224 139.632 147.672 139.632 148.2C139.632 148.736 139.728 149.188 139.92 149.556C140.12 149.924 140.384 150.2 140.712 150.384C141.04 150.56 141.4 150.648 141.792 150.648ZM149.804 144.804C150.604 144.804 151.252 145.048 151.748 145.536C152.244 146.016 152.492 146.712 152.492 147.624V151.5H151.412V147.78C151.412 147.124 151.248 146.624 150.92 146.28C150.592 145.928 150.144 145.752 149.576 145.752C149 145.752 148.54 145.932 148.196 146.292C147.86 146.652 147.692 147.176 147.692 147.864V151.5H146.6V144.924H147.692V145.86C147.908 145.524 148.2 145.264 148.568 145.08C148.944 144.896 149.356 144.804 149.804 144.804ZM162.035 146.64V147.564H157.247V146.64H162.035ZM172.635 143.772H168.423V146.508C168.607 146.252 168.879 146.044 169.239 145.884C169.599 145.716 169.987 145.632 170.403 145.632C171.067 145.632 171.607 145.772 172.023 146.052C172.439 146.324 172.735 146.68 172.911 147.12C173.095 147.552 173.187 148.012 173.187 148.5C173.187 149.076 173.079 149.592 172.863 150.048C172.647 150.504 172.315 150.864 171.867 151.128C171.427 151.392 170.879 151.524 170.223 151.524C169.383 151.524 168.703 151.308 168.183 150.876C167.663 150.444 167.347 149.868 167.235 149.148H168.303C168.407 149.604 168.627 149.96 168.963 150.216C169.299 150.472 169.723 150.6 170.235 150.6C170.867 150.6 171.343 150.412 171.663 150.036C171.983 149.652 172.143 149.148 172.143 148.524C172.143 147.9 171.983 147.42 171.663 147.084C171.343 146.74 170.871 146.568 170.247 146.568C169.823 146.568 169.451 146.672 169.131 146.88C168.819 147.08 168.591 147.356 168.447 147.708H167.415V142.812H172.635V143.772ZM174.399 144.78C174.399 144.236 174.563 143.804 174.891 143.484C175.219 143.156 175.639 142.992 176.151 142.992C176.663 142.992 177.083 143.156 177.411 143.484C177.739 143.804 177.903 144.236 177.903 144.78C177.903 145.332 177.739 145.772 177.411 146.1C177.083 146.42 176.663 146.58 176.151 146.58C175.639 146.58 175.219 146.42 174.891 146.1C174.563 145.772 174.399 145.332 174.399 144.78ZM181.407 143.124L176.547 151.5H175.467L180.327 143.124H181.407ZM176.151 143.664C175.879 143.664 175.663 143.76 175.503 143.952C175.351 144.136 175.275 144.412 175.275 144.78C175.275 145.148 175.351 145.428 175.503 145.62C175.663 145.812 175.879 145.908 176.151 145.908C176.423 145.908 176.639 145.812 176.799 145.62C176.959 145.42 177.039 145.14 177.039 144.78C177.039 144.412 176.959 144.136 176.799 143.952C176.639 143.76 176.423 143.664 176.151 143.664ZM178.995 149.844C178.995 149.292 179.159 148.856 179.487 148.536C179.815 148.208 180.235 148.044 180.747 148.044C181.259 148.044 181.675 148.208 181.995 148.536C182.323 148.856 182.487 149.292 182.487 149.844C182.487 150.388 182.323 150.824 181.995 151.152C181.675 151.48 181.259 151.644 180.747 151.644C180.235 151.644 179.815 151.484 179.487 151.164C179.159 150.836 178.995 150.396 178.995 149.844ZM180.735 148.728C180.463 148.728 180.247 148.824 180.087 149.016C179.927 149.2 179.847 149.476 179.847 149.844C179.847 150.204 179.927 150.48 180.087 150.672C180.247 150.856 180.463 150.948 180.735 150.948C181.007 150.948 181.223 150.856 181.383 150.672C181.543 150.48 181.623 150.204 181.623 149.844C181.623 149.476 181.543 149.2 181.383 149.016C181.223 148.824 181.007 148.728 180.735 148.728Z" fill="#292929"/>
<rect x="220" y="141" width="12" height="12" rx="6" fill="#64E371"/>
<path d="M243.998 145.56C243.766 145.072 243.43 144.696 242.99 144.432C242.55 144.16 242.038 144.024 241.454 144.024C240.87 144.024 240.342 144.16 239.87 144.432C239.406 144.696 239.038 145.08 238.766 145.584C238.502 146.08 238.37 146.656 238.37 147.312C238.37 147.968 238.502 148.544 238.766 149.04C239.038 149.536 239.406 149.92 239.87 150.192C240.342 150.456 240.87 150.588 241.454 150.588C242.27 150.588 242.942 150.344 243.47 149.856C243.998 149.368 244.306 148.708 244.394 147.876H241.058V146.988H245.558V147.828C245.494 148.516 245.278 149.148 244.91 149.724C244.542 150.292 244.058 150.744 243.458 151.08C242.858 151.408 242.19 151.572 241.454 151.572C240.678 151.572 239.97 151.392 239.33 151.032C238.69 150.664 238.182 150.156 237.806 149.508C237.438 148.86 237.254 148.128 237.254 147.312C237.254 146.496 237.438 145.764 237.806 145.116C238.182 144.46 238.69 143.952 239.33 143.592C239.97 143.224 240.678 143.04 241.454 143.04C242.342 143.04 243.126 143.26 243.806 143.7C244.494 144.14 244.994 144.76 245.306 145.56H243.998ZM247.566 143.856C247.358 143.856 247.182 143.784 247.038 143.64C246.894 143.496 246.822 143.32 246.822 143.112C246.822 142.904 246.894 142.728 247.038 142.584C247.182 142.44 247.358 142.368 247.566 142.368C247.766 142.368 247.934 142.44 248.07 142.584C248.214 142.728 248.286 142.904 248.286 143.112C248.286 143.32 248.214 143.496 248.07 143.64C247.934 143.784 247.766 143.856 247.566 143.856ZM248.094 144.924V151.5H247.002V144.924H248.094ZM252.631 145.824H251.251V151.5H250.159V145.824H249.307V144.924H250.159V144.456C250.159 143.72 250.347 143.184 250.723 142.848C251.107 142.504 251.719 142.332 252.559 142.332V143.244C252.079 143.244 251.739 143.34 251.539 143.532C251.347 143.716 251.251 144.024 251.251 144.456V144.924H252.631V145.824ZM255.236 145.824V149.7C255.236 150.02 255.304 150.248 255.44 150.384C255.576 150.512 255.812 150.576 256.148 150.576H256.952V151.5H255.968C255.36 151.5 254.904 151.36 254.6 151.08C254.296 150.8 254.144 150.34 254.144 149.7V145.824H253.292V144.924H254.144V143.268H255.236V144.924H256.952V145.824H255.236ZM266.035 146.64V147.564H261.247V146.64H266.035ZM271.103 147.072C271.103 145.696 271.327 144.624 271.775 143.856C272.223 143.08 273.007 142.692 274.127 142.692C275.239 142.692 276.019 143.08 276.467 143.856C276.915 144.624 277.139 145.696 277.139 147.072C277.139 148.472 276.915 149.56 276.467 150.336C276.019 151.112 275.239 151.5 274.127 151.5C273.007 151.5 272.223 151.112 271.775 150.336C271.327 149.56 271.103 148.472 271.103 147.072ZM276.059 147.072C276.059 146.376 276.011 145.788 275.915 145.308C275.827 144.82 275.639 144.428 275.351 144.132C275.071 143.836 274.663 143.688 274.127 143.688C273.583 143.688 273.167 143.836 272.879 144.132C272.599 144.428 272.411 144.82 272.315 145.308C272.227 145.788 272.183 146.376 272.183 147.072C272.183 147.792 272.227 148.396 272.315 148.884C272.411 149.372 272.599 149.764 272.879 150.06C273.167 150.356 273.583 150.504 274.127 150.504C274.663 150.504 275.071 150.356 275.351 150.06C275.639 149.764 275.827 149.372 275.915 148.884C276.011 148.396 276.059 147.792 276.059 147.072ZM278.399 144.78C278.399 144.236 278.563 143.804 278.891 143.484C279.219 143.156 279.639 142.992 280.151 142.992C280.663 142.992 281.083 143.156 281.411 143.484C281.739 143.804 281.903 144.236 281.903 144.78C281.903 145.332 281.739 145.772 281.411 146.1C281.083 146.42 280.663 146.58 280.151 146.58C279.639 146.58 279.219 146.42 278.891 146.1C278.563 145.772 278.399 145.332 278.399 144.78ZM285.407 143.124L280.547 151.5H279.467L284.327 143.124H285.407ZM280.151 143.664C279.879 143.664 279.663 143.76 279.503 143.952C279.351 144.136 279.275 144.412 279.275 144.78C279.275 145.148 279.351 145.428 279.503 145.62C279.663 145.812 279.879 145.908 280.151 145.908C280.423 145.908 280.639 145.812 280.799 145.62C280.959 145.42 281.039 145.14 281.039 144.78C281.039 144.412 280.959 144.136 280.799 143.952C280.639 143.76 280.423 143.664 280.151 143.664ZM282.995 149.844C282.995 149.292 283.159 148.856 283.487 148.536C283.815 148.208 284.235 148.044 284.747 148.044C285.259 148.044 285.675 148.208 285.995 148.536C286.323 148.856 286.487 149.292 286.487 149.844C286.487 150.388 286.323 150.824 285.995 151.152C285.675 151.48 285.259 151.644 284.747 151.644C284.235 151.644 283.815 151.484 283.487 151.164C283.159 150.836 282.995 150.396 282.995 149.844ZM284.735 148.728C284.463 148.728 284.247 148.824 284.087 149.016C283.927 149.2 283.847 149.476 283.847 149.844C283.847 150.204 283.927 150.48 284.087 150.672C284.247 150.856 284.463 150.948 284.735 150.948C285.007 150.948 285.223 150.856 285.383 150.672C285.543 150.48 285.623 150.204 285.623 149.844C285.623 149.476 285.543 149.2 285.383 149.016C285.223 148.824 285.007 148.728 284.735 148.728Z" fill="#292929"/>
<rect x="392" y="141" width="12" height="12" rx="6" fill="#F178B6"/>
<path d="M413.745 147.192C414.049 147.24 414.325 147.364 414.573 147.564C414.829 147.764 415.029 148.012 415.173 148.308C415.325 148.604 415.401 148.92 415.401 149.256C415.401 149.68 415.293 150.064 415.077 150.408C414.861 150.744 414.545 151.012 414.129 151.212C413.721 151.404 413.237 151.5 412.677 151.5H409.557V143.136H412.557C413.125 143.136 413.609 143.232 414.009 143.424C414.409 143.608 414.709 143.86 414.909 144.18C415.109 144.5 415.209 144.86 415.209 145.26C415.209 145.756 415.073 146.168 414.801 146.496C414.537 146.816 414.185 147.048 413.745 147.192ZM410.649 146.748H412.485C412.997 146.748 413.393 146.628 413.673 146.388C413.953 146.148 414.093 145.816 414.093 145.392C414.093 144.968 413.953 144.636 413.673 144.396C413.393 144.156 412.989 144.036 412.461 144.036H410.649V146.748ZM412.581 150.6C413.125 150.6 413.549 150.472 413.853 150.216C414.157 149.96 414.309 149.604 414.309 149.148C414.309 148.684 414.149 148.32 413.829 148.056C413.509 147.784 413.081 147.648 412.545 147.648H410.649V150.6H412.581ZM417.48 143.856C417.272 143.856 417.096 143.784 416.952 143.64C416.808 143.496 416.736 143.32 416.736 143.112C416.736 142.904 416.808 142.728 416.952 142.584C417.096 142.44 417.272 142.368 417.48 142.368C417.68 142.368 417.848 142.44 417.984 142.584C418.128 142.728 418.2 142.904 418.2 143.112C418.2 143.32 418.128 143.496 417.984 143.64C417.848 143.784 417.68 143.856 417.48 143.856ZM418.008 144.924V151.5H416.916V144.924H418.008ZM420.961 145.992C421.153 145.616 421.425 145.324 421.777 145.116C422.137 144.908 422.573 144.804 423.085 144.804V145.932H422.797C421.573 145.932 420.961 146.596 420.961 147.924V151.5H419.869V144.924H420.961V145.992ZM425.678 145.824V149.7C425.678 150.02 425.746 150.248 425.882 150.384C426.018 150.512 426.254 150.576 426.59 150.576H427.394V151.5H426.41C425.802 151.5 425.346 151.36 425.042 151.08C424.738 150.8 424.586 150.34 424.586 149.7V145.824H423.734V144.924H424.586V143.268H425.678V144.924H427.394V145.824H425.678ZM431.981 144.804C432.477 144.804 432.925 144.912 433.325 145.128C433.725 145.336 434.037 145.652 434.261 146.076C434.493 146.5 434.609 147.016 434.609 147.624V151.5H433.529V147.78C433.529 147.124 433.365 146.624 433.037 146.28C432.709 145.928 432.261 145.752 431.693 145.752C431.117 145.752 430.657 145.932 430.313 146.292C429.977 146.652 429.809 147.176 429.809 147.864V151.5H428.717V142.62H429.809V145.86C430.025 145.524 430.321 145.264 430.697 145.08C431.081 144.896 431.509 144.804 431.981 144.804ZM435.985 148.188C435.985 147.516 436.121 146.928 436.393 146.424C436.665 145.912 437.037 145.516 437.509 145.236C437.989 144.956 438.525 144.816 439.117 144.816C439.629 144.816 440.105 144.936 440.545 145.176C440.985 145.408 441.321 145.716 441.553 146.1V142.62H442.657V151.5H441.553V150.264C441.337 150.656 441.017 150.98 440.593 151.236C440.169 151.484 439.673 151.608 439.105 151.608C438.521 151.608 437.989 151.464 437.509 151.176C437.037 150.888 436.665 150.484 436.393 149.964C436.121 149.444 435.985 148.852 435.985 148.188ZM441.553 148.2C441.553 147.704 441.453 147.272 441.253 146.904C441.053 146.536 440.781 146.256 440.437 146.064C440.101 145.864 439.729 145.764 439.321 145.764C438.913 145.764 438.541 145.86 438.205 146.052C437.869 146.244 437.601 146.524 437.401 146.892C437.201 147.26 437.101 147.692 437.101 148.188C437.101 148.692 437.201 149.132 437.401 149.508C437.601 149.876 437.869 150.16 438.205 150.36C438.541 150.552 438.913 150.648 439.321 150.648C439.729 150.648 440.101 150.552 440.437 150.36C440.781 150.16 441.053 149.876 441.253 149.508C441.453 149.132 441.553 148.696 441.553 148.2ZM444.094 148.188C444.094 147.516 444.23 146.928 444.502 146.424C444.774 145.912 445.146 145.516 445.618 145.236C446.098 144.956 446.63 144.816 447.214 144.816C447.79 144.816 448.29 144.94 448.714 145.188C449.138 145.436 449.454 145.748 449.662 146.124V144.924H450.766V151.5H449.662V150.276C449.446 150.66 449.122 150.98 448.69 151.236C448.266 151.484 447.77 151.608 447.202 151.608C446.618 151.608 446.09 151.464 445.618 151.176C445.146 150.888 444.774 150.484 444.502 149.964C444.23 149.444 444.094 148.852 444.094 148.188ZM449.662 148.2C449.662 147.704 449.562 147.272 449.362 146.904C449.162 146.536 448.89 146.256 448.546 146.064C448.21 145.864 447.838 145.764 447.43 145.764C447.022 145.764 446.65 145.86 446.314 146.052C445.978 146.244 445.71 146.524 445.51 146.892C445.31 147.26 445.21 147.692 445.21 148.188C445.21 148.692 445.31 149.132 445.51 149.508C445.71 149.876 445.978 150.16 446.314 150.36C446.65 150.552 447.022 150.648 447.43 150.648C447.838 150.648 448.21 150.552 448.546 150.36C448.89 150.16 449.162 149.876 449.362 149.508C449.562 149.132 449.662 148.696 449.662 148.2ZM458.276 144.924L454.316 154.596H453.188L454.484 151.428L451.832 144.924H453.044L455.108 150.252L457.148 144.924H458.276ZM467.132 146.64V147.564H462.344V146.64H467.132ZM472.069 150.624C473.085 149.808 473.881 149.14 474.457 148.62C475.033 148.092 475.517 147.544 475.909 146.976C476.309 146.4 476.509 145.836 476.509 145.284C476.509 144.764 476.381 144.356 476.125 144.06C475.877 143.756 475.473 143.604 474.913 143.604C474.369 143.604 473.945 143.776 473.641 144.12C473.345 144.456 473.185 144.908 473.161 145.476H472.105C472.137 144.58 472.409 143.888 472.921 143.4C473.433 142.912 474.093 142.668 474.901 142.668C475.725 142.668 476.377 142.896 476.857 143.352C477.345 143.808 477.589 144.436 477.589 145.236C477.589 145.9 477.389 146.548 476.989 147.18C476.597 147.804 476.149 148.356 475.645 148.836C475.141 149.308 474.497 149.86 473.713 150.492H477.841V151.404H472.069V150.624ZM479.103 147.072C479.103 145.696 479.327 144.624 479.775 143.856C480.223 143.08 481.007 142.692 482.127 142.692C483.239 142.692 484.019 143.08 484.467 143.856C484.915 144.624 485.139 145.696 485.139 147.072C485.139 148.472 484.915 149.56 484.467 150.336C484.019 151.112 483.239 151.5 482.127 151.5C481.007 151.5 480.223 151.112 479.775 150.336C479.327 149.56 479.103 148.472 479.103 147.072ZM484.059 147.072C484.059 146.376 484.011 145.788 483.915 145.308C483.827 144.82 483.639 144.428 483.351 144.132C483.071 143.836 482.663 143.688 482.127 143.688C481.583 143.688 481.167 143.836 480.879 144.132C480.599 144.428 480.411 144.82 480.315 145.308C480.227 145.788 480.183 146.376 480.183 147.072C480.183 147.792 480.227 148.396 480.315 148.884C480.411 149.372 480.599 149.764 480.879 150.06C481.167 150.356 481.583 150.504 482.127 150.504C482.663 150.504 483.071 150.356 483.351 150.06C483.639 149.764 483.827 149.372 483.915 148.884C484.011 148.396 484.059 147.792 484.059 147.072ZM486.399 144.78C486.399 144.236 486.563 143.804 486.891 143.484C487.219 143.156 487.639 142.992 488.151 142.992C488.663 142.992 489.083 143.156 489.411 143.484C489.739 143.804 489.903 144.236 489.903 144.78C489.903 145.332 489.739 145.772 489.411 146.1C489.083 146.42 488.663 146.58 488.151 146.58C487.639 146.58 487.219 146.42 486.891 146.1C486.563 145.772 486.399 145.332 486.399 144.78ZM493.407 143.124L488.547 151.5H487.467L492.327 143.124H493.407ZM488.151 143.664C487.879 143.664 487.663 143.76 487.503 143.952C487.351 144.136 487.275 144.412 487.275 144.78C487.275 145.148 487.351 145.428 487.503 145.62C487.663 145.812 487.879 145.908 488.151 145.908C488.423 145.908 488.639 145.812 488.799 145.62C488.959 145.42 489.039 145.14 489.039 144.78C489.039 144.412 488.959 144.136 488.799 143.952C488.639 143.76 488.423 143.664 488.151 143.664ZM490.995 149.844C490.995 149.292 491.159 148.856 491.487 148.536C491.815 148.208 492.235 148.044 492.747 148.044C493.259 148.044 493.675 148.208 493.995 148.536C494.323 148.856 494.487 149.292 494.487 149.844C494.487 150.388 494.323 150.824 493.995 151.152C493.675 151.48 493.259 151.644 492.747 151.644C492.235 151.644 491.815 151.484 491.487 151.164C491.159 150.836 490.995 150.396 490.995 149.844ZM492.735 148.728C492.463 148.728 492.247 148.824 492.087 149.016C491.927 149.2 491.847 149.476 491.847 149.844C491.847 150.204 491.927 150.48 492.087 150.672C492.247 150.856 492.463 150.948 492.735 150.948C493.007 150.948 493.223 150.856 493.383 150.672C493.543 150.48 493.623 150.204 493.623 149.844C493.623 149.476 493.543 149.2 493.383 149.016C493.223 148.824 493.007 148.728 492.735 148.728Z" fill="#292929"/>
</g>
</g>
<defs>
<filter id="filter0_d_6691_51277" x="-12" y="0" width="608" height="208" filterUnits="userSpaceOnUse" color-interpolation-filters="sRGB">
<feFlood flood-opacity="0" result="BackgroundImageFix"/>
<feColorMatrix in="SourceAlpha" type="matrix" values="0 0 0 0 0 0 0 0 0 0 0 0 0 0 0 0 0 0 127 0" result="hardAlpha"/>
<feMorphology radius="5" operator="dilate" in="SourceAlpha" result="effect1_dropShadow_6691_51277"/>
<feOffset dx="1" dy="5"/>
<feGaussianBlur stdDeviation="12"/>
<feComposite in2="hardAlpha" operator="out"/>
<feColorMatrix type="matrix" values="0 0 0 0 0.431373 0 0 0 0 0.458824 0 0 0 0 0.533333 0 0 0 0.07 0"/>
<feBlend mode="normal" in2="BackgroundImageFix" result="effect1_dropShadow_6691_51277"/>
<feBlend mode="normal" in="SourceGraphic" in2="effect1_dropShadow_6691_51277" result="shape"/>
</filter>
<clipPath id="clip0_6691_51277">
<rect x="16" y="24" width="550" height="150" rx="8" fill="white"/>
</clipPath>
</defs>
</svg>
