<svg width="550" height="150" viewBox="0 0 550 150" fill="none" xmlns="http://www.w3.org/2000/svg">
<g filter="url(#filter0_d_6691_51277)">
<g clip-path="url(#clip0_6691_51277)">
<rect width="550" height="150" rx="8" fill="#FCFCFC"/>
<path d="M37.88 45V31.176H32.36V28.2H47.024V31.176H41.528V45H37.88ZM51.9466 45.36C48.1306 45.36 45.5866 42.864 45.5866 39C45.5866 35.136 48.1306 32.64 51.9466 32.64C55.6906 32.64 58.2346 35.136 58.2346 39C58.2346 42.864 55.6906 45.36 51.9466 45.36ZM49.1146 39C49.1146 41.088 50.2426 42.456 51.9466 42.456C53.5786 42.456 54.7066 41.088 54.7066 39C54.7066 36.912 53.5786 35.544 51.9466 35.544C50.2426 35.544 49.1146 36.912 49.1146 39ZM64.2969 45C62.2089 45 61.1289 43.824 61.1289 41.808L61.1529 35.736H58.7049V33H61.2489V29.64H64.2249V33H67.5609V35.736H64.3449V41.208C64.3449 42 64.5609 42.264 65.2569 42.264H67.8249V45H64.2969ZM73.1293 45.36C70.3933 45.36 69.1213 43.896 69.1213 41.736C69.1213 39.696 70.4893 38.472 73.2253 37.8L75.6013 37.2C76.4413 37.008 76.7773 36.792 76.7773 36.336C76.7773 35.616 76.2013 35.136 74.7853 35.136C73.2493 35.136 72.5293 36 72.5053 36.936H69.2893C69.2893 34.368 71.4492 32.64 74.7853 32.64C78.1453 32.64 80.3773 34.272 80.3773 37.344V45H76.9693C77.1853 44.232 77.5933 43.464 78.0733 42.888V42.648H76.8733C76.5373 44.28 75.1693 45.36 73.1293 45.36ZM72.4333 41.448C72.4333 42.12 72.7693 42.792 74.0893 42.792C75.5053 42.792 76.8973 42.024 76.8973 40.368V38.64C76.6093 39.048 76.0573 39.336 75.4573 39.528L73.8973 40.008C73.0093 40.296 72.4333 40.752 72.4333 41.448ZM82.8178 45V28.2H86.2738V45H82.8178ZM94.4964 45V28.2H101.648C105.632 28.2 107.624 29.664 107.624 32.544C107.624 34.824 106.4 35.688 103.4 35.76V36.72C106.736 36.72 108.224 37.68 108.224 40.416C108.224 43.392 106.376 45 102.344 45H94.4964ZM98.1204 42.144H101.84C103.712 42.144 104.456 41.544 104.456 39.984C104.456 38.472 103.784 37.824 101.84 37.824H98.1204V42.144ZM98.1204 35.016H101.624C103.256 35.016 103.904 34.392 103.904 33C103.904 31.608 103.184 31.008 101.528 31.008H98.1204V35.016ZM121.991 33V45H118.871C118.991 44.184 119.351 43.08 119.687 42.336V42.096H118.511C118.079 44.112 116.711 45.36 114.551 45.36C111.983 45.36 110.567 43.608 110.567 40.488V33H114.047V39.864C114.047 41.568 114.743 42.456 116.135 42.456C117.455 42.456 118.511 41.136 118.511 39.408V33H121.991ZM129.312 45.36C126.241 45.36 124.009 42.744 124.009 39C124.009 35.256 126.241 32.64 129.312 32.64C131.449 32.64 132.793 33.84 133.441 35.904H134.617V35.664C133.897 34.32 133.441 32.616 133.441 30.624V28.2H136.921V45H133.441C133.609 44.256 134.137 43.104 134.617 42.36V42.12H133.441C132.793 44.16 131.617 45.36 129.312 45.36ZM127.537 39C127.537 41.112 128.737 42.456 130.513 42.456C132.265 42.456 133.465 41.112 133.465 39C133.465 36.888 132.265 35.544 130.513 35.544C128.737 35.544 127.537 36.888 127.537 39ZM142.946 49.8C140.234 49.8 138.986 48.432 138.986 46.608C138.986 45.12 140.066 44.112 141.362 44.112V43.416H141.002C140.234 43.416 139.634 42.84 139.634 42.144C139.634 41.448 140.234 40.896 141.002 40.896H142.034V40.272C140.642 39.648 139.778 38.352 139.778 36.888C139.778 34.344 141.698 32.64 144.77 32.64C146.906 32.64 148.394 33.552 149.138 34.776H149.858V34.32C149.858 33.504 150.482 33 151.058 33H152.234V36H150.674C150.242 36 149.858 36.264 149.858 36.696V37.008C149.858 39.36 147.986 41.208 145.01 41.208H143.714C143.282 41.208 142.994 41.448 142.994 41.856C142.994 42.264 143.282 42.48 143.714 42.48H149.042C151.154 42.48 152.45 43.92 152.45 45.744C152.45 48.216 150.722 49.8 147.338 49.8H142.946ZM142.082 46.296C142.082 46.992 142.61 47.376 143.426 47.376H147.722C148.49 47.376 149.09 47.04 149.09 46.272C149.09 45.624 148.586 45.264 147.794 45.264H143.354C142.634 45.264 142.082 45.648 142.082 46.296ZM142.874 36.936C142.874 38.064 143.666 38.784 144.866 38.784C146.042 38.784 146.81 38.064 146.81 36.936C146.81 35.808 146.042 35.088 144.866 35.088C143.666 35.088 142.874 35.808 142.874 36.936ZM159.435 45.36C155.427 45.36 152.907 42.864 152.907 39C152.907 35.136 155.283 32.64 159.243 32.64C162.507 32.64 165.267 34.584 165.267 38.712C165.267 39.048 165.243 39.408 165.219 39.648H156.435C156.651 41.496 157.923 42.672 159.435 42.672C160.827 42.672 161.787 41.976 162.027 40.944H165.363C164.931 43.608 162.771 45.36 159.435 45.36ZM156.531 37.512H161.715C161.691 36.024 160.683 35.208 159.171 35.208C157.683 35.208 156.723 36.072 156.531 37.512ZM171.406 45C169.318 45 168.238 43.824 168.238 41.808L168.262 35.736H165.814V33H168.358V29.64H171.334V33H174.67V35.736H171.454V41.208C171.454 42 171.67 42.264 172.366 42.264H174.934V45H171.406ZM176.447 41.52H180.167V45H176.447V41.52ZM176.447 36.504V33.024H180.167V36.504H176.447Z" fill="#1F1F1F"/>
<path d="M207.656 46.5H205.416L200.344 38.836V46.5H198.104V35.316H200.344L205.416 42.996V35.316H207.656V46.5ZM217.646 38.692C217.39 38.2227 217.038 37.8653 216.59 37.62C216.142 37.3747 215.619 37.252 215.022 37.252C214.36 37.252 213.774 37.4013 213.262 37.7C212.75 37.9987 212.35 38.4253 212.062 38.98C211.774 39.5347 211.63 40.1747 211.63 40.9C211.63 41.6467 211.774 42.2973 212.062 42.852C212.36 43.4067 212.771 43.8333 213.294 44.132C213.816 44.4307 214.424 44.58 215.118 44.58C215.971 44.58 216.67 44.356 217.214 43.908C217.758 43.4493 218.115 42.8147 218.286 42.004H214.446V40.292H220.494V42.244C220.344 43.0227 220.024 43.7427 219.534 44.404C219.043 45.0653 218.408 45.5987 217.63 46.004C216.862 46.3987 215.998 46.596 215.038 46.596C213.96 46.596 212.984 46.356 212.11 45.876C211.246 45.3853 210.563 44.708 210.062 43.844C209.571 42.98 209.326 41.9987 209.326 40.9C209.326 39.8013 209.571 38.82 210.062 37.956C210.563 37.0813 211.246 36.404 212.11 35.924C212.984 35.4333 213.955 35.188 215.022 35.188C216.28 35.188 217.374 35.4973 218.302 36.116C219.23 36.724 219.87 37.5827 220.222 38.692H217.646ZM231.703 46.5H229.463L224.391 38.836V46.5H222.151V35.316H224.391L229.463 42.996V35.316H231.703V46.5ZM239.141 46.5V32.108H237.741C237.629 33.48 236.705 34.404 235.641 34.404H234.017V30.708C237.153 30.708 239.057 29.336 239.057 26.9H243.201V46.5H239.141ZM254.746 46.92C249.314 46.92 246.318 42.58 246.318 36.7C246.318 30.82 249.314 26.48 254.746 26.48C260.178 26.48 263.146 30.792 263.146 36.7C263.146 42.58 260.178 46.92 254.746 46.92ZM250.49 36.7C250.49 40.424 251.61 43.336 254.746 43.336C257.882 43.336 258.974 40.424 258.974 36.7C258.974 32.948 257.882 30.064 254.746 30.064C251.61 30.064 250.49 32.948 250.49 36.7ZM272.601 46.92C267.169 46.92 264.173 42.58 264.173 36.7C264.173 30.82 267.169 26.48 272.601 26.48C278.033 26.48 281.001 30.792 281.001 36.7C281.001 42.58 278.033 46.92 272.601 46.92ZM268.345 36.7C268.345 40.424 269.465 43.336 272.601 43.336C275.737 43.336 276.829 40.424 276.829 36.7C276.829 32.948 275.737 30.064 272.601 30.064C269.465 30.064 268.345 32.948 268.345 36.7ZM290.457 46.92C285.025 46.92 282.029 42.58 282.029 36.7C282.029 30.82 285.025 26.48 290.457 26.48C295.889 26.48 298.857 30.792 298.857 36.7C298.857 42.58 295.889 46.92 290.457 46.92ZM286.201 36.7C286.201 40.424 287.321 43.336 290.457 43.336C293.593 43.336 294.685 40.424 294.685 36.7C294.685 32.948 293.593 30.064 290.457 30.064C287.321 30.064 286.201 32.948 286.201 36.7ZM300.754 50.028V48.264H301.986C302.266 48.264 302.406 48.096 302.406 47.844V46.5H300.754V42.44H305.066V48.852C305.066 49.58 304.562 50.028 303.89 50.028H300.754ZM315.859 46.92C310.427 46.92 307.431 42.58 307.431 36.7C307.431 30.82 310.427 26.48 315.859 26.48C321.291 26.48 324.259 30.792 324.259 36.7C324.259 42.58 321.291 46.92 315.859 46.92ZM311.603 36.7C311.603 40.424 312.723 43.336 315.859 43.336C318.995 43.336 320.087 40.424 320.087 36.7C320.087 32.948 318.995 30.064 315.859 30.064C312.723 30.064 311.603 32.948 311.603 36.7ZM333.715 46.92C328.283 46.92 325.287 42.58 325.287 36.7C325.287 30.82 328.283 26.48 333.715 26.48C339.147 26.48 342.115 30.792 342.115 36.7C342.115 42.58 339.147 46.92 333.715 46.92ZM329.459 36.7C329.459 40.424 330.579 43.336 333.715 43.336C336.851 43.336 337.943 40.424 337.943 36.7C337.943 32.948 336.851 30.064 333.715 30.064C330.579 30.064 329.459 32.948 329.459 36.7ZM351.57 46.92C346.138 46.92 343.142 42.58 343.142 36.7C343.142 30.82 346.138 26.48 351.57 26.48C357.002 26.48 359.97 30.792 359.97 36.7C359.97 42.58 357.002 46.92 351.57 46.92ZM347.314 36.7C347.314 40.424 348.434 43.336 351.57 43.336C354.706 43.336 355.798 40.424 355.798 36.7C355.798 32.948 354.706 30.064 351.57 30.064C348.434 30.064 347.314 32.948 347.314 36.7ZM362.205 42.44H366.545V46.5H362.205V42.44ZM377.273 46.92C371.841 46.92 368.845 42.58 368.845 36.7C368.845 30.82 371.841 26.48 377.273 26.48C382.705 26.48 385.673 30.792 385.673 36.7C385.673 42.58 382.705 46.92 377.273 46.92ZM373.017 36.7C373.017 40.424 374.137 43.336 377.273 43.336C380.409 43.336 381.501 40.424 381.501 36.7C381.501 32.948 380.409 30.064 377.273 30.064C374.137 30.064 373.017 32.948 373.017 36.7ZM395.129 46.92C389.697 46.92 386.701 42.58 386.701 36.7C386.701 30.82 389.697 26.48 395.129 26.48C400.561 26.48 403.529 30.792 403.529 36.7C403.529 42.58 400.561 46.92 395.129 46.92ZM390.873 36.7C390.873 40.424 391.993 43.336 395.129 43.336C398.265 43.336 399.357 40.424 399.357 36.7C399.357 32.948 398.265 30.064 395.129 30.064C391.993 30.064 390.873 32.948 390.873 36.7Z" fill="#251763"/>
<rect x="32" y="82" width="12" height="12" rx="6" fill="#057C76"/>
<path d="M56.2483 86.56C56.0163 86.072 55.6803 85.696 55.2403 85.432C54.8003 85.16 54.2883 85.024 53.7043 85.024C53.1203 85.024 52.5923 85.16 52.1203 85.432C51.6563 85.696 51.2883 86.08 51.0163 86.584C50.7523 87.08 50.6203 87.656 50.6203 88.312C50.6203 88.968 50.7523 89.544 51.0163 90.04C51.2883 90.536 51.6563 90.92 52.1203 91.192C52.5923 91.456 53.1203 91.588 53.7043 91.588C54.5203 91.588 55.1923 91.344 55.7203 90.856C56.2483 90.368 56.5563 89.708 56.6443 88.876H53.3083V87.988H57.8083V88.828C57.7443 89.516 57.5283 90.148 57.1603 90.724C56.7923 91.292 56.3083 91.744 55.7083 92.08C55.1083 92.408 54.4403 92.572 53.7043 92.572C52.9283 92.572 52.2203 92.392 51.5803 92.032C50.9403 91.664 50.4323 91.156 50.0563 90.508C49.6883 89.86 49.5043 89.128 49.5043 88.312C49.5043 87.496 49.6883 86.764 50.0563 86.116C50.4323 85.46 50.9403 84.952 51.5803 84.592C52.2203 84.224 52.9283 84.04 53.7043 84.04C54.5923 84.04 55.3763 84.26 56.0563 84.7C56.7443 85.14 57.2443 85.76 57.5563 86.56H56.2483ZM60.3441 86.992C60.5361 86.616 60.8081 86.324 61.1601 86.116C61.5201 85.908 61.9561 85.804 62.4681 85.804V86.932H62.1801C60.9561 86.932 60.3441 87.596 60.3441 88.924V92.5H59.2521V85.924H60.3441V86.992ZM66.5967 92.608C65.9807 92.608 65.4207 92.468 64.9167 92.188C64.4207 91.908 64.0287 91.512 63.7407 91C63.4607 90.48 63.3207 89.88 63.3207 89.2C63.3207 88.528 63.4647 87.936 63.7527 87.424C64.0487 86.904 64.4487 86.508 64.9527 86.236C65.4567 85.956 66.0207 85.816 66.6447 85.816C67.2687 85.816 67.8327 85.956 68.3367 86.236C68.8407 86.508 69.2367 86.9 69.5247 87.412C69.8207 87.924 69.9687 88.52 69.9687 89.2C69.9687 89.88 69.8167 90.48 69.5127 91C69.2167 91.512 68.8127 91.908 68.3007 92.188C67.7887 92.468 67.2207 92.608 66.5967 92.608ZM66.5967 91.648C66.9887 91.648 67.3567 91.556 67.7007 91.372C68.0447 91.188 68.3207 90.912 68.5287 90.544C68.7447 90.176 68.8527 89.728 68.8527 89.2C68.8527 88.672 68.7487 88.224 68.5407 87.856C68.3327 87.488 68.0607 87.216 67.7247 87.04C67.3887 86.856 67.0247 86.764 66.6327 86.764C66.2327 86.764 65.8647 86.856 65.5287 87.04C65.2007 87.216 64.9367 87.488 64.7367 87.856C64.5367 88.224 64.4367 88.672 64.4367 89.2C64.4367 89.736 64.5327 90.188 64.7247 90.556C64.9247 90.924 65.1887 91.2 65.5167 91.384C65.8447 91.56 66.2047 91.648 66.5967 91.648ZM70.9965 89.2C70.9965 88.52 71.1325 87.928 71.4045 87.424C71.6765 86.912 72.0525 86.516 72.5325 86.236C73.0205 85.956 73.5765 85.816 74.2005 85.816C75.0085 85.816 75.6725 86.012 76.1925 86.404C76.7205 86.796 77.0685 87.34 77.2365 88.036H76.0605C75.9485 87.636 75.7285 87.32 75.4005 87.088C75.0805 86.856 74.6805 86.74 74.2005 86.74C73.5765 86.74 73.0725 86.956 72.6885 87.388C72.3045 87.812 72.1125 88.416 72.1125 89.2C72.1125 89.992 72.3045 90.604 72.6885 91.036C73.0725 91.468 73.5765 91.684 74.2005 91.684C74.6805 91.684 75.0805 91.572 75.4005 91.348C75.7205 91.124 75.9405 90.804 76.0605 90.388H77.2365C77.0605 91.06 76.7085 91.6 76.1805 92.008C75.6525 92.408 74.9925 92.608 74.2005 92.608C73.5765 92.608 73.0205 92.468 72.5325 92.188C72.0525 91.908 71.6765 91.512 71.4045 91C71.1325 90.488 70.9965 89.888 70.9965 89.2ZM84.6935 88.96C84.6935 89.168 84.6815 89.388 84.6575 89.62H79.4015C79.4415 90.268 79.6615 90.776 80.0615 91.144C80.4695 91.504 80.9615 91.684 81.5375 91.684C82.0095 91.684 82.4015 91.576 82.7135 91.36C83.0335 91.136 83.2575 90.84 83.3855 90.472H84.5615C84.3855 91.104 84.0335 91.62 83.5055 92.02C82.9775 92.412 82.3215 92.608 81.5375 92.608C80.9135 92.608 80.3535 92.468 79.8575 92.188C79.3695 91.908 78.9855 91.512 78.7055 91C78.4255 90.48 78.2855 89.88 78.2855 89.2C78.2855 88.52 78.4215 87.924 78.6935 87.412C78.9655 86.9 79.3455 86.508 79.8335 86.236C80.3295 85.956 80.8975 85.816 81.5375 85.816C82.1615 85.816 82.7135 85.952 83.1935 86.224C83.6735 86.496 84.0415 86.872 84.2975 87.352C84.5615 87.824 84.6935 88.36 84.6935 88.96ZM83.5655 88.732C83.5655 88.316 83.4735 87.96 83.2895 87.664C83.1055 87.36 82.8535 87.132 82.5335 86.98C82.2215 86.82 81.8735 86.74 81.4895 86.74C80.9375 86.74 80.4655 86.916 80.0735 87.268C79.6895 87.62 79.4695 88.108 79.4135 88.732H83.5655ZM87.2269 86.992C87.4189 86.616 87.6909 86.324 88.0429 86.116C88.4029 85.908 88.8389 85.804 89.3509 85.804V86.932H89.0629C87.8389 86.932 87.2269 87.596 87.2269 88.924V92.5H86.1349V85.924H87.2269V86.992ZM96.2755 85.924L92.3155 95.596H91.1875L92.4835 92.428L89.8315 85.924H91.0435L93.1075 91.252L95.1475 85.924H96.2755ZM105.132 87.64V88.564H100.344V87.64H105.132ZM110.069 91.624C111.085 90.808 111.881 90.14 112.457 89.62C113.033 89.092 113.517 88.544 113.909 87.976C114.309 87.4 114.509 86.836 114.509 86.284C114.509 85.764 114.381 85.356 114.125 85.06C113.877 84.756 113.473 84.604 112.913 84.604C112.369 84.604 111.945 84.776 111.641 85.12C111.345 85.456 111.185 85.908 111.161 86.476H110.105C110.137 85.58 110.409 84.888 110.921 84.4C111.433 83.912 112.093 83.668 112.901 83.668C113.725 83.668 114.377 83.896 114.857 84.352C115.345 84.808 115.589 85.436 115.589 86.236C115.589 86.9 115.389 87.548 114.989 88.18C114.597 88.804 114.149 89.356 113.645 89.836C113.141 90.308 112.497 90.86 111.713 91.492H115.841V92.404H110.069V91.624ZM122.635 84.772H118.423V87.508C118.607 87.252 118.879 87.044 119.239 86.884C119.599 86.716 119.987 86.632 120.403 86.632C121.067 86.632 121.607 86.772 122.023 87.052C122.439 87.324 122.735 87.68 122.911 88.12C123.095 88.552 123.187 89.012 123.187 89.5C123.187 90.076 123.079 90.592 122.863 91.048C122.647 91.504 122.315 91.864 121.867 92.128C121.427 92.392 120.879 92.524 120.223 92.524C119.383 92.524 118.703 92.308 118.183 91.876C117.663 91.444 117.347 90.868 117.235 90.148H118.303C118.407 90.604 118.627 90.96 118.963 91.216C119.299 91.472 119.723 91.6 120.235 91.6C120.867 91.6 121.343 91.412 121.663 91.036C121.983 90.652 122.143 90.148 122.143 89.524C122.143 88.9 121.983 88.42 121.663 88.084C121.343 87.74 120.871 87.568 120.247 87.568C119.823 87.568 119.451 87.672 119.131 87.88C118.819 88.08 118.591 88.356 118.447 88.708H117.415V83.812H122.635V84.772ZM124.399 85.78C124.399 85.236 124.563 84.804 124.891 84.484C125.219 84.156 125.639 83.992 126.151 83.992C126.663 83.992 127.083 84.156 127.411 84.484C127.739 84.804 127.903 85.236 127.903 85.78C127.903 86.332 127.739 86.772 127.411 87.1C127.083 87.42 126.663 87.58 126.151 87.58C125.639 87.58 125.219 87.42 124.891 87.1C124.563 86.772 124.399 86.332 124.399 85.78ZM131.407 84.124L126.547 92.5H125.467L130.327 84.124H131.407ZM126.151 84.664C125.879 84.664 125.663 84.76 125.503 84.952C125.351 85.136 125.275 85.412 125.275 85.78C125.275 86.148 125.351 86.428 125.503 86.62C125.663 86.812 125.879 86.908 126.151 86.908C126.423 86.908 126.639 86.812 126.799 86.62C126.959 86.42 127.039 86.14 127.039 85.78C127.039 85.412 126.959 85.136 126.799 84.952C126.639 84.76 126.423 84.664 126.151 84.664ZM128.995 90.844C128.995 90.292 129.159 89.856 129.487 89.536C129.815 89.208 130.235 89.044 130.747 89.044C131.259 89.044 131.675 89.208 131.995 89.536C132.323 89.856 132.487 90.292 132.487 90.844C132.487 91.388 132.323 91.824 131.995 92.152C131.675 92.48 131.259 92.644 130.747 92.644C130.235 92.644 129.815 92.484 129.487 92.164C129.159 91.836 128.995 91.396 128.995 90.844ZM130.735 89.728C130.463 89.728 130.247 89.824 130.087 90.016C129.927 90.2 129.847 90.476 129.847 90.844C129.847 91.204 129.927 91.48 130.087 91.672C130.247 91.856 130.463 91.948 130.735 91.948C131.007 91.948 131.223 91.856 131.383 91.672C131.543 91.48 131.623 91.204 131.623 90.844C131.623 90.476 131.543 90.2 131.383 90.016C131.223 89.824 131.007 89.728 130.735 89.728Z" fill="#292929"/>
<rect x="204" y="82" width="12" height="12" rx="6" fill="#6DD3CE"/>
<path d="M222.356 85.024V87.82H225.404V88.72H222.356V91.6H225.764V92.5H221.264V84.124H225.764V85.024H222.356ZM227.008 89.188C227.008 88.516 227.144 87.928 227.416 87.424C227.688 86.912 228.06 86.516 228.532 86.236C229.012 85.956 229.548 85.816 230.14 85.816C230.652 85.816 231.128 85.936 231.568 86.176C232.008 86.408 232.344 86.716 232.576 87.1V83.62H233.68V92.5H232.576V91.264C232.36 91.656 232.04 91.98 231.616 92.236C231.192 92.484 230.696 92.608 230.128 92.608C229.544 92.608 229.012 92.464 228.532 92.176C228.06 91.888 227.688 91.484 227.416 90.964C227.144 90.444 227.008 89.852 227.008 89.188ZM232.576 89.2C232.576 88.704 232.476 88.272 232.276 87.904C232.076 87.536 231.804 87.256 231.46 87.064C231.124 86.864 230.752 86.764 230.344 86.764C229.936 86.764 229.564 86.86 229.228 87.052C228.892 87.244 228.624 87.524 228.424 87.892C228.224 88.26 228.124 88.692 228.124 89.188C228.124 89.692 228.224 90.132 228.424 90.508C228.624 90.876 228.892 91.16 229.228 91.36C229.564 91.552 229.936 91.648 230.344 91.648C230.752 91.648 231.124 91.552 231.46 91.36C231.804 91.16 232.076 90.876 232.276 90.508C232.476 90.132 232.576 89.696 232.576 89.2ZM241.358 85.924V92.5H240.266V91.528C240.058 91.864 239.766 92.128 239.39 92.32C239.022 92.504 238.614 92.596 238.166 92.596C237.654 92.596 237.194 92.492 236.786 92.284C236.378 92.068 236.054 91.748 235.814 91.324C235.582 90.9 235.466 90.384 235.466 89.776V85.924H236.546V89.632C236.546 90.28 236.71 90.78 237.038 91.132C237.366 91.476 237.814 91.648 238.382 91.648C238.966 91.648 239.426 91.468 239.762 91.108C240.098 90.748 240.266 90.224 240.266 89.536V85.924H241.358ZM242.793 89.2C242.793 88.52 242.929 87.928 243.201 87.424C243.473 86.912 243.849 86.516 244.329 86.236C244.817 85.956 245.373 85.816 245.997 85.816C246.805 85.816 247.469 86.012 247.989 86.404C248.517 86.796 248.865 87.34 249.033 88.036H247.857C247.745 87.636 247.525 87.32 247.197 87.088C246.877 86.856 246.477 86.74 245.997 86.74C245.373 86.74 244.869 86.956 244.485 87.388C244.101 87.812 243.909 88.416 243.909 89.2C243.909 89.992 244.101 90.604 244.485 91.036C244.869 91.468 245.373 91.684 245.997 91.684C246.477 91.684 246.877 91.572 247.197 91.348C247.517 91.124 247.737 90.804 247.857 90.388H249.033C248.857 91.06 248.505 91.6 247.977 92.008C247.449 92.408 246.789 92.608 245.997 92.608C245.373 92.608 244.817 92.468 244.329 92.188C243.849 91.908 243.473 91.512 243.201 91C242.929 90.488 242.793 89.888 242.793 89.2ZM250.082 89.188C250.082 88.516 250.218 87.928 250.49 87.424C250.762 86.912 251.134 86.516 251.606 86.236C252.086 85.956 252.618 85.816 253.202 85.816C253.778 85.816 254.278 85.94 254.702 86.188C255.126 86.436 255.442 86.748 255.65 87.124V85.924H256.754V92.5H255.65V91.276C255.434 91.66 255.11 91.98 254.678 92.236C254.254 92.484 253.758 92.608 253.19 92.608C252.606 92.608 252.078 92.464 251.606 92.176C251.134 91.888 250.762 91.484 250.49 90.964C250.218 90.444 250.082 89.852 250.082 89.188ZM255.65 89.2C255.65 88.704 255.55 88.272 255.35 87.904C255.15 87.536 254.878 87.256 254.534 87.064C254.198 86.864 253.826 86.764 253.418 86.764C253.01 86.764 252.638 86.86 252.302 87.052C251.966 87.244 251.698 87.524 251.498 87.892C251.298 88.26 251.198 88.692 251.198 89.188C251.198 89.692 251.298 90.132 251.498 90.508C251.698 90.876 251.966 91.16 252.302 91.36C252.638 91.552 253.01 91.648 253.418 91.648C253.826 91.648 254.198 91.552 254.534 91.36C254.878 91.16 255.15 90.876 255.35 90.508C255.55 90.132 255.65 89.696 255.65 89.2ZM259.932 86.824V90.7C259.932 91.02 260 91.248 260.136 91.384C260.272 91.512 260.508 91.576 260.844 91.576H261.648V92.5H260.664C260.056 92.5 259.6 92.36 259.296 92.08C258.992 91.8 258.84 91.34 258.84 90.7V86.824H257.988V85.924H258.84V84.268H259.932V85.924H261.648V86.824H259.932ZM263.535 84.856C263.327 84.856 263.151 84.784 263.007 84.64C262.863 84.496 262.791 84.32 262.791 84.112C262.791 83.904 262.863 83.728 263.007 83.584C263.151 83.44 263.327 83.368 263.535 83.368C263.735 83.368 263.903 83.44 264.039 83.584C264.183 83.728 264.255 83.904 264.255 84.112C264.255 84.32 264.183 84.496 264.039 84.64C263.903 84.784 263.735 84.856 263.535 84.856ZM264.063 85.924V92.5H262.971V85.924H264.063ZM268.792 92.608C268.176 92.608 267.616 92.468 267.112 92.188C266.616 91.908 266.224 91.512 265.936 91C265.656 90.48 265.516 89.88 265.516 89.2C265.516 88.528 265.66 87.936 265.948 87.424C266.244 86.904 266.644 86.508 267.148 86.236C267.652 85.956 268.216 85.816 268.84 85.816C269.464 85.816 270.028 85.956 270.532 86.236C271.036 86.508 271.432 86.9 271.72 87.412C272.016 87.924 272.164 88.52 272.164 89.2C272.164 89.88 272.012 90.48 271.708 91C271.412 91.512 271.008 91.908 270.496 92.188C269.984 92.468 269.416 92.608 268.792 92.608ZM268.792 91.648C269.184 91.648 269.552 91.556 269.896 91.372C270.24 91.188 270.516 90.912 270.724 90.544C270.94 90.176 271.048 89.728 271.048 89.2C271.048 88.672 270.944 88.224 270.736 87.856C270.528 87.488 270.256 87.216 269.92 87.04C269.584 86.856 269.22 86.764 268.828 86.764C268.428 86.764 268.06 86.856 267.724 87.04C267.396 87.216 267.132 87.488 266.932 87.856C266.732 88.224 266.632 88.672 266.632 89.2C266.632 89.736 266.728 90.188 266.92 90.556C267.12 90.924 267.384 91.2 267.712 91.384C268.04 91.56 268.4 91.648 268.792 91.648ZM276.804 85.804C277.604 85.804 278.252 86.048 278.748 86.536C279.244 87.016 279.492 87.712 279.492 88.624V92.5H278.412V88.78C278.412 88.124 278.248 87.624 277.92 87.28C277.592 86.928 277.144 86.752 276.576 86.752C276 86.752 275.54 86.932 275.196 87.292C274.86 87.652 274.692 88.176 274.692 88.864V92.5H273.6V85.924H274.692V86.86C274.908 86.524 275.2 86.264 275.568 86.08C275.944 85.896 276.356 85.804 276.804 85.804ZM289.035 87.64V88.564H284.247V87.64H289.035ZM299.635 84.772H295.423V87.508C295.607 87.252 295.879 87.044 296.239 86.884C296.599 86.716 296.987 86.632 297.403 86.632C298.067 86.632 298.607 86.772 299.023 87.052C299.439 87.324 299.735 87.68 299.911 88.12C300.095 88.552 300.187 89.012 300.187 89.5C300.187 90.076 300.079 90.592 299.863 91.048C299.647 91.504 299.315 91.864 298.867 92.128C298.427 92.392 297.879 92.524 297.223 92.524C296.383 92.524 295.703 92.308 295.183 91.876C294.663 91.444 294.347 90.868 294.235 90.148H295.303C295.407 90.604 295.627 90.96 295.963 91.216C296.299 91.472 296.723 91.6 297.235 91.6C297.867 91.6 298.343 91.412 298.663 91.036C298.983 90.652 299.143 90.148 299.143 89.524C299.143 88.9 298.983 88.42 298.663 88.084C298.343 87.74 297.871 87.568 297.247 87.568C296.823 87.568 296.451 87.672 296.131 87.88C295.819 88.08 295.591 88.356 295.447 88.708H294.415V83.812H299.635V84.772ZM301.399 85.78C301.399 85.236 301.563 84.804 301.891 84.484C302.219 84.156 302.639 83.992 303.151 83.992C303.663 83.992 304.083 84.156 304.411 84.484C304.739 84.804 304.903 85.236 304.903 85.78C304.903 86.332 304.739 86.772 304.411 87.1C304.083 87.42 303.663 87.58 303.151 87.58C302.639 87.58 302.219 87.42 301.891 87.1C301.563 86.772 301.399 86.332 301.399 85.78ZM308.407 84.124L303.547 92.5H302.467L307.327 84.124H308.407ZM303.151 84.664C302.879 84.664 302.663 84.76 302.503 84.952C302.351 85.136 302.275 85.412 302.275 85.78C302.275 86.148 302.351 86.428 302.503 86.62C302.663 86.812 302.879 86.908 303.151 86.908C303.423 86.908 303.639 86.812 303.799 86.62C303.959 86.42 304.039 86.14 304.039 85.78C304.039 85.412 303.959 85.136 303.799 84.952C303.639 84.76 303.423 84.664 303.151 84.664ZM305.995 90.844C305.995 90.292 306.159 89.856 306.487 89.536C306.815 89.208 307.235 89.044 307.747 89.044C308.259 89.044 308.675 89.208 308.995 89.536C309.323 89.856 309.487 90.292 309.487 90.844C309.487 91.388 309.323 91.824 308.995 92.152C308.675 92.48 308.259 92.644 307.747 92.644C307.235 92.644 306.815 92.484 306.487 92.164C306.159 91.836 305.995 91.396 305.995 90.844ZM307.735 89.728C307.463 89.728 307.247 89.824 307.087 90.016C306.927 90.2 306.847 90.476 306.847 90.844C306.847 91.204 306.927 91.48 307.087 91.672C307.247 91.856 307.463 91.948 307.735 91.948C308.007 91.948 308.223 91.856 308.383 91.672C308.543 91.48 308.623 91.204 308.623 90.844C308.623 90.476 308.543 90.2 308.383 90.016C308.223 89.824 308.007 89.728 307.735 89.728Z" fill="#292929"/>
<rect x="376" y="82" width="12" height="12" rx="6" fill="#FE7272"/>
<path d="M399.958 84.136V92.5H398.866V88.708H394.606V92.5H393.514V84.136H394.606V87.808H398.866V84.136H399.958ZM407.822 88.96C407.822 89.168 407.81 89.388 407.786 89.62H402.53C402.57 90.268 402.79 90.776 403.19 91.144C403.598 91.504 404.09 91.684 404.666 91.684C405.138 91.684 405.53 91.576 405.842 91.36C406.162 91.136 406.386 90.84 406.514 90.472H407.69C407.514 91.104 407.162 91.62 406.634 92.02C406.106 92.412 405.45 92.608 404.666 92.608C404.042 92.608 403.482 92.468 402.986 92.188C402.498 91.908 402.114 91.512 401.834 91C401.554 90.48 401.414 89.88 401.414 89.2C401.414 88.52 401.55 87.924 401.822 87.412C402.094 86.9 402.474 86.508 402.962 86.236C403.458 85.956 404.026 85.816 404.666 85.816C405.29 85.816 405.842 85.952 406.322 86.224C406.802 86.496 407.17 86.872 407.426 87.352C407.69 87.824 407.822 88.36 407.822 88.96ZM406.694 88.732C406.694 88.316 406.602 87.96 406.418 87.664C406.234 87.36 405.982 87.132 405.662 86.98C405.35 86.82 405.002 86.74 404.618 86.74C404.066 86.74 403.594 86.916 403.202 87.268C402.818 87.62 402.598 88.108 402.542 88.732H406.694ZM408.856 89.188C408.856 88.516 408.992 87.928 409.264 87.424C409.536 86.912 409.908 86.516 410.38 86.236C410.86 85.956 411.392 85.816 411.976 85.816C412.552 85.816 413.052 85.94 413.476 86.188C413.9 86.436 414.216 86.748 414.424 87.124V85.924H415.528V92.5H414.424V91.276C414.208 91.66 413.884 91.98 413.452 92.236C413.028 92.484 412.532 92.608 411.964 92.608C411.38 92.608 410.852 92.464 410.38 92.176C409.908 91.888 409.536 91.484 409.264 90.964C408.992 90.444 408.856 89.852 408.856 89.188ZM414.424 89.2C414.424 88.704 414.324 88.272 414.124 87.904C413.924 87.536 413.652 87.256 413.308 87.064C412.972 86.864 412.6 86.764 412.192 86.764C411.784 86.764 411.412 86.86 411.076 87.052C410.74 87.244 410.472 87.524 410.272 87.892C410.072 88.26 409.972 88.692 409.972 89.188C409.972 89.692 410.072 90.132 410.272 90.508C410.472 90.876 410.74 91.16 411.076 91.36C411.412 91.552 411.784 91.648 412.192 91.648C412.6 91.648 412.972 91.552 413.308 91.36C413.652 91.16 413.924 90.876 414.124 90.508C414.324 90.132 414.424 89.696 414.424 89.2ZM418.465 83.62V92.5H417.373V83.62H418.465ZM421.658 86.824V90.7C421.658 91.02 421.726 91.248 421.862 91.384C421.998 91.512 422.234 91.576 422.57 91.576H423.374V92.5H422.39C421.782 92.5 421.326 92.36 421.022 92.08C420.718 91.8 420.566 91.34 420.566 90.7V86.824H419.714V85.924H420.566V84.268H421.658V85.924H423.374V86.824H421.658ZM427.961 85.804C428.457 85.804 428.905 85.912 429.305 86.128C429.705 86.336 430.017 86.652 430.241 87.076C430.473 87.5 430.589 88.016 430.589 88.624V92.5H429.509V88.78C429.509 88.124 429.345 87.624 429.017 87.28C428.689 86.928 428.241 86.752 427.673 86.752C427.097 86.752 426.637 86.932 426.293 87.292C425.957 87.652 425.789 88.176 425.789 88.864V92.5H424.697V83.62H425.789V86.86C426.005 86.524 426.301 86.264 426.677 86.08C427.061 85.896 427.489 85.804 427.961 85.804ZM440.132 87.64V88.564H435.344V87.64H440.132ZM445.069 91.624C446.085 90.808 446.881 90.14 447.457 89.62C448.033 89.092 448.517 88.544 448.909 87.976C449.309 87.4 449.509 86.836 449.509 86.284C449.509 85.764 449.381 85.356 449.125 85.06C448.877 84.756 448.473 84.604 447.913 84.604C447.369 84.604 446.945 84.776 446.641 85.12C446.345 85.456 446.185 85.908 446.161 86.476H445.105C445.137 85.58 445.409 84.888 445.921 84.4C446.433 83.912 447.093 83.668 447.901 83.668C448.725 83.668 449.377 83.896 449.857 84.352C450.345 84.808 450.589 85.436 450.589 86.236C450.589 86.9 450.389 87.548 449.989 88.18C449.597 88.804 449.149 89.356 448.645 89.836C448.141 90.308 447.497 90.86 446.713 91.492H450.841V92.404H445.069V91.624ZM452.103 88.072C452.103 86.696 452.327 85.624 452.775 84.856C453.223 84.08 454.007 83.692 455.127 83.692C456.239 83.692 457.019 84.08 457.467 84.856C457.915 85.624 458.139 86.696 458.139 88.072C458.139 89.472 457.915 90.56 457.467 91.336C457.019 92.112 456.239 92.5 455.127 92.5C454.007 92.5 453.223 92.112 452.775 91.336C452.327 90.56 452.103 89.472 452.103 88.072ZM457.059 88.072C457.059 87.376 457.011 86.788 456.915 86.308C456.827 85.82 456.639 85.428 456.351 85.132C456.071 84.836 455.663 84.688 455.127 84.688C454.583 84.688 454.167 84.836 453.879 85.132C453.599 85.428 453.411 85.82 453.315 86.308C453.227 86.788 453.183 87.376 453.183 88.072C453.183 88.792 453.227 89.396 453.315 89.884C453.411 90.372 453.599 90.764 453.879 91.06C454.167 91.356 454.583 91.504 455.127 91.504C455.663 91.504 456.071 91.356 456.351 91.06C456.639 90.764 456.827 90.372 456.915 89.884C457.011 89.396 457.059 88.792 457.059 88.072ZM459.399 85.78C459.399 85.236 459.563 84.804 459.891 84.484C460.219 84.156 460.639 83.992 461.151 83.992C461.663 83.992 462.083 84.156 462.411 84.484C462.739 84.804 462.903 85.236 462.903 85.78C462.903 86.332 462.739 86.772 462.411 87.1C462.083 87.42 461.663 87.58 461.151 87.58C460.639 87.58 460.219 87.42 459.891 87.1C459.563 86.772 459.399 86.332 459.399 85.78ZM466.407 84.124L461.547 92.5H460.467L465.327 84.124H466.407ZM461.151 84.664C460.879 84.664 460.663 84.76 460.503 84.952C460.351 85.136 460.275 85.412 460.275 85.78C460.275 86.148 460.351 86.428 460.503 86.62C460.663 86.812 460.879 86.908 461.151 86.908C461.423 86.908 461.639 86.812 461.799 86.62C461.959 86.42 462.039 86.14 462.039 85.78C462.039 85.412 461.959 85.136 461.799 84.952C461.639 84.76 461.423 84.664 461.151 84.664ZM463.995 90.844C463.995 90.292 464.159 89.856 464.487 89.536C464.815 89.208 465.235 89.044 465.747 89.044C466.259 89.044 466.675 89.208 466.995 89.536C467.323 89.856 467.487 90.292 467.487 90.844C467.487 91.388 467.323 91.824 466.995 92.152C466.675 92.48 466.259 92.644 465.747 92.644C465.235 92.644 464.815 92.484 464.487 92.164C464.159 91.836 463.995 91.396 463.995 90.844ZM465.735 89.728C465.463 89.728 465.247 89.824 465.087 90.016C464.927 90.2 464.847 90.476 464.847 90.844C464.847 91.204 464.927 91.48 465.087 91.672C465.247 91.856 465.463 91.948 465.735 91.948C466.007 91.948 466.223 91.856 466.383 91.672C466.543 91.48 466.623 91.204 466.623 90.844C466.623 90.476 466.543 90.2 466.383 90.016C466.223 89.824 466.007 89.728 465.735 89.728Z" fill="#292929"/>
<rect x="548" y="82" width="12" height="12" rx="6" fill="#044D49"/>
<rect x="32" y="117" width="12" height="12" rx="6" fill="#FDBB49"/>
<path d="M54.9822 119.136V120.024H52.7022V127.5H51.6102V120.024H49.3182V119.136H54.9822ZM57.4183 121.992C57.6103 121.616 57.8823 121.324 58.2343 121.116C58.5943 120.908 59.0303 120.804 59.5423 120.804V121.932H59.2543C58.0303 121.932 57.4183 122.596 57.4183 123.924V127.5H56.3263V120.924H57.4183V121.992ZM60.3949 124.188C60.3949 123.516 60.5309 122.928 60.8029 122.424C61.0749 121.912 61.4469 121.516 61.9189 121.236C62.3989 120.956 62.9309 120.816 63.5149 120.816C64.0909 120.816 64.5909 120.94 65.0149 121.188C65.4389 121.436 65.7549 121.748 65.9629 122.124V120.924H67.0669V127.5H65.9629V126.276C65.7469 126.66 65.4229 126.98 64.9909 127.236C64.5669 127.484 64.0709 127.608 63.5029 127.608C62.9189 127.608 62.3909 127.464 61.9189 127.176C61.4469 126.888 61.0749 126.484 60.8029 125.964C60.5309 125.444 60.3949 124.852 60.3949 124.188ZM65.9629 124.2C65.9629 123.704 65.8629 123.272 65.6629 122.904C65.4629 122.536 65.1909 122.256 64.8469 122.064C64.5109 121.864 64.1389 121.764 63.7309 121.764C63.3229 121.764 62.9509 121.86 62.6149 122.052C62.2789 122.244 62.0109 122.524 61.8109 122.892C61.6109 123.26 61.5109 123.692 61.5109 124.188C61.5109 124.692 61.6109 125.132 61.8109 125.508C62.0109 125.876 62.2789 126.16 62.6149 126.36C62.9509 126.552 63.3229 126.648 63.7309 126.648C64.1389 126.648 64.5109 126.552 64.8469 126.36C65.1909 126.16 65.4629 125.876 65.6629 125.508C65.8629 125.132 65.9629 124.696 65.9629 124.2ZM72.1163 120.804C72.9163 120.804 73.5643 121.048 74.0603 121.536C74.5563 122.016 74.8043 122.712 74.8043 123.624V127.5H73.7243V123.78C73.7243 123.124 73.5603 122.624 73.2323 122.28C72.9043 121.928 72.4563 121.752 71.8883 121.752C71.3123 121.752 70.8523 121.932 70.5083 122.292C70.1723 122.652 70.0043 123.176 70.0043 123.864V127.5H68.9123V120.924H70.0043V121.86C70.2203 121.524 70.5123 121.264 70.8803 121.08C71.2563 120.896 71.6683 120.804 72.1163 120.804ZM78.9161 127.608C78.4121 127.608 77.9601 127.524 77.5601 127.356C77.1601 127.18 76.8441 126.94 76.6121 126.636C76.3801 126.324 76.2521 125.968 76.2281 125.568H77.3561C77.3881 125.896 77.5401 126.164 77.8121 126.372C78.0921 126.58 78.4561 126.684 78.9041 126.684C79.3201 126.684 79.6481 126.592 79.8881 126.408C80.1281 126.224 80.2481 125.992 80.2481 125.712C80.2481 125.424 80.1201 125.212 79.8641 125.076C79.6081 124.932 79.2121 124.792 78.6761 124.656C78.1881 124.528 77.7881 124.4 77.4761 124.272C77.1721 124.136 76.9081 123.94 76.6841 123.684C76.4681 123.42 76.3601 123.076 76.3601 122.652C76.3601 122.316 76.4601 122.008 76.6601 121.728C76.8601 121.448 77.1441 121.228 77.5121 121.068C77.8801 120.9 78.3001 120.816 78.7721 120.816C79.5001 120.816 80.0881 121 80.5361 121.368C80.9841 121.736 81.2241 122.24 81.2561 122.88H80.1641C80.1401 122.536 80.0001 122.26 79.7441 122.052C79.4961 121.844 79.1601 121.74 78.7361 121.74C78.3441 121.74 78.0321 121.824 77.8001 121.992C77.5681 122.16 77.4521 122.38 77.4521 122.652C77.4521 122.868 77.5201 123.048 77.6561 123.192C77.8001 123.328 77.9761 123.44 78.1841 123.528C78.4001 123.608 78.6961 123.7 79.0721 123.804C79.5441 123.932 79.9281 124.06 80.2241 124.188C80.5201 124.308 80.7721 124.492 80.9801 124.74C81.1961 124.988 81.3081 125.312 81.3161 125.712C81.3161 126.072 81.2161 126.396 81.0161 126.684C80.8161 126.972 80.5321 127.2 80.1641 127.368C79.8041 127.528 79.3881 127.608 78.9161 127.608ZM83.9496 122.136C84.1656 121.76 84.4856 121.448 84.9096 121.2C85.3416 120.944 85.8416 120.816 86.4096 120.816C86.9936 120.816 87.5216 120.956 87.9936 121.236C88.4736 121.516 88.8496 121.912 89.1216 122.424C89.3936 122.928 89.5296 123.516 89.5296 124.188C89.5296 124.852 89.3936 125.444 89.1216 125.964C88.8496 126.484 88.4736 126.888 87.9936 127.176C87.5216 127.464 86.9936 127.608 86.4096 127.608C85.8496 127.608 85.3536 127.484 84.9216 127.236C84.4976 126.98 84.1736 126.664 83.9496 126.288V130.62H82.8576V120.924H83.9496V122.136ZM88.4136 124.188C88.4136 123.692 88.3136 123.26 88.1136 122.892C87.9136 122.524 87.6416 122.244 87.2976 122.052C86.9616 121.86 86.5896 121.764 86.1816 121.764C85.7816 121.764 85.4096 121.864 85.0656 122.064C84.7296 122.256 84.4576 122.54 84.2496 122.916C84.0496 123.284 83.9496 123.712 83.9496 124.2C83.9496 124.696 84.0496 125.132 84.2496 125.508C84.4576 125.876 84.7296 126.16 85.0656 126.36C85.4096 126.552 85.7816 126.648 86.1816 126.648C86.5896 126.648 86.9616 126.552 87.2976 126.36C87.6416 126.16 87.9136 125.876 88.1136 125.508C88.3136 125.132 88.4136 124.692 88.4136 124.188ZM93.835 127.608C93.219 127.608 92.659 127.468 92.155 127.188C91.659 126.908 91.267 126.512 90.979 126C90.699 125.48 90.559 124.88 90.559 124.2C90.559 123.528 90.703 122.936 90.991 122.424C91.287 121.904 91.687 121.508 92.191 121.236C92.695 120.956 93.259 120.816 93.883 120.816C94.507 120.816 95.071 120.956 95.575 121.236C96.079 121.508 96.475 121.9 96.763 122.412C97.059 122.924 97.207 123.52 97.207 124.2C97.207 124.88 97.055 125.48 96.751 126C96.455 126.512 96.051 126.908 95.539 127.188C95.027 127.468 94.459 127.608 93.835 127.608ZM93.835 126.648C94.227 126.648 94.595 126.556 94.939 126.372C95.283 126.188 95.559 125.912 95.767 125.544C95.983 125.176 96.091 124.728 96.091 124.2C96.091 123.672 95.987 123.224 95.779 122.856C95.571 122.488 95.299 122.216 94.963 122.04C94.627 121.856 94.263 121.764 93.871 121.764C93.471 121.764 93.103 121.856 92.767 122.04C92.439 122.216 92.175 122.488 91.975 122.856C91.775 123.224 91.675 123.672 91.675 124.2C91.675 124.736 91.771 125.188 91.963 125.556C92.163 125.924 92.427 126.2 92.755 126.384C93.083 126.56 93.443 126.648 93.835 126.648ZM99.7348 121.992C99.9268 121.616 100.199 121.324 100.551 121.116C100.911 120.908 101.347 120.804 101.859 120.804V121.932H101.571C100.347 121.932 99.7348 122.596 99.7348 123.924V127.5H98.6428V120.924H99.7348V121.992ZM104.451 121.824V125.7C104.451 126.02 104.519 126.248 104.655 126.384C104.791 126.512 105.027 126.576 105.363 126.576H106.167V127.5H105.183C104.575 127.5 104.119 127.36 103.815 127.08C103.511 126.8 103.359 126.34 103.359 125.7V121.824H102.507V120.924H103.359V119.268H104.451V120.924H106.167V121.824H104.451ZM107.082 124.188C107.082 123.516 107.218 122.928 107.49 122.424C107.762 121.912 108.134 121.516 108.606 121.236C109.086 120.956 109.618 120.816 110.202 120.816C110.778 120.816 111.278 120.94 111.702 121.188C112.126 121.436 112.442 121.748 112.65 122.124V120.924H113.754V127.5H112.65V126.276C112.434 126.66 112.11 126.98 111.678 127.236C111.254 127.484 110.758 127.608 110.19 127.608C109.606 127.608 109.078 127.464 108.606 127.176C108.134 126.888 107.762 126.484 107.49 125.964C107.218 125.444 107.082 124.852 107.082 124.188ZM112.65 124.2C112.65 123.704 112.55 123.272 112.35 122.904C112.15 122.536 111.878 122.256 111.534 122.064C111.198 121.864 110.826 121.764 110.418 121.764C110.01 121.764 109.638 121.86 109.302 122.052C108.966 122.244 108.698 122.524 108.498 122.892C108.298 123.26 108.198 123.692 108.198 124.188C108.198 124.692 108.298 125.132 108.498 125.508C108.698 125.876 108.966 126.16 109.302 126.36C109.638 126.552 110.01 126.648 110.418 126.648C110.826 126.648 111.198 126.552 111.534 126.36C111.878 126.16 112.15 125.876 112.35 125.508C112.55 125.132 112.65 124.696 112.65 124.2ZM116.932 121.824V125.7C116.932 126.02 117 126.248 117.136 126.384C117.272 126.512 117.508 126.576 117.844 126.576H118.648V127.5H117.664C117.056 127.5 116.6 127.36 116.296 127.08C115.992 126.8 115.84 126.34 115.84 125.7V121.824H114.988V120.924H115.84V119.268H116.932V120.924H118.648V121.824H116.932ZM120.535 119.856C120.327 119.856 120.151 119.784 120.007 119.64C119.863 119.496 119.791 119.32 119.791 119.112C119.791 118.904 119.863 118.728 120.007 118.584C120.151 118.44 120.327 118.368 120.535 118.368C120.735 118.368 120.903 118.44 121.039 118.584C121.183 118.728 121.255 118.904 121.255 119.112C121.255 119.32 121.183 119.496 121.039 119.64C120.903 119.784 120.735 119.856 120.535 119.856ZM121.063 120.924V127.5H119.971V120.924H121.063ZM125.792 127.608C125.176 127.608 124.616 127.468 124.112 127.188C123.616 126.908 123.224 126.512 122.936 126C122.656 125.48 122.516 124.88 122.516 124.2C122.516 123.528 122.66 122.936 122.948 122.424C123.244 121.904 123.644 121.508 124.148 121.236C124.652 120.956 125.216 120.816 125.84 120.816C126.464 120.816 127.028 120.956 127.532 121.236C128.036 121.508 128.432 121.9 128.72 122.412C129.016 122.924 129.164 123.52 129.164 124.2C129.164 124.88 129.012 125.48 128.708 126C128.412 126.512 128.008 126.908 127.496 127.188C126.984 127.468 126.416 127.608 125.792 127.608ZM125.792 126.648C126.184 126.648 126.552 126.556 126.896 126.372C127.24 126.188 127.516 125.912 127.724 125.544C127.94 125.176 128.048 124.728 128.048 124.2C128.048 123.672 127.944 123.224 127.736 122.856C127.528 122.488 127.256 122.216 126.92 122.04C126.584 121.856 126.22 121.764 125.828 121.764C125.428 121.764 125.06 121.856 124.724 122.04C124.396 122.216 124.132 122.488 123.932 122.856C123.732 123.224 123.632 123.672 123.632 124.2C123.632 124.736 123.728 125.188 123.92 125.556C124.12 125.924 124.384 126.2 124.712 126.384C125.04 126.56 125.4 126.648 125.792 126.648ZM133.804 120.804C134.604 120.804 135.252 121.048 135.748 121.536C136.244 122.016 136.492 122.712 136.492 123.624V127.5H135.412V123.78C135.412 123.124 135.248 122.624 134.92 122.28C134.592 121.928 134.144 121.752 133.576 121.752C133 121.752 132.54 121.932 132.196 122.292C131.86 122.652 131.692 123.176 131.692 123.864V127.5H130.6V120.924H131.692V121.86C131.908 121.524 132.2 121.264 132.568 121.08C132.944 120.896 133.356 120.804 133.804 120.804ZM146.035 122.64V123.564H141.247V122.64H146.035ZM156.635 119.772H152.423V122.508C152.607 122.252 152.879 122.044 153.239 121.884C153.599 121.716 153.987 121.632 154.403 121.632C155.067 121.632 155.607 121.772 156.023 122.052C156.439 122.324 156.735 122.68 156.911 123.12C157.095 123.552 157.187 124.012 157.187 124.5C157.187 125.076 157.079 125.592 156.863 126.048C156.647 126.504 156.315 126.864 155.867 127.128C155.427 127.392 154.879 127.524 154.223 127.524C153.383 127.524 152.703 127.308 152.183 126.876C151.663 126.444 151.347 125.868 151.235 125.148H152.303C152.407 125.604 152.627 125.96 152.963 126.216C153.299 126.472 153.723 126.6 154.235 126.6C154.867 126.6 155.343 126.412 155.663 126.036C155.983 125.652 156.143 125.148 156.143 124.524C156.143 123.9 155.983 123.42 155.663 123.084C155.343 122.74 154.871 122.568 154.247 122.568C153.823 122.568 153.451 122.672 153.131 122.88C152.819 123.08 152.591 123.356 152.447 123.708H151.415V118.812H156.635V119.772ZM158.399 120.78C158.399 120.236 158.563 119.804 158.891 119.484C159.219 119.156 159.639 118.992 160.151 118.992C160.663 118.992 161.083 119.156 161.411 119.484C161.739 119.804 161.903 120.236 161.903 120.78C161.903 121.332 161.739 121.772 161.411 122.1C161.083 122.42 160.663 122.58 160.151 122.58C159.639 122.58 159.219 122.42 158.891 122.1C158.563 121.772 158.399 121.332 158.399 120.78ZM165.407 119.124L160.547 127.5H159.467L164.327 119.124H165.407ZM160.151 119.664C159.879 119.664 159.663 119.76 159.503 119.952C159.351 120.136 159.275 120.412 159.275 120.78C159.275 121.148 159.351 121.428 159.503 121.62C159.663 121.812 159.879 121.908 160.151 121.908C160.423 121.908 160.639 121.812 160.799 121.62C160.959 121.42 161.039 121.14 161.039 120.78C161.039 120.412 160.959 120.136 160.799 119.952C160.639 119.76 160.423 119.664 160.151 119.664ZM162.995 125.844C162.995 125.292 163.159 124.856 163.487 124.536C163.815 124.208 164.235 124.044 164.747 124.044C165.259 124.044 165.675 124.208 165.995 124.536C166.323 124.856 166.487 125.292 166.487 125.844C166.487 126.388 166.323 126.824 165.995 127.152C165.675 127.48 165.259 127.644 164.747 127.644C164.235 127.644 163.815 127.484 163.487 127.164C163.159 126.836 162.995 126.396 162.995 125.844ZM164.735 124.728C164.463 124.728 164.247 124.824 164.087 125.016C163.927 125.2 163.847 125.476 163.847 125.844C163.847 126.204 163.927 126.48 164.087 126.672C164.247 126.856 164.463 126.948 164.735 126.948C165.007 126.948 165.223 126.856 165.383 126.672C165.543 126.48 165.623 126.204 165.623 125.844C165.623 125.476 165.543 125.2 165.383 125.016C165.223 124.824 165.007 124.728 164.735 124.728Z" fill="#292929"/>
<rect x="204" y="117" width="12" height="12" rx="6" fill="#64E371"/>
<path d="M227.998 121.56C227.766 121.072 227.43 120.696 226.99 120.432C226.55 120.16 226.038 120.024 225.454 120.024C224.87 120.024 224.342 120.16 223.87 120.432C223.406 120.696 223.038 121.08 222.766 121.584C222.502 122.08 222.37 122.656 222.37 123.312C222.37 123.968 222.502 124.544 222.766 125.04C223.038 125.536 223.406 125.92 223.87 126.192C224.342 126.456 224.87 126.588 225.454 126.588C226.27 126.588 226.942 126.344 227.47 125.856C227.998 125.368 228.306 124.708 228.394 123.876H225.058V122.988H229.558V123.828C229.494 124.516 229.278 125.148 228.91 125.724C228.542 126.292 228.058 126.744 227.458 127.08C226.858 127.408 226.19 127.572 225.454 127.572C224.678 127.572 223.97 127.392 223.33 127.032C222.69 126.664 222.182 126.156 221.806 125.508C221.438 124.86 221.254 124.128 221.254 123.312C221.254 122.496 221.438 121.764 221.806 121.116C222.182 120.46 222.69 119.952 223.33 119.592C223.97 119.224 224.678 119.04 225.454 119.04C226.342 119.04 227.126 119.26 227.806 119.7C228.494 120.14 228.994 120.76 229.306 121.56H227.998ZM231.566 119.856C231.358 119.856 231.182 119.784 231.038 119.64C230.894 119.496 230.822 119.32 230.822 119.112C230.822 118.904 230.894 118.728 231.038 118.584C231.182 118.44 231.358 118.368 231.566 118.368C231.766 118.368 231.934 118.44 232.07 118.584C232.214 118.728 232.286 118.904 232.286 119.112C232.286 119.32 232.214 119.496 232.07 119.64C231.934 119.784 231.766 119.856 231.566 119.856ZM232.094 120.924V127.5H231.002V120.924H232.094ZM236.631 121.824H235.251V127.5H234.159V121.824H233.307V120.924H234.159V120.456C234.159 119.72 234.347 119.184 234.723 118.848C235.107 118.504 235.719 118.332 236.559 118.332V119.244C236.079 119.244 235.739 119.34 235.539 119.532C235.347 119.716 235.251 120.024 235.251 120.456V120.924H236.631V121.824ZM239.236 121.824V125.7C239.236 126.02 239.304 126.248 239.44 126.384C239.576 126.512 239.812 126.576 240.148 126.576H240.952V127.5H239.968C239.36 127.5 238.904 127.36 238.6 127.08C238.296 126.8 238.144 126.34 238.144 125.7V121.824H237.292V120.924H238.144V119.268H239.236V120.924H240.952V121.824H239.236ZM250.035 122.64V123.564H245.247V122.64H250.035ZM255.103 123.072C255.103 121.696 255.327 120.624 255.775 119.856C256.223 119.08 257.007 118.692 258.127 118.692C259.239 118.692 260.019 119.08 260.467 119.856C260.915 120.624 261.139 121.696 261.139 123.072C261.139 124.472 260.915 125.56 260.467 126.336C260.019 127.112 259.239 127.5 258.127 127.5C257.007 127.5 256.223 127.112 255.775 126.336C255.327 125.56 255.103 124.472 255.103 123.072ZM260.059 123.072C260.059 122.376 260.011 121.788 259.915 121.308C259.827 120.82 259.639 120.428 259.351 120.132C259.071 119.836 258.663 119.688 258.127 119.688C257.583 119.688 257.167 119.836 256.879 120.132C256.599 120.428 256.411 120.82 256.315 121.308C256.227 121.788 256.183 122.376 256.183 123.072C256.183 123.792 256.227 124.396 256.315 124.884C256.411 125.372 256.599 125.764 256.879 126.06C257.167 126.356 257.583 126.504 258.127 126.504C258.663 126.504 259.071 126.356 259.351 126.06C259.639 125.764 259.827 125.372 259.915 124.884C260.011 124.396 260.059 123.792 260.059 123.072ZM262.399 120.78C262.399 120.236 262.563 119.804 262.891 119.484C263.219 119.156 263.639 118.992 264.151 118.992C264.663 118.992 265.083 119.156 265.411 119.484C265.739 119.804 265.903 120.236 265.903 120.78C265.903 121.332 265.739 121.772 265.411 122.1C265.083 122.42 264.663 122.58 264.151 122.58C263.639 122.58 263.219 122.42 262.891 122.1C262.563 121.772 262.399 121.332 262.399 120.78ZM269.407 119.124L264.547 127.5H263.467L268.327 119.124H269.407ZM264.151 119.664C263.879 119.664 263.663 119.76 263.503 119.952C263.351 120.136 263.275 120.412 263.275 120.78C263.275 121.148 263.351 121.428 263.503 121.62C263.663 121.812 263.879 121.908 264.151 121.908C264.423 121.908 264.639 121.812 264.799 121.62C264.959 121.42 265.039 121.14 265.039 120.78C265.039 120.412 264.959 120.136 264.799 119.952C264.639 119.76 264.423 119.664 264.151 119.664ZM266.995 125.844C266.995 125.292 267.159 124.856 267.487 124.536C267.815 124.208 268.235 124.044 268.747 124.044C269.259 124.044 269.675 124.208 269.995 124.536C270.323 124.856 270.487 125.292 270.487 125.844C270.487 126.388 270.323 126.824 269.995 127.152C269.675 127.48 269.259 127.644 268.747 127.644C268.235 127.644 267.815 127.484 267.487 127.164C267.159 126.836 266.995 126.396 266.995 125.844ZM268.735 124.728C268.463 124.728 268.247 124.824 268.087 125.016C267.927 125.2 267.847 125.476 267.847 125.844C267.847 126.204 267.927 126.48 268.087 126.672C268.247 126.856 268.463 126.948 268.735 126.948C269.007 126.948 269.223 126.856 269.383 126.672C269.543 126.48 269.623 126.204 269.623 125.844C269.623 125.476 269.543 125.2 269.383 125.016C269.223 124.824 269.007 124.728 268.735 124.728Z" fill="#292929"/>
<rect x="376" y="117" width="12" height="12" rx="6" fill="#F178B6"/>
<path d="M397.745 123.192C398.049 123.24 398.325 123.364 398.573 123.564C398.829 123.764 399.029 124.012 399.173 124.308C399.325 124.604 399.401 124.92 399.401 125.256C399.401 125.68 399.293 126.064 399.077 126.408C398.861 126.744 398.545 127.012 398.129 127.212C397.721 127.404 397.237 127.5 396.677 127.5H393.557V119.136H396.557C397.125 119.136 397.609 119.232 398.009 119.424C398.409 119.608 398.709 119.86 398.909 120.18C399.109 120.5 399.209 120.86 399.209 121.26C399.209 121.756 399.073 122.168 398.801 122.496C398.537 122.816 398.185 123.048 397.745 123.192ZM394.649 122.748H396.485C396.997 122.748 397.393 122.628 397.673 122.388C397.953 122.148 398.093 121.816 398.093 121.392C398.093 120.968 397.953 120.636 397.673 120.396C397.393 120.156 396.989 120.036 396.461 120.036H394.649V122.748ZM396.581 126.6C397.125 126.6 397.549 126.472 397.853 126.216C398.157 125.96 398.309 125.604 398.309 125.148C398.309 124.684 398.149 124.32 397.829 124.056C397.509 123.784 397.081 123.648 396.545 123.648H394.649V126.6H396.581ZM401.48 119.856C401.272 119.856 401.096 119.784 400.952 119.64C400.808 119.496 400.736 119.32 400.736 119.112C400.736 118.904 400.808 118.728 400.952 118.584C401.096 118.44 401.272 118.368 401.48 118.368C401.68 118.368 401.848 118.44 401.984 118.584C402.128 118.728 402.2 118.904 402.2 119.112C402.2 119.32 402.128 119.496 401.984 119.64C401.848 119.784 401.68 119.856 401.48 119.856ZM402.008 120.924V127.5H400.916V120.924H402.008ZM404.961 121.992C405.153 121.616 405.425 121.324 405.777 121.116C406.137 120.908 406.573 120.804 407.085 120.804V121.932H406.797C405.573 121.932 404.961 122.596 404.961 123.924V127.5H403.869V120.924H404.961V121.992ZM409.678 121.824V125.7C409.678 126.02 409.746 126.248 409.882 126.384C410.018 126.512 410.254 126.576 410.59 126.576H411.394V127.5H410.41C409.802 127.5 409.346 127.36 409.042 127.08C408.738 126.8 408.586 126.34 408.586 125.7V121.824H407.734V120.924H408.586V119.268H409.678V120.924H411.394V121.824H409.678ZM415.981 120.804C416.477 120.804 416.925 120.912 417.325 121.128C417.725 121.336 418.037 121.652 418.261 122.076C418.493 122.5 418.609 123.016 418.609 123.624V127.5H417.529V123.78C417.529 123.124 417.365 122.624 417.037 122.28C416.709 121.928 416.261 121.752 415.693 121.752C415.117 121.752 414.657 121.932 414.313 122.292C413.977 122.652 413.809 123.176 413.809 123.864V127.5H412.717V118.62H413.809V121.86C414.025 121.524 414.321 121.264 414.697 121.08C415.081 120.896 415.509 120.804 415.981 120.804ZM419.985 124.188C419.985 123.516 420.121 122.928 420.393 122.424C420.665 121.912 421.037 121.516 421.509 121.236C421.989 120.956 422.525 120.816 423.117 120.816C423.629 120.816 424.105 120.936 424.545 121.176C424.985 121.408 425.321 121.716 425.553 122.1V118.62H426.657V127.5H425.553V126.264C425.337 126.656 425.017 126.98 424.593 127.236C424.169 127.484 423.673 127.608 423.105 127.608C422.521 127.608 421.989 127.464 421.509 127.176C421.037 126.888 420.665 126.484 420.393 125.964C420.121 125.444 419.985 124.852 419.985 124.188ZM425.553 124.2C425.553 123.704 425.453 123.272 425.253 122.904C425.053 122.536 424.781 122.256 424.437 122.064C424.101 121.864 423.729 121.764 423.321 121.764C422.913 121.764 422.541 121.86 422.205 122.052C421.869 122.244 421.601 122.524 421.401 122.892C421.201 123.26 421.101 123.692 421.101 124.188C421.101 124.692 421.201 125.132 421.401 125.508C421.601 125.876 421.869 126.16 422.205 126.36C422.541 126.552 422.913 126.648 423.321 126.648C423.729 126.648 424.101 126.552 424.437 126.36C424.781 126.16 425.053 125.876 425.253 125.508C425.453 125.132 425.553 124.696 425.553 124.2ZM428.094 124.188C428.094 123.516 428.23 122.928 428.502 122.424C428.774 121.912 429.146 121.516 429.618 121.236C430.098 120.956 430.63 120.816 431.214 120.816C431.79 120.816 432.29 120.94 432.714 121.188C433.138 121.436 433.454 121.748 433.662 122.124V120.924H434.766V127.5H433.662V126.276C433.446 126.66 433.122 126.98 432.69 127.236C432.266 127.484 431.77 127.608 431.202 127.608C430.618 127.608 430.09 127.464 429.618 127.176C429.146 126.888 428.774 126.484 428.502 125.964C428.23 125.444 428.094 124.852 428.094 124.188ZM433.662 124.2C433.662 123.704 433.562 123.272 433.362 122.904C433.162 122.536 432.89 122.256 432.546 122.064C432.21 121.864 431.838 121.764 431.43 121.764C431.022 121.764 430.65 121.86 430.314 122.052C429.978 122.244 429.71 122.524 429.51 122.892C429.31 123.26 429.21 123.692 429.21 124.188C429.21 124.692 429.31 125.132 429.51 125.508C429.71 125.876 429.978 126.16 430.314 126.36C430.65 126.552 431.022 126.648 431.43 126.648C431.838 126.648 432.21 126.552 432.546 126.36C432.89 126.16 433.162 125.876 433.362 125.508C433.562 125.132 433.662 124.696 433.662 124.2ZM442.276 120.924L438.316 130.596H437.188L438.484 127.428L435.832 120.924H437.044L439.108 126.252L441.148 120.924H442.276ZM451.132 122.64V123.564H446.344V122.64H451.132ZM456.069 126.624C457.085 125.808 457.881 125.14 458.457 124.62C459.033 124.092 459.517 123.544 459.909 122.976C460.309 122.4 460.509 121.836 460.509 121.284C460.509 120.764 460.381 120.356 460.125 120.06C459.877 119.756 459.473 119.604 458.913 119.604C458.369 119.604 457.945 119.776 457.641 120.12C457.345 120.456 457.185 120.908 457.161 121.476H456.105C456.137 120.58 456.409 119.888 456.921 119.4C457.433 118.912 458.093 118.668 458.901 118.668C459.725 118.668 460.377 118.896 460.857 119.352C461.345 119.808 461.589 120.436 461.589 121.236C461.589 121.9 461.389 122.548 460.989 123.18C460.597 123.804 460.149 124.356 459.645 124.836C459.141 125.308 458.497 125.86 457.713 126.492H461.841V127.404H456.069V126.624ZM463.103 123.072C463.103 121.696 463.327 120.624 463.775 119.856C464.223 119.08 465.007 118.692 466.127 118.692C467.239 118.692 468.019 119.08 468.467 119.856C468.915 120.624 469.139 121.696 469.139 123.072C469.139 124.472 468.915 125.56 468.467 126.336C468.019 127.112 467.239 127.5 466.127 127.5C465.007 127.5 464.223 127.112 463.775 126.336C463.327 125.56 463.103 124.472 463.103 123.072ZM468.059 123.072C468.059 122.376 468.011 121.788 467.915 121.308C467.827 120.82 467.639 120.428 467.351 120.132C467.071 119.836 466.663 119.688 466.127 119.688C465.583 119.688 465.167 119.836 464.879 120.132C464.599 120.428 464.411 120.82 464.315 121.308C464.227 121.788 464.183 122.376 464.183 123.072C464.183 123.792 464.227 124.396 464.315 124.884C464.411 125.372 464.599 125.764 464.879 126.06C465.167 126.356 465.583 126.504 466.127 126.504C466.663 126.504 467.071 126.356 467.351 126.06C467.639 125.764 467.827 125.372 467.915 124.884C468.011 124.396 468.059 123.792 468.059 123.072ZM470.399 120.78C470.399 120.236 470.563 119.804 470.891 119.484C471.219 119.156 471.639 118.992 472.151 118.992C472.663 118.992 473.083 119.156 473.411 119.484C473.739 119.804 473.903 120.236 473.903 120.78C473.903 121.332 473.739 121.772 473.411 122.1C473.083 122.42 472.663 122.58 472.151 122.58C471.639 122.58 471.219 122.42 470.891 122.1C470.563 121.772 470.399 121.332 470.399 120.78ZM477.407 119.124L472.547 127.5H471.467L476.327 119.124H477.407ZM472.151 119.664C471.879 119.664 471.663 119.76 471.503 119.952C471.351 120.136 471.275 120.412 471.275 120.78C471.275 121.148 471.351 121.428 471.503 121.62C471.663 121.812 471.879 121.908 472.151 121.908C472.423 121.908 472.639 121.812 472.799 121.62C472.959 121.42 473.039 121.14 473.039 120.78C473.039 120.412 472.959 120.136 472.799 119.952C472.639 119.76 472.423 119.664 472.151 119.664ZM474.995 125.844C474.995 125.292 475.159 124.856 475.487 124.536C475.815 124.208 476.235 124.044 476.747 124.044C477.259 124.044 477.675 124.208 477.995 124.536C478.323 124.856 478.487 125.292 478.487 125.844C478.487 126.388 478.323 126.824 477.995 127.152C477.675 127.48 477.259 127.644 476.747 127.644C476.235 127.644 475.815 127.484 475.487 127.164C475.159 126.836 474.995 126.396 474.995 125.844ZM476.735 124.728C476.463 124.728 476.247 124.824 476.087 125.016C475.927 125.2 475.847 125.476 475.847 125.844C475.847 126.204 475.927 126.48 476.087 126.672C476.247 126.856 476.463 126.948 476.735 126.948C477.007 126.948 477.223 126.856 477.383 126.672C477.543 126.48 477.623 126.204 477.623 125.844C477.623 125.476 477.543 125.2 477.383 125.016C477.223 124.824 477.007 124.728 476.735 124.728Z" fill="#292929"/>
</g>
</g>
<defs>
<filter id="filter0_d_6691_51277" x="-28" y="-24" width="608" height="208" filterUnits="userSpaceOnUse" color-interpolation-filters="sRGB">
<feFlood flood-opacity="0" result="BackgroundImageFix"/>
<feColorMatrix in="SourceAlpha" type="matrix" values="0 0 0 0 0 0 0 0 0 0 0 0 0 0 0 0 0 0 127 0" result="hardAlpha"/>
<feMorphology radius="5" operator="dilate" in="SourceAlpha" result="effect1_dropShadow_6691_51277"/>
<feOffset dx="1" dy="5"/>
<feGaussianBlur stdDeviation="12"/>
<feComposite in2="hardAlpha" operator="out"/>
<feColorMatrix type="matrix" values="0 0 0 0 0.431373 0 0 0 0 0.458824 0 0 0 0 0.533333 0 0 0 0.07 0"/>
<feBlend mode="normal" in2="BackgroundImageFix" result="effect1_dropShadow_6691_51277"/>
<feBlend mode="normal" in="SourceGraphic" in2="effect1_dropShadow_6691_51277" result="shape"/>
</filter>
<clipPath id="clip0_6691_51277">
<rect width="550" height="150" rx="8" fill="white"/>
</clipPath>
</defs>
</svg>
